SpartanTT-Regular.ufo
<glyph name="exclam" format="2">
  <advance width="733"/>
  <unicode hex="0021"/>
  <outline>
    <component base="period" xOffset="-14"/>
    <contour>
      <point x="420" y="393" type="line"/>
      <point x="434" y="1720" type="line"/>
      <point x="297" y="1720" type="line"/>
      <point x="311" y="393" type="line"/>
    </contour>
  </outline>
</glyph>
<glyph name="numbersign" format="2">
  <advance width="1437"/>
  <unicode hex="0023"/>
  <outline>
    <contour>
      <point x="420" y="0" type="line"/>
      <point x="476" y="420" type="line"/>
      <point x="879" y="420" type="line"/>
      <point x="823" y="0" type="line"/>
      <point x="918" y="0" type="line"/>
      <point x="974" y="420" type="line"/>
      <point x="1241" y="420" type="line"/>
      <point x="1241" y="516" type="line"/>
      <point x="985" y="516" type="line"/>
      <point x="1043" y="930" type="line"/>
      <point x="1241" y="930" type="line"/>
      <point x="1241" y="1026" type="line"/>
      <point x="1055" y="1026" type="line"/>
      <point x="1112" y="1447" type="line"/>
      <point x="1017" y="1447" type="line"/>
      <point x="960" y="1026" type="line"/>
      <point x="557" y="1026" type="line"/>
      <point x="615" y="1447" type="line"/>
      <point x="519" y="1447" type="line"/>
      <point x="462" y="1026" type="line"/>
      <point x="197" y="1026" type="line"/>
      <point x="197" y="930" type="line"/>
      <point x="451" y="930" type="line"/>
      <point x="394" y="516" type="line"/>
      <point x="197" y="516" type="line"/>
      <point x="197" y="420" type="line"/>
      <point x="381" y="420" type="line"/>
      <point x="325" y="0" type="line"/>
    </contour>
    <contour>
      <point x="546" y="930" type="line"/>
      <point x="948" y="930" type="line"/>
      <point x="892" y="516" type="line"/>
      <point x="488" y="516" type="line"/>
    </contour>
  </outline>
</glyph>
<glyph name="dollar" format="2">
  <advance width="1487"/>
  <unicode hex="0024"/>
  <outline>
    <component base="S" xOffset="64"/>
    <contour>
      <point x="726" y="1926" type="line"/>
      <point x="726" y="1672" type="line"/>
      <point x="820" y="1672" type="line"/>
      <point x="820" y="1926" type="line"/>
    </contour>
    <contour>
      <point x="726" y="-24" type="line"/>
      <point x="726" y="-276" type="line"/>
      <point x="820" y="-276" type="line"/>
      <point x="820" y="-24" type="line"/>
    </contour>
  </outline>
</glyph>
<glyph name="percent" format="2">
  <advance width="2196"/>
  <unicode hex="0025"/>
  <outline>
    <contour>
      <point x="601" y="892" type="curve" smooth="yes"/>
      <point x="831" y="892"/>
      <point x="1010" y="1054"/>
      <point x="1010" y="1286" type="curve" smooth="yes"/>
      <point x="1010" y="1518"/>
      <point x="831" y="1680"/>
      <point x="601" y="1680" type="curve" smooth="yes"/>
      <point x="370" y="1680"/>
      <point x="191" y="1518"/>
      <point x="191" y="1286" type="curve" smooth="yes"/>
      <point x="191" y="1054"/>
      <point x="370" y="892"/>
    </contour>
    <contour>
      <point x="601" y="990" type="curve" smooth="yes"/>
      <point x="432" y="990"/>
      <point x="307" y="1113"/>
      <point x="307" y="1286" type="curve" smooth="yes"/>
      <point x="307" y="1459"/>
      <point x="432" y="1582"/>
      <point x="601" y="1582" type="curve" smooth="yes"/>
      <point x="769" y="1582"/>
      <point x="895" y="1460"/>
      <point x="895" y="1286" type="curve" smooth="yes"/>
      <point x="895" y="1113"/>
      <point x="769" y="990"/>
    </contour>
    <contour>
      <point x="1595" y="-32" type="curve" smooth="yes"/>
      <point x="1826" y="-32"/>
      <point x="2005" y="130"/>
      <point x="2005" y="362" type="curve" smooth="yes"/>
      <point x="2005" y="594"/>
      <point x="1826" y="756"/>
      <point x="1595" y="756" type="curve" smooth="yes"/>
      <point x="1365" y="756"/>
      <point x="1185" y="594"/>
      <point x="1185" y="362" type="curve" smooth="yes"/>
      <point x="1185" y="130"/>
      <point x="1365" y="-32"/>
    </contour>
    <contour>
      <point x="1595" y="66" type="curve" smooth="yes"/>
      <point x="1427" y="66"/>
      <point x="1301" y="189"/>
      <point x="1301" y="362" type="curve" smooth="yes"/>
      <point x="1301" y="535"/>
      <point x="1427" y="658"/>
      <point x="1595" y="658" type="curve" smooth="yes"/>
      <point x="1764" y="658"/>
      <point x="1889" y="535"/>
      <point x="1889" y="362" type="curve" smooth="yes"/>
      <point x="1889" y="189"/>
      <point x="1764" y="66"/>
    </contour>
    <contour>
      <point x="670" y="0" type="line"/>
      <point x="1629" y="1650" type="line"/>
      <point x="1521" y="1650" type="line"/>
      <point x="561" y="0" type="line"/>
    </contour>
  </outline>
</glyph>
<glyph name="ampersand" format="2">
  <advance width="1795"/>
  <unicode hex="0026"/>
  <outline>
    <contour>
      <point x="683" y="-32" type="curve" smooth="yes"/>
      <point x="886" y="-32"/>
      <point x="1077" y="64"/>
      <point x="1239" y="239" type="curve"/>
      <point x="1457" y="0" type="line" name=".hr01"/>
      <point x="1637" y="0" type="line"/>
      <point x="1342" y="323" type="line"/>
      <point x="1408" y="399"/>
      <point x="1490" y="514"/>
      <point x="1542" y="600" type="curve"/>
      <point x="1449" y="674" type="line"/>
      <point x="1422" y="634"/>
      <point x="1307" y="476"/>
      <point x="1251" y="418" type="curve"/>
      <point x="801" y="906" type="line"/>
      <point x="1028" y="1017"/>
      <point x="1149" y="1130"/>
      <point x="1149" y="1313" type="curve" smooth="yes"/>
      <point x="1149" y="1518"/>
      <point x="996" y="1681"/>
      <point x="761" y="1681" type="curve" smooth="yes"/>
      <point x="539" y="1681"/>
      <point x="368" y="1535"/>
      <point x="368" y="1319" type="curve" smooth="yes"/>
      <point x="368" y="1195"/>
      <point x="426" y="1093"/>
      <point x="593" y="927" type="curve"/>
      <point x="332" y="805"/>
      <point x="198" y="635"/>
      <point x="198" y="413" type="curve" smooth="yes"/>
      <point x="198" y="130"/>
      <point x="416" y="-32" name=".hr02"/>
    </contour>
    <contour>
      <point x="697" y="103" type="curve" smooth="yes"/>
      <point x="512" y="103"/>
      <point x="352" y="219"/>
      <point x="352" y="428" type="curve" smooth="yes"/>
      <point x="352" y="602"/>
      <point x="464" y="748"/>
      <point x="672" y="845" type="curve"/>
      <point x="1147" y="338" type="line"/>
      <point x="1009" y="185"/>
      <point x="854" y="103"/>
    </contour>
    <contour>
      <point x="720" y="989" type="curve"/>
      <point x="558" y="1144"/>
      <point x="510" y="1221"/>
      <point x="510" y="1321" type="curve" smooth="yes"/>
      <point x="510" y="1466"/>
      <point x="618" y="1570"/>
      <point x="764" y="1570" type="curve" smooth="yes"/>
      <point x="908" y="1570"/>
      <point x="1021" y="1470"/>
      <point x="1021" y="1315" type="curve" smooth="yes"/>
      <point x="1021" y="1162"/>
      <point x="912" y="1084"/>
    </contour>
  </outline>
</glyph>
<glyph name="quotesingle" format="2">
  <advance width="642"/>
  <unicode hex="0027"/>
  <outline>
    <contour>
      <point x="368" y="1312" type="line"/>
      <point x="395" y="1720" type="line"/>
      <point x="247" y="1720" type="line"/>
      <point x="273" y="1312" type="line"/>
    </contour>
  </outline>
</glyph>
<glyph name="parenleft" format="2">
  <advance width="752"/>
  <unicode hex="0028"/>
  <outline>
    <contour>
      <point x="631" y="-481" type="line"/>
      <point x="483" y="-260"/>
      <point x="308" y="126"/>
      <point x="308" y="614" type="curve" smooth="yes"/>
      <point x="308" y="1102"/>
      <point x="480" y="1488"/>
      <point x="631" y="1711" type="curve"/>
      <point x="539" y="1750" type="line"/>
      <point x="376" y="1543"/>
      <point x="169" y="1132"/>
      <point x="169" y="614" type="curve" smooth="yes"/>
      <point x="169" y="96"/>
      <point x="376" y="-313"/>
      <point x="539" y="-520" type="curve"/>
    </contour>
  </outline>
</glyph>
<glyph name="asterisk" format="2">
  <advance width="917"/>
  <unicode hex="002A"/>
  <outline>
    <contour>
      <point x="456" y="1434" type="line"/>
      <point x="563" y="1291" type="line"/>
      <point x="615" y="1327" type="line"/>
      <point x="512" y="1475" type="line"/>
      <point x="683" y="1532" type="line"/>
      <point x="663" y="1595" type="line"/>
      <point x="491" y="1541" type="line"/>
      <point x="491" y="1720" type="line"/>
      <point x="423" y="1720" type="line"/>
      <point x="423" y="1541" type="line"/>
      <point x="251" y="1595" type="line"/>
      <point x="230" y="1532" type="line"/>
      <point x="402" y="1475" type="line"/>
      <point x="299" y="1327" type="line"/>
      <point x="351" y="1291" type="line"/>
    </contour>
  </outline>
</glyph>
<glyph name="plus" format="2">
  <advance width="1434"/>
  <unicode hex="002B"/>
  <outline>
    <contour>
      <point x="778" y="316" type="line"/>
      <point x="778" y="768" type="line"/>
      <point x="1230" y="768" type="line"/>
      <point x="1230" y="889" type="line"/>
      <point x="778" y="889" type="line"/>
      <point x="778" y="1341" type="line"/>
      <point x="657" y="1341" type="line"/>
      <point x="657" y="889" type="line"/>
      <point x="205" y="889" type="line"/>
      <point x="205" y="768" type="line"/>
      <point x="657" y="768" type="line"/>
      <point x="657" y="316" type="line"/>
    </contour>
  </outline>
</glyph>
<glyph name="comma" format="2">
  <advance width="725"/>
  <unicode hex="002C"/>
  <outline>
    <contour>
      <point x="314" y="-240" type="line"/>
      <point x="400" y="-170"/>
      <point x="468" y="-50"/>
      <point x="468" y="45" type="curve" smooth="yes"/>
      <point x="468" y="124"/>
      <point x="420" y="166"/>
      <point x="364" y="166" type="curve" smooth="yes"/>
      <point x="307" y="166"/>
      <point x="263" y="123"/>
      <point x="263" y="68" type="curve" smooth="yes"/>
      <point x="263" y="20"/>
      <point x="297" y="-19"/>
      <point x="345" y="-27" type="curve"/>
      <point x="341" y="-96"/>
      <point x="312" y="-168"/>
      <point x="278" y="-209" type="curve"/>
    </contour>
  </outline>
</glyph>
<glyph name="hyphen" format="2">
  <advance width="1078"/>
  <unicode hex="002D"/>
  <outline>
    <contour>
      <point x="861" y="520" type="line"/>
      <point x="861" y="640" type="line"/>
      <point x="217" y="640" type="line"/>
      <point x="217" y="520" type="line"/>
    </contour>
  </outline>
</glyph>
<glyph name="period" format="2">
  <advance width="750"/>
  <unicode hex="002E"/>
  <outline>
    <contour>
      <point x="375" y="-32" type="curve" smooth="yes"/>
      <point x="429" y="-32"/>
      <point x="474" y="13"/>
      <point x="474" y="67" type="curve" smooth="yes"/>
      <point x="474" y="121"/>
      <point x="429" y="166"/>
      <point x="375" y="166" type="curve" smooth="yes"/>
      <point x="321" y="166"/>
      <point x="276" y="121"/>
      <point x="276" y="67" type="curve" smooth="yes"/>
      <point x="276" y="13"/>
      <point x="321" y="-32"/>
    </contour>
  </outline>
</glyph>
<glyph name="slash" format="2">
  <advance width="1042"/>
  <unicode hex="002F"/>
  <outline>
    <contour>
      <point x="166" y="-240" type="line"/>
      <point x="990" y="1720" type="line"/>
      <point x="875" y="1720" type="line"/>
      <point x="51" y="-240" type="line"/>
    </contour>
  </outline>
</glyph>
<glyph name="zero" format="2">
  <advance width="1500"/>
  <unicode hex="0030"/>
  <outline>
    <contour>
      <point x="749" y="-32" type="curve" smooth="yes"/>
      <point x="1153" y="-32"/>
      <point x="1423" y="312"/>
      <point x="1423" y="824" type="curve" smooth="yes"/>
      <point x="1423" y="1336"/>
      <point x="1153" y="1680"/>
      <point x="749" y="1680" type="curve" smooth="yes"/>
      <point x="347" y="1680"/>
      <point x="77" y="1336"/>
      <point x="77" y="824" type="curve" smooth="yes"/>
      <point x="77" y="312"/>
      <point x="347" y="-32"/>
    </contour>
    <contour>
      <point x="749" y="100" type="curve" smooth="yes"/>
      <point x="437" y="100"/>
      <point x="231" y="386"/>
      <point x="231" y="824" type="curve" smooth="yes"/>
      <point x="231" y="1262"/>
      <point x="437" y="1548"/>
      <point x="749" y="1548" type="curve" smooth="yes"/>
      <point x="1062" y="1548"/>
      <point x="1268" y="1262"/>
      <point x="1268" y="824" type="curve" smooth="yes"/>
      <point x="1268" y="386"/>
      <point x="1062" y="100"/>
    </contour>
  </outline>
</glyph>
<glyph name="two" format="2">
  <advance width="1500"/>
  <unicode hex="0032"/>
  <outline>
    <contour>
      <point x="1317" y="0" type="line"/>
      <point x="1317" y="138" type="line"/>
      <point x="450" y="138" type="line"/>
      <point x="1109" y="654"/>
      <point x="1287" y="871"/>
      <point x="1287" y="1137" type="curve" smooth="yes"/>
      <point x="1287" y="1447"/>
      <point x="1043" y="1680"/>
      <point x="733" y="1680" type="curve" smooth="yes"/>
      <point x="440" y="1680"/>
      <point x="212" y="1464"/>
      <point x="182" y="1173" type="curve"/>
      <point x="313" y="1132" type="line"/>
      <point x="326" y="1364"/>
      <point x="506" y="1542"/>
      <point x="727" y="1542" type="curve" smooth="yes"/>
      <point x="949" y="1542"/>
      <point x="1129" y="1362"/>
      <point x="1129" y="1136" type="curve" smooth="yes"/>
      <point x="1129" y="898"/>
      <point x="922" y="673"/>
      <point x="150" y="68" type="curve"/>
      <point x="150" y="0" type="line"/>
    </contour>
  </outline>
</glyph>
<glyph name="three" format="2">
  <advance width="1500"/>
  <unicode hex="0033"/>
  <outline>
    <contour>
      <point x="730" y="-32" type="curve" smooth="yes"/>
      <point x="1045" y="-32"/>
      <point x="1238" y="166"/>
      <point x="1238" y="432" type="curve" smooth="yes"/>
      <point x="1238" y="644"/>
      <point x="1113" y="800"/>
      <point x="952" y="851" type="curve"/>
      <point x="1107" y="912"/>
      <point x="1211" y="1065"/>
      <point x="1211" y="1238" type="curve" smooth="yes"/>
      <point x="1211" y="1485"/>
      <point x="1011" y="1680"/>
      <point x="751" y="1680" type="curve" smooth="yes"/>
      <point x="516" y="1680"/>
      <point x="327" y="1517"/>
      <point x="300" y="1283" type="curve"/>
      <point x="417" y="1244" type="line"/>
      <point x="429" y="1418"/>
      <point x="573" y="1555"/>
      <point x="749" y="1555" type="curve" smooth="yes"/>
      <point x="925" y="1555"/>
      <point x="1072" y="1416"/>
      <point x="1072" y="1235" type="curve" smooth="yes"/>
      <point x="1072" y="1053"/>
      <point x="922" y="898"/>
      <point x="728" y="898" type="curve" smooth="yes"/>
      <point x="673" y="898" type="line"/>
      <point x="673" y="787" type="line"/>
      <point x="691" y="792"/>
      <point x="712" y="795"/>
      <point x="736" y="795" type="curve" smooth="yes"/>
      <point x="929" y="795"/>
      <point x="1087" y="633"/>
      <point x="1087" y="429" type="curve" smooth="yes"/>
      <point x="1087" y="235"/>
      <point x="947" y="104"/>
      <point x="729" y="104" type="curve" smooth="yes"/>
      <point x="513" y="104"/>
      <point x="355" y="233"/>
      <point x="347" y="425" type="curve"/>
      <point x="214" y="392" type="line"/>
      <point x="233" y="138"/>
      <point x="440" y="-32"/>
    </contour>
  </outline>
</glyph>
<glyph name="four" format="2">
  <advance width="1500"/>
  <unicode hex="0034"/>
  <outline>
    <contour>
      <point x="1104" y="0" type="line"/>
      <point x="1104" y="318" type="line"/>
      <point x="1296" y="318" type="line"/>
      <point x="1296" y="446" type="line"/>
      <point x="1104" y="446" type="line"/>
      <point x="1104" y="1650" type="line"/>
      <point x="959" y="1650" type="line"/>
      <point x="137" y="385" type="line"/>
      <point x="137" y="318" type="line"/>
      <point x="965" y="318" type="line"/>
      <point x="965" y="0" type="line"/>
    </contour>
    <contour>
      <point x="965" y="1447" type="line"/>
      <point x="965" y="446" type="line"/>
      <point x="327" y="446" type="line"/>
    </contour>
  </outline>
</glyph>
<glyph name="five" format="2">
  <advance width="1500"/>
  <unicode hex="0035"/>
  <outline>
    <contour>
      <point x="369" y="1650" type="line"/>
      <point x="235" y="783" type="line"/>
      <point x="359" y="911"/>
      <point x="508" y="979"/>
      <point x="676" y="979" type="curve" smooth="yes"/>
      <point x="961" y="979"/>
      <point x="1176" y="801"/>
      <point x="1176" y="515" type="curve" smooth="yes"/>
      <point x="1176" y="255"/>
      <point x="998" y="91"/>
      <point x="732" y="91" type="curve" smooth="yes"/>
      <point x="513" y="91"/>
      <point x="335" y="203"/>
      <point x="269" y="384" type="curve"/>
      <point x="152" y="326" type="line"/>
      <point x="235" y="103"/>
      <point x="463" y="-32"/>
      <point x="731" y="-32" type="curve" smooth="yes"/>
      <point x="1047" y="-32"/>
      <point x="1317" y="154"/>
      <point x="1317" y="520" type="curve" smooth="yes"/>
      <point x="1317" y="864"/>
      <point x="1078" y="1090"/>
      <point x="742" y="1090" type="curve" smooth="yes"/>
      <point x="601" y="1090"/>
      <point x="479" y="1046"/>
      <point x="380" y="956" type="curve"/>
      <point x="403" y="951" type="line"/>
      <point x="492" y="1522" type="line"/>
      <point x="1211" y="1522" type="line"/>
      <point x="1211" y="1650" type="line"/>
    </contour>
  </outline>
</glyph>
<glyph name="six" format="2">
  <advance width="1500"/>
  <unicode hex="0036"/>
  <outline>
    <contour>
      <point x="752" y="-32" type="curve" smooth="yes"/>
      <point x="1090" y="-32"/>
      <point x="1332" y="202"/>
      <point x="1332" y="531" type="curve" smooth="yes"/>
      <point x="1332" y="864"/>
      <point x="1088" y="1099"/>
      <point x="793" y="1099" type="curve" smooth="yes"/>
      <point x="711" y="1099"/>
      <point x="637" y="1079"/>
      <point x="566" y="1041" type="curve"/>
      <point x="1077" y="1650" type="line"/>
      <point x="898" y="1650" type="line"/>
      <point x="346" y="990" type="line" smooth="yes"/>
      <point x="237" y="860"/>
      <point x="168" y="687"/>
      <point x="168" y="525" type="curve" smooth="yes"/>
      <point x="168" y="236"/>
      <point x="390" y="-32"/>
    </contour>
    <contour>
      <point x="748" y="93" type="curve" smooth="yes"/>
      <point x="485" y="93"/>
      <point x="316" y="290"/>
      <point x="316" y="523" type="curve" smooth="yes"/>
      <point x="316" y="774"/>
      <point x="514" y="972"/>
      <point x="759" y="972" type="curve" smooth="yes"/>
      <point x="997" y="972"/>
      <point x="1189" y="784"/>
      <point x="1189" y="528" type="curve" smooth="yes"/>
      <point x="1189" y="276"/>
      <point x="1002" y="93"/>
    </contour>
  </outline>
</glyph>
<glyph name="seven" format="2">
  <advance width="1500"/>
  <unicode hex="0037"/>
  <outline>
    <contour>
      <point x="410" y="0" type="line"/>
      <point x="1282" y="1600" type="line"/>
      <point x="1282" y="1650" type="line"/>
      <point x="251" y="1650" type="line"/>
      <point x="251" y="1522" type="line"/>
      <point x="1068" y="1522" type="line"/>
      <point x="237" y="0" type="line"/>
    </contour>
  </outline>
</glyph>
<glyph name="eight" format="2">
  <advance width="1500"/>
  <unicode hex="0038"/>
  <outline>
    <contour>
      <point x="749" y="-32" type="curve" smooth="yes"/>
      <point x="1049" y="-32"/>
      <point x="1271" y="171"/>
      <point x="1271" y="439" type="curve" smooth="yes"/>
      <point x="1271" y="638"/>
      <point x="1149" y="806"/>
      <point x="960" y="877" type="curve"/>
      <point x="1111" y="945"/>
      <point x="1208" y="1091" name=".hr01"/>
      <point x="1208" y="1259" type="curve" smooth="yes"/>
      <point x="1208" y="1505"/>
      <point x="998" y="1680"/>
      <point x="749" y="1680" type="curve" smooth="yes"/>
      <point x="489" y="1680"/>
      <point x="291" y="1496"/>
      <point x="291" y="1259" type="curve" smooth="yes"/>
      <point x="291" y="1093"/>
      <point x="386" y="946"/>
      <point x="539" y="877" type="curve"/>
      <point x="350" y="807"/>
      <point x="228" y="639" name=".hr02"/>
      <point x="228" y="440" type="curve" smooth="yes"/>
      <point x="228" y="171"/>
      <point x="450" y="-32"/>
    </contour>
    <contour>
      <point x="749" y="97" type="curve" smooth="yes"/>
      <point x="536" y="97"/>
      <point x="385" y="249"/>
      <point x="385" y="451" type="curve" smooth="yes"/>
      <point x="385" y="658"/>
      <point x="543" y="806"/>
      <point x="749" y="806" type="curve" smooth="yes"/>
      <point x="959" y="806"/>
      <point x="1114" y="655"/>
      <point x="1114" y="451" type="curve" smooth="yes"/>
      <point x="1114" y="249"/>
      <point x="964" y="97"/>
    </contour>
    <contour>
      <point x="749" y="935" type="curve" smooth="yes"/>
      <point x="567" y="935"/>
      <point x="432" y="1069"/>
      <point x="432" y="1249" type="curve" smooth="yes"/>
      <point x="432" y="1428" name=".hr03"/>
      <point x="568" y="1565"/>
      <point x="749" y="1565" type="curve" smooth="yes"/>
      <point x="930" y="1565"/>
      <point x="1067" y="1428"/>
      <point x="1067" y="1249" type="curve" smooth="yes"/>
      <point x="1067" y="1069"/>
      <point x="931" y="935"/>
    </contour>
  </outline>
</glyph>
<glyph name="nine" format="2">
  <advance width="1500"/>
  <unicode hex="0039"/>
  <outline>
    <contour>
      <point x="600" y="0" type="line"/>
      <point x="1152" y="660" type="line" smooth="yes"/>
      <point x="1267" y="798"/>
      <point x="1329" y="959"/>
      <point x="1329" y="1112" type="curve" smooth="yes"/>
      <point x="1329" y="1437"/>
      <point x="1089" y="1680"/>
      <point x="744" y="1680" type="curve" smooth="yes"/>
      <point x="401" y="1680"/>
      <point x="165" y="1439"/>
      <point x="165" y="1120" type="curve" smooth="yes"/>
      <point x="165" y="792"/>
      <point x="415" y="550"/>
      <point x="719" y="550" type="curve" smooth="yes"/>
      <point x="801" y="550"/>
      <point x="880" y="576"/>
      <point x="944" y="621" type="curve"/>
      <point x="421" y="0" type="line"/>
    </contour>
    <contour>
      <point x="750" y="682" type="curve" smooth="yes"/>
      <point x="501" y="682"/>
      <point x="313" y="872"/>
      <point x="313" y="1122" type="curve" smooth="yes"/>
      <point x="313" y="1369"/>
      <point x="498" y="1551"/>
      <point x="750" y="1551" type="curve" smooth="yes"/>
      <point x="998" y="1551"/>
      <point x="1179" y="1371"/>
      <point x="1179" y="1122" type="curve" smooth="yes"/>
      <point x="1179" y="880"/>
      <point x="985" y="682"/>
    </contour>
  </outline>
</glyph>
<glyph name="less" format="2">
  <advance width="1509"/>
  <unicode hex="003C"/>
  <outline>
    <contour>
      <point x="1286" y="389" type="line"/>
      <point x="342" y="832" type="line"/>
      <point x="1286" y="1275" type="line"/>
      <point x="1286" y="1394" type="line"/>
      <point x="193" y="878" type="line"/>
      <point x="193" y="786" type="line"/>
      <point x="1286" y="270" type="line"/>
    </contour>
  </outline>
</glyph>
<glyph name="equal" format="2">
  <advance width="1674"/>
  <unicode hex="003D"/>
  <outline>
    <contour>
      <point x="1349" y="968" type="line"/>
      <point x="1349" y="1089" type="line"/>
      <point x="325" y="1089" type="line"/>
      <point x="325" y="968" type="line"/>
    </contour>
    <contour>
      <point x="1349" y="570" type="line"/>
      <point x="1349" y="691" type="line"/>
      <point x="325" y="691" type="line"/>
      <point x="325" y="570" type="line"/>
    </contour>
  </outline>
</glyph>
<glyph name="greater" format="2">
  <advance width="1509"/>
  <unicode hex="003E"/>
  <outline>
    <contour>
      <point x="1316" y="786" type="line"/>
      <point x="1316" y="878" type="line"/>
      <point x="223" y="1394" type="line"/>
      <point x="223" y="1275" type="line"/>
      <point x="1167" y="832" type="line"/>
      <point x="223" y="389" type="line"/>
      <point x="223" y="270" type="line"/>
    </contour>
  </outline>
</glyph>
<glyph name="question" format="2">
  <advance width="1338"/>
  <unicode hex="003F"/>
  <outline>
    <component base="period" xOffset="237"/>
    <contour>
      <point x="682" y="418" type="line"/>
      <point x="682" y="693" type="line"/>
      <point x="969" y="706"/>
      <point x="1161" y="917"/>
      <point x="1161" y="1188" type="curve" smooth="yes"/>
      <point x="1161" y="1469"/>
      <point x="951" y="1680"/>
      <point x="652" y="1680" type="curve" smooth="yes"/>
      <point x="389" y="1680"/>
      <point x="189" y="1518"/>
      <point x="158" y="1248" type="curve"/>
      <point x="279" y="1224" type="line"/>
      <point x="299" y="1427"/>
      <point x="441" y="1552"/>
      <point x="652" y="1552" type="curve" smooth="yes"/>
      <point x="873" y="1552"/>
      <point x="1027" y="1416"/>
      <point x="1027" y="1187" type="curve" smooth="yes"/>
      <point x="1027" y="949"/>
      <point x="860" y="812"/>
      <point x="629" y="812" type="curve" smooth="yes"/>
      <point x="599" y="812"/>
      <point x="579" y="815"/>
      <point x="553" y="820" type="curve"/>
      <point x="553" y="418" type="line"/>
    </contour>
  </outline>
</glyph>
<glyph name="at" format="2">
  <advance width="2122"/>
  <unicode hex="0040"/>
  <outline>
    <contour>
      <point x="1069" y="-379" type="curve" smooth="yes"/>
      <point x="1357" y="-379"/>
      <point x="1580" y="-250"/>
      <point x="1707" y="-73" type="curve"/>
      <point x="1605" y="-11" type="line"/>
      <point x="1501" y="-148"/>
      <point x="1318" y="-261"/>
      <point x="1071" y="-261" type="curve" smooth="yes"/>
      <point x="645" y="-261"/>
      <point x="345" y="70"/>
      <point x="345" y="476" type="curve" smooth="yes"/>
      <point x="345" y="896"/>
      <point x="664" y="1222"/>
      <point x="1086" y="1222" type="curve" smooth="yes"/>
      <point x="1444" y="1222"/>
      <point x="1809" y="987"/>
      <point x="1809" y="499" type="curve" smooth="yes"/>
      <point x="1809" y="299"/>
      <point x="1747" y="176"/>
      <point x="1652" y="176" type="curve" smooth="yes"/>
      <point x="1574" y="176"/>
      <point x="1524" y="241"/>
      <point x="1524" y="347" type="curve" smooth="yes"/>
      <point x="1524" y="931" type="line"/>
      <point x="1422" y="931" type="line"/>
      <point x="1422" y="723" type="line"/>
      <point x="1348" y="868"/>
      <point x="1202" y="961"/>
      <point x="1027" y="961" type="curve" smooth="yes"/>
      <point x="759" y="961"/>
      <point x="556" y="750"/>
      <point x="556" y="461" type="curve" smooth="yes"/>
      <point x="556" y="170"/>
      <point x="760" y="-37"/>
      <point x="1025" y="-37" type="curve" smooth="yes"/>
      <point x="1206" y="-37"/>
      <point x="1352" y="60"/>
      <point x="1426" y="210" type="curve"/>
      <point x="1463" y="140"/>
      <point x="1541" y="81"/>
      <point x="1639" y="81" type="curve" smooth="yes"/>
      <point x="1819" y="81"/>
      <point x="1909" y="289"/>
      <point x="1909" y="513" type="curve" smooth="yes"/>
      <point x="1909" y="1047"/>
      <point x="1500" y="1333"/>
      <point x="1077" y="1333" type="curve" smooth="yes"/>
      <point x="597" y="1333"/>
      <point x="220" y="963"/>
      <point x="220" y="472" type="curve" smooth="yes"/>
      <point x="220" y="-8"/>
      <point x="582" y="-379"/>
    </contour>
    <contour>
      <point x="1046" y="60" type="curve" smooth="yes"/>
      <point x="827" y="60"/>
      <point x="666" y="226"/>
      <point x="666" y="461" type="curve" smooth="yes"/>
      <point x="666" y="699"/>
      <point x="829" y="865"/>
      <point x="1047" y="865" type="curve" smooth="yes"/>
      <point x="1265" y="865"/>
      <point x="1426" y="699"/>
      <point x="1426" y="461" type="curve" smooth="yes"/>
      <point x="1426" y="227"/>
      <point x="1267" y="60"/>
    </contour>
  </outline>
</glyph>
<glyph name="A" format="2">
  <advance width="1656"/>
  <unicode hex="0041"/>
  <anchor x="828" y="0" name="bottom"/>
  <anchor x="1545" y="0" name="ogonek"/>
  <anchor x="828" y="1650" name="top"/>
  <outline>
    <contour>
      <point x="268" y="0" type="line"/>
      <point x="472" y="531" type="line"/>
      <point x="1184" y="531" type="line"/>
      <point x="1388" y="0" type="line"/>
      <point x="1545" y="0" type="line"/>
      <point x="896" y="1650" type="line"/>
      <point x="760" y="1650" type="line"/>
      <point x="111" y="0" type="line"/>
    </contour>
    <contour>
      <point x="828" y="1458" type="line"/>
      <point x="1134" y="660" type="line"/>
      <point x="522" y="660" type="line"/>
    </contour>
  </outline>
</glyph>
<glyph name="B" format="2">
  <advance width="1296"/>
  <unicode hex="0042"/>
  <anchor x="647" y="0" name="bottom"/>
  <anchor x="647" y="1650" name="top"/>
  <outline>
    <contour>
      <point x="683" y="0" type="line" smooth="yes"/>
      <point x="1006" y="0"/>
      <point x="1199" y="164"/>
      <point x="1199" y="441" type="curve" smooth="yes"/>
      <point x="1199" y="675"/>
      <point x="1060" y="826"/>
      <point x="815" y="860" type="curve"/>
      <point x="971" y="926"/>
      <point x="1053" y="1054"/>
      <point x="1053" y="1233" type="curve" smooth="yes"/>
      <point x="1053" y="1503"/>
      <point x="867" y="1651"/>
      <point x="545" y="1651" type="curve" smooth="yes"/>
      <point x="200" y="1651" type="line"/>
      <point x="200" y="0" type="line"/>
    </contour>
    <contour>
      <point x="346" y="1534" type="line"/>
      <point x="521" y="1534" type="line" smooth="yes"/>
      <point x="774" y="1534"/>
      <point x="914" y="1422"/>
      <point x="914" y="1219" type="curve" smooth="yes"/>
      <point x="914" y="1018"/>
      <point x="773" y="906"/>
      <point x="521" y="906" type="curve" smooth="yes"/>
      <point x="346" y="906" type="line"/>
    </contour>
    <contour>
      <point x="346" y="776" type="line"/>
      <point x="646" y="776" type="line" smooth="yes"/>
      <point x="902" y="776"/>
      <point x="1051" y="654"/>
      <point x="1051" y="445" type="curve" smooth="yes"/>
      <point x="1051" y="237"/>
      <point x="905" y="119"/>
      <point x="646" y="119" type="curve" smooth="yes"/>
      <point x="346" y="119" type="line"/>
    </contour>
  </outline>
</glyph>
<glyph name="C" format="2">
  <advance width="1611"/>
  <unicode hex="0043"/>
  <anchor x="925" y="0" name="bottom"/>
  <anchor x="925" y="1650" name="top"/>
  <outline>
    <contour>
      <point x="127" y="824" type="curve" smooth="yes"/>
      <point x="127" y="340"/>
      <point x="491" y="-32"/>
      <point x="990" y="-32" type="curve" smooth="yes"/>
      <point x="1197" y="-32"/>
      <point x="1383" y="31"/>
      <point x="1521" y="139" type="curve"/>
      <point x="1446" y="257" type="line"/>
      <point x="1329" y="163"/>
      <point x="1171" y="112"/>
      <point x="1000" y="112" type="curve" smooth="yes"/>
      <point x="574" y="112"/>
      <point x="286" y="424"/>
      <point x="286" y="824" type="curve" smooth="yes"/>
      <point x="286" y="1224"/>
      <point x="574" y="1536"/>
      <point x="1000" y="1536" type="curve" smooth="yes"/>
      <point x="1171" y="1536"/>
      <point x="1329" y="1485"/>
      <point x="1446" y="1391" type="curve"/>
      <point x="1521" y="1509" type="line"/>
      <point x="1383" y="1617"/>
      <point x="1197" y="1680"/>
      <point x="990" y="1680" type="curve" smooth="yes"/>
      <point x="491" y="1680"/>
      <point x="127" y="1308"/>
    </contour>
  </outline>
</glyph>
<glyph name="D" format="2">
  <advance width="1639"/>
  <unicode hex="0044"/>
  <anchor x="819" y="0" name="bottom"/>
  <anchor x="819" y="825" name="center"/>
  <anchor x="819" y="1650" name="top"/>
  <outline>
    <contour>
      <point x="639" y="0" type="line" smooth="yes"/>
      <point x="1109" y="0"/>
      <point x="1471" y="359"/>
      <point x="1471" y="825" type="curve" smooth="yes"/>
      <point x="1471" y="1291"/>
      <point x="1109" y="1650"/>
      <point x="639" y="1650" type="curve" smooth="yes"/>
      <point x="271" y="1650" type="line"/>
      <point x="271" y="0" type="line"/>
    </contour>
    <contour>
      <point x="417" y="1519" type="line"/>
      <point x="627" y="1519" type="line" smooth="yes"/>
      <point x="1017" y="1519"/>
      <point x="1318" y="1218"/>
      <point x="1318" y="825" type="curve" smooth="yes"/>
      <point x="1318" y="432"/>
      <point x="1017" y="131"/>
      <point x="627" y="131" type="curve" smooth="yes"/>
      <point x="417" y="131" type="line"/>
    </contour>
  </outline>
</glyph>
<glyph name="E" format="2">
  <advance width="1274"/>
  <unicode hex="0045"/>
  <anchor x="697" y="0" name="bottom"/>
  <anchor x="1100" y="0" name="ogonek"/>
  <anchor x="697" y="1650" name="top"/>
  <outline>
    <contour>
      <point x="1100" y="0" type="line"/>
      <point x="1100" y="129" type="line"/>
      <point x="417" y="129" type="line"/>
      <point x="417" y="762" type="line"/>
      <point x="1076" y="762" type="line"/>
      <point x="1076" y="891" type="line"/>
      <point x="417" y="891" type="line"/>
      <point x="417" y="1521" type="line"/>
      <point x="1100" y="1521" type="line"/>
      <point x="1100" y="1650" type="line"/>
      <point x="271" y="1650" type="line"/>
      <point x="271" y="0" type="line"/>
    </contour>
  </outline>
</glyph>
<glyph name="F" format="2">
  <advance width="1244"/>
  <unicode hex="0046"/>
  <anchor x="621" y="0" name="bottom"/>
  <anchor x="621" y="1650" name="top"/>
  <outline>
    <contour>
      <point x="271" y="1650" type="line"/>
      <point x="271" y="0" type="line"/>
      <point x="417" y="0" type="line"/>
      <point x="417" y="762" type="line"/>
      <point x="1057" y="762" type="line"/>
      <point x="1057" y="891" type="line"/>
      <point x="417" y="891" type="line"/>
      <point x="417" y="1521" type="line"/>
      <point x="1103" y="1521" type="line"/>
      <point x="1103" y="1650" type="line"/>
    </contour>
  </outline>
</glyph>
<glyph name="G" format="2">
  <advance width="1897"/>
  <unicode hex="0047"/>
  <anchor x="969" y="0" name="bottom"/>
  <anchor x="969" y="1650" name="top"/>
  <outline>
    <contour>
      <point x="989" y="-32" type="curve" smooth="yes"/>
      <point x="1345" y="-32"/>
      <point x="1739" y="192"/>
      <point x="1739" y="688" type="curve" smooth="yes"/>
      <point x="1739" y="816" type="line"/>
      <point x="976" y="816" type="line"/>
      <point x="976" y="697" type="line"/>
      <point x="1590" y="697" type="line"/>
      <point x="1590" y="639" type="line" smooth="yes"/>
      <point x="1590" y="310"/>
      <point x="1288" y="102"/>
      <point x="989" y="102" type="curve" smooth="yes"/>
      <point x="613" y="102"/>
      <point x="328" y="426"/>
      <point x="328" y="825" type="curve" smooth="yes"/>
      <point x="328" y="1197"/>
      <point x="575" y="1549"/>
      <point x="999" y="1549" type="curve" smooth="yes"/>
      <point x="1214" y="1549"/>
      <point x="1399" y="1458"/>
      <point x="1515" y="1320" type="curve"/>
      <point x="1612" y="1404" type="line"/>
      <point x="1470" y="1567"/>
      <point x="1265" y="1680"/>
      <point x="995" y="1680" type="curve" smooth="yes"/>
      <point x="476" y="1680"/>
      <point x="172" y="1263"/>
      <point x="172" y="824" type="curve" smooth="yes"/>
      <point x="172" y="350"/>
      <point x="524" y="-32"/>
    </contour>
  </outline>
</glyph>
<glyph name="H" format="2">
  <advance width="1743"/>
  <unicode hex="0048"/>
  <anchor x="872" y="0" name="bottom"/>
  <anchor x="872" y="825" name="center"/>
  <anchor x="872" y="1650" name="top"/>
  <outline>
    <contour>
      <point x="417" y="0" type="line"/>
      <point x="417" y="762" type="line"/>
      <point x="1327" y="762" type="line"/>
      <point x="1327" y="0" type="line"/>
      <point x="1473" y="0" type="line"/>
      <point x="1473" y="1650" type="line"/>
      <point x="1327" y="1650" type="line"/>
      <point x="1327" y="891" type="line"/>
      <point x="417" y="891" type="line"/>
      <point x="417" y="1650" type="line"/>
      <point x="271" y="1650" type="line"/>
      <point x="271" y="0" type="line"/>
    </contour>
  </outline>
</glyph>
<glyph name="I" format="2">
  <advance width="686"/>
  <unicode hex="0049"/>
  <anchor x="343" y="0" name="bottom"/>
  <anchor x="416" y="0" name="ogonek"/>
  <anchor x="343" y="1650" name="top"/>
  <outline>
    <contour>
      <point x="416" y="0" type="line"/>
      <point x="416" y="1650" type="line"/>
      <point x="270" y="1650" type="line"/>
      <point x="270" y="0" type="line"/>
    </contour>
  </outline>
</glyph>
<glyph name="J" format="2">
  <advance width="1277"/>
  <unicode hex="004A"/>
  <anchor x="537" y="-7" name="bottom"/>
  <anchor x="659" y="1650" name="top"/>
  <outline>
    <contour>
      <point x="531" y="-32" type="curve" smooth="yes"/>
      <point x="840" y="-32"/>
      <point x="1023" y="152"/>
      <point x="1023" y="464" type="curve" smooth="yes"/>
      <point x="1023" y="1650" type="line"/>
      <point x="877" y="1650" type="line"/>
      <point x="877" y="508" type="line" smooth="yes"/>
      <point x="877" y="254"/>
      <point x="745" y="107"/>
      <point x="517" y="107" type="curve" smooth="yes"/>
      <point x="401" y="107"/>
      <point x="301" y="149"/>
      <point x="216" y="239" type="curve"/>
      <point x="134" y="141" type="line"/>
      <point x="248" y="21"/>
      <point x="371" y="-32"/>
    </contour>
  </outline>
</glyph>
<glyph name="K" format="2">
  <advance width="1502"/>
  <unicode hex="004B"/>
  <anchor x="761" y="0" name="bottom"/>
  <anchor x="761" y="1650" name="top"/>
  <outline>
    <contour>
      <point x="417" y="0" type="line"/>
      <point x="417" y="751" type="line"/>
      <point x="1225" y="0" type="line"/>
      <point x="1430" y="0" type="line"/>
      <point x="543" y="832" type="line"/>
      <point x="1347" y="1650" type="line"/>
      <point x="1162" y="1650" type="line"/>
      <point x="417" y="892" type="line"/>
      <point x="417" y="1650" type="line"/>
      <point x="271" y="1650" type="line"/>
      <point x="271" y="0" type="line"/>
    </contour>
  </outline>
</glyph>
<glyph name="L" format="2">
  <advance width="1224"/>
  <unicode hex="004C"/>
  <anchor x="646" y="0" name="bottom"/>
  <anchor x="612" y="825" name="center"/>
  <anchor x="578" y="1650" name="top"/>
  <anchor x="1204" y="1650" name="topright"/>
  <outline>
    <contour>
      <point x="1111" y="0" type="line"/>
      <point x="1111" y="129" type="line"/>
      <point x="417" y="129" type="line"/>
      <point x="417" y="1650" type="line"/>
      <point x="271" y="1650" type="line"/>
      <point x="271" y="0" type="line"/>
    </contour>
  </outline>
</glyph>
<glyph name="M" format="2">
  <advance width="1954"/>
  <unicode hex="004D"/>
  <anchor x="977" y="102" name="bottom"/>
  <anchor x="977" y="1650" name="top"/>
  <outline>
    <contour>
      <point x="417" y="0" type="line"/>
      <point x="417" y="1320" type="line"/>
      <point x="924" y="102" type="line"/>
      <point x="1030" y="102" type="line"/>
      <point x="1537" y="1320" type="line"/>
      <point x="1537" y="0" type="line"/>
      <point x="1683" y="0" type="line"/>
      <point x="1683" y="1650" type="line"/>
      <point x="1519" y="1650" type="line"/>
      <point x="977" y="350" type="line"/>
      <point x="435" y="1650" type="line"/>
      <point x="271" y="1650" type="line"/>
      <point x="271" y="0" type="line"/>
    </contour>
  </outline>
</glyph>
<glyph name="N" format="2">
  <advance width="1724"/>
  <unicode hex="004E"/>
  <anchor x="862" y="0" name="bottom"/>
  <anchor x="862" y="1650" name="top"/>
  <outline>
    <contour>
      <point x="416" y="0" type="line"/>
      <point x="416" y="1399" type="line"/>
      <point x="1308" y="0" type="line"/>
      <point x="1454" y="0" type="line"/>
      <point x="1454" y="1650" type="line"/>
      <point x="1308" y="1650" type="line"/>
      <point x="1308" y="249" type="line"/>
      <point x="416" y="1650" type="line"/>
      <point x="270" y="1650" type="line"/>
      <point x="270" y="0" type="line"/>
    </contour>
  </outline>
</glyph>
<glyph name="O" format="2">
  <advance width="2003"/>
  <unicode hex="004F"/>
  <anchor x="1001" y="0" name="bottom"/>
  <anchor x="1001" y="824" name="center"/>
  <anchor x="1026" y="0" name="ogonek"/>
  <anchor x="1001" y="1650" name="top"/>
  <anchor x="19" y="1650" name="topleft"/>
  <anchor x="1983" y="1650" name="topright"/>
  <outline>
    <contour>
      <point x="1001" y="-32" type="curve" smooth="yes"/>
      <point x="1463" y="-32"/>
      <point x="1833" y="348"/>
      <point x="1833" y="824" type="curve" smooth="yes"/>
      <point x="1833" y="1300"/>
      <point x="1463" y="1680"/>
      <point x="1001" y="1680" type="curve" smooth="yes"/>
      <point x="539" y="1680"/>
      <point x="169" y="1300"/>
      <point x="169" y="824" type="curve" smooth="yes"/>
      <point x="169" y="348"/>
      <point x="539" y="-32"/>
    </contour>
    <contour>
      <point x="1001" y="109" type="curve" smooth="yes"/>
      <point x="622" y="109"/>
      <point x="327" y="423"/>
      <point x="327" y="824" type="curve" smooth="yes"/>
      <point x="327" y="1225"/>
      <point x="622" y="1539"/>
      <point x="1001" y="1539" type="curve" smooth="yes"/>
      <point x="1380" y="1539"/>
      <point x="1676" y="1225"/>
      <point x="1676" y="824" type="curve" smooth="yes"/>
      <point x="1676" y="423"/>
      <point x="1380" y="109"/>
    </contour>
  </outline>
</glyph>
<glyph name="P" format="2">
  <advance width="1367"/>
  <unicode hex="0050"/>
  <outline>
    <contour>
      <point x="417" y="0" type="line"/>
      <point x="417" y="700" type="line"/>
      <point x="694" y="700" type="line" smooth="yes"/>
      <point x="1017" y="700"/>
      <point x="1218" y="885"/>
      <point x="1218" y="1175" type="curve" smooth="yes"/>
      <point x="1218" y="1465"/>
      <point x="1017" y="1650"/>
      <point x="694" y="1650" type="curve" smooth="yes"/>
      <point x="271" y="1650" type="line"/>
      <point x="271" y="0" type="line"/>
    </contour>
    <contour>
      <point x="417" y="1531" type="line"/>
      <point x="661" y="1531" type="line" smooth="yes"/>
      <point x="910" y="1531"/>
      <point x="1070" y="1395"/>
      <point x="1070" y="1175" type="curve" smooth="yes"/>
      <point x="1070" y="955"/>
      <point x="910" y="819"/>
      <point x="661" y="819" type="curve" smooth="yes"/>
      <point x="417" y="819" type="line"/>
    </contour>
  </outline>
</glyph>
<glyph name="Q" format="2">
  <advance width="1983"/>
  <unicode hex="0051"/>
  <outline>
    <component base="O" xOffset="-31" yOffset="-1"/>
    <contour>
      <point x="1026" y="489" type="line"/>
      <point x="1223" y="265"/>
      <point x="1509" y="56"/>
      <point x="1785" y="-54" type="curve"/>
      <point x="1847" y="78" type="line"/>
      <point x="1574" y="172"/>
      <point x="1308" y="347"/>
      <point x="1104" y="551" type="curve"/>
    </contour>
  </outline>
</glyph>
<glyph name="R" format="2">
  <advance width="1394"/>
  <unicode hex="0052"/>
  <anchor x="696" y="0" name="bottom"/>
  <anchor x="696" y="1650" name="top"/>
  <outline>
    <contour>
      <point x="417" y="1531" type="line"/>
      <point x="660" y="1531" type="line" smooth="yes"/>
      <point x="919" y="1531"/>
      <point x="1070" y="1393"/>
      <point x="1070" y="1180" type="curve" smooth="yes"/>
      <point x="1070" y="966"/>
      <point x="919" y="828"/>
      <point x="660" y="828" type="curve" smooth="yes"/>
      <point x="417" y="828" type="line"/>
    </contour>
    <contour>
      <point x="417" y="0" type="line"/>
      <point x="417" y="703" type="line"/>
      <point x="604" y="703" type="line"/>
      <point x="1136" y="0" type="line"/>
      <point x="1321" y="0" type="line"/>
      <point x="770" y="715" type="line"/>
      <point x="1035" y="738"/>
      <point x="1219" y="906"/>
      <point x="1219" y="1180" type="curve" smooth="yes"/>
      <point x="1219" y="1465"/>
      <point x="1020" y="1650"/>
      <point x="694" y="1650" type="curve" smooth="yes"/>
      <point x="271" y="1650" type="line"/>
      <point x="271" y="0" type="line"/>
    </contour>
  </outline>
</glyph>
<glyph name="S" format="2">
  <advance width="1367"/>
  <unicode hex="0053"/>
  <anchor x="696" y="0" name="bottom"/>
  <anchor x="701" y="1663" name="top"/>
  <anchor x="728" y="0" name="cedilla"/>
  <outline>
    <contour>
      <point x="694" y="-32" type="curve" smooth="yes"/>
      <point x="973" y="-32"/>
      <point x="1207" y="135"/>
      <point x="1207" y="432" type="curve" smooth="yes"/>
      <point x="1207" y="673"/>
      <point x="1052" y="804"/>
      <point x="711" y="925" type="curve" smooth="yes"/>
      <point x="473" y="1010"/>
      <point x="368" y="1113"/>
      <point x="368" y="1254" type="curve" smooth="yes"/>
      <point x="368" y="1407"/>
      <point x="483" y="1547"/>
      <point x="687" y="1547" type="curve" smooth="yes"/>
      <point x="841" y="1547"/>
      <point x="958" y="1467"/>
      <point x="1016" y="1385" type="curve"/>
      <point x="1111" y="1462" type="line"/>
      <point x="1047" y="1568"/>
      <point x="894" y="1680"/>
      <point x="690" y="1680" type="curve" smooth="yes"/>
      <point x="418" y="1680"/>
      <point x="228" y="1494"/>
      <point x="228" y="1253" type="curve" smooth="yes"/>
      <point x="228" y="1057"/>
      <point x="361" y="911"/>
      <point x="638" y="812" type="curve" smooth="yes"/>
      <point x="945" y="701"/>
      <point x="1054" y="602"/>
      <point x="1054" y="427" type="curve" smooth="yes"/>
      <point x="1054" y="216"/>
      <point x="878" y="102"/>
      <point x="687" y="102" type="curve" smooth="yes"/>
      <point x="499" y="102"/>
      <point x="325" y="211"/>
      <point x="235" y="361" type="curve"/>
      <point x="131" y="291" type="line"/>
      <point x="216" y="112"/>
      <point x="438" y="-32"/>
    </contour>
  </outline>
</glyph>
<glyph name="T" format="2">
  <advance width="1387"/>
  <unicode hex="0054"/>
  <anchor x="693" y="0" name="bottom"/>
  <anchor x="693" y="1650" name="top"/>
  <outline>
    <contour>
      <point x="766" y="0" type="line"/>
      <point x="766" y="1517" type="line"/>
      <point x="1273" y="1517" type="line"/>
      <point x="1273" y="1650" type="line"/>
      <point x="113" y="1650" type="line"/>
      <point x="113" y="1517" type="line"/>
      <point x="620" y="1517" type="line"/>
      <point x="620" y="0" type="line"/>
    </contour>
  </outline>
</glyph>
<glyph name="U" format="2">
  <advance width="1630"/>
  <unicode hex="0055"/>
  <anchor x="815" y="0" name="bottom"/>
  <anchor x="875" y="0" name="ogonek"/>
  <anchor x="815" y="1650" name="top"/>
  <outline>
    <contour>
      <point x="815" y="-32" type="curve" smooth="yes"/>
      <point x="1189" y="-32"/>
      <point x="1384" y="183"/>
      <point x="1384" y="591" type="curve" smooth="yes"/>
      <point x="1384" y="1650" type="line"/>
      <point x="1238" y="1650" type="line"/>
      <point x="1238" y="622" type="line" smooth="yes"/>
      <point x="1238" y="280"/>
      <point x="1098" y="112"/>
      <point x="815" y="112" type="curve" smooth="yes"/>
      <point x="533" y="112"/>
      <point x="392" y="280"/>
      <point x="392" y="622" type="curve" smooth="yes"/>
      <point x="392" y="1650" type="line"/>
      <point x="246" y="1650" type="line"/>
      <point x="246" y="591" type="line" smooth="yes"/>
      <point x="246" y="183"/>
      <point x="442" y="-32"/>
    </contour>
  </outline>
</glyph>
<glyph name="V" format="2">
  <advance width="1718"/>
  <unicode hex="0056"/>
  <anchor x="859" y="0" name="bottom"/>
  <anchor x="859" y="1650" name="top"/>
  <outline>
    <contour>
      <point x="917" y="0" type="line"/>
      <point x="1609" y="1650" type="line"/>
      <point x="1443" y="1650" type="line"/>
      <point x="859" y="219" type="line"/>
      <point x="275" y="1650" type="line"/>
      <point x="109" y="1650" type="line"/>
      <point x="801" y="0" type="line"/>
    </contour>
  </outline>
</glyph>
<glyph name="W" format="2">
  <advance width="2494"/>
  <unicode hex="0057"/>
  <anchor x="1247" y="0" name="bottom"/>
  <anchor x="1247" y="1650" name="top"/>
  <outline>
    <contour>
      <point x="779" y="0" type="line"/>
      <point x="1247" y="1370" type="line"/>
      <point x="1715" y="0" type="line"/>
      <point x="1879" y="0" type="line"/>
      <point x="2371" y="1650" type="line"/>
      <point x="2208" y="1650" type="line"/>
      <point x="1792" y="194" type="line"/>
      <point x="1304" y="1650" type="line"/>
      <point x="1190" y="1650" type="line"/>
      <point x="702" y="194" type="line"/>
      <point x="286" y="1650" type="line"/>
      <point x="123" y="1650" type="line"/>
      <point x="615" y="0" type="line"/>
    </contour>
  </outline>
</glyph>
<glyph name="X" format="2">
  <advance width="1651"/>
  <unicode hex="0058"/>
  <outline>
    <contour>
      <point x="287" y="0" type="line"/>
      <point x="826" y="764" type="line"/>
      <point x="1365" y="0" type="line"/>
      <point x="1548" y="0" type="line"/>
      <point x="917" y="891" type="line"/>
      <point x="1449" y="1650" type="line"/>
      <point x="1273" y="1650" type="line"/>
      <point x="826" y="1014" type="line"/>
      <point x="379" y="1650" type="line"/>
      <point x="203" y="1650" type="line"/>
      <point x="735" y="891" type="line"/>
      <point x="104" y="0" type="line"/>
    </contour>
  </outline>
</glyph>
<glyph name="Y" format="2">
  <advance width="1478"/>
  <unicode hex="0059"/>
  <anchor x="739" y="0" name="bottom"/>
  <anchor x="739" y="1650" name="top"/>
  <outline>
    <contour>
      <point x="812" y="0" type="line"/>
      <point x="812" y="714" type="line"/>
      <point x="1378" y="1650" type="line"/>
      <point x="1202" y="1650" type="line"/>
      <point x="739" y="871" type="line"/>
      <point x="276" y="1650" type="line"/>
      <point x="100" y="1650" type="line"/>
      <point x="666" y="714" type="line"/>
      <point x="666" y="0" type="line"/>
    </contour>
  </outline>
</glyph>
<glyph name="Z" format="2">
  <advance width="1587"/>
  <unicode hex="005A"/>
  <anchor x="793" y="0" name="bottom"/>
  <anchor x="793" y="825" name="center"/>
  <anchor x="793" y="1650" name="top"/>
  <outline>
    <contour>
      <point x="1409" y="0" type="line"/>
      <point x="1409" y="133" type="line"/>
      <point x="379" y="133" type="line"/>
      <point x="1464" y="1650" type="line"/>
      <point x="227" y="1650" type="line"/>
      <point x="227" y="1517" type="line"/>
      <point x="1199" y="1517" type="line"/>
      <point x="114" y="0" type="line"/>
    </contour>
  </outline>
</glyph>
<glyph name="bracketleft" format="2">
  <advance width="785"/>
  <unicode hex="005B"/>
  <outline>
    <contour>
      <point x="674" y="-520" type="line"/>
      <point x="674" y="-414" type="line"/>
      <point x="386" y="-414" type="line"/>
      <point x="386" y="1614" type="line"/>
      <point x="674" y="1614" type="line"/>
      <point x="674" y="1720" type="line"/>
      <point x="260" y="1720" type="line"/>
      <point x="260" y="-520" type="line"/>
    </contour>
  </outline>
</glyph>
<glyph name="backslash" format="2">
  <advance width="1042"/>
  <unicode hex="005C"/>
  <outline>
    <contour>
      <point x="990" y="0" type="line"/>
      <point x="166" y="1720" type="line"/>
      <point x="51" y="1720" type="line"/>
      <point x="875" y="0" type="line"/>
    </contour>
  </outline>
</glyph>
<glyph name="asciicircum" format="2">
  <advance width="1268"/>
  <unicode hex="005E"/>
  <outline>
    <contour>
      <point x="308" y="1210" type="line"/>
      <point x="634" y="1585" type="line"/>
      <point x="959" y="1210" type="line"/>
      <point x="1083" y="1210" type="line"/>
      <point x="669" y="1680" type="line"/>
      <point x="598" y="1680" type="line"/>
      <point x="184" y="1210" type="line"/>
    </contour>
  </outline>
</glyph>
<glyph name="underscore" format="2">
  <advance width="1460"/>
  <unicode hex="005F"/>
  <outline>
    <contour>
      <point x="1243" y="-200" type="line"/>
      <point x="1243" y="-124" type="line"/>
      <point x="217" y="-124" type="line"/>
      <point x="217" y="-200" type="line"/>
    </contour>
  </outline>
</glyph>
<glyph name="a" format="2">
  <advance width="1197"/>
  <unicode hex="0061"/>
  <anchor x="594" y="0" name="bottom"/>
  <anchor x="1072" y="10" name="ogonek"/>
  <anchor x="594" y="1025" name="top"/>
  <outline>
    <contour>
      <point x="528" y="-32" type="curve" smooth="yes"/>
      <point x="664" y="-32"/>
      <point x="786" y="17"/>
      <point x="863" y="100" type="curve"/>
      <point x="863" y="0" type="line" name=".hr01"/>
      <point x="1003" y="0" type="line"/>
      <point x="1003" y="626" type="line" smooth="yes"/>
      <point x="1003" y="890"/>
      <point x="831" y="1056"/>
      <point x="559" y="1056" type="curve" smooth="yes"/>
      <point x="406" y="1056"/>
      <point x="283" y="1004"/>
      <point x="190" y="910" type="curve"/>
      <point x="264" y="831" type="line"/>
      <point x="347" y="905"/>
      <point x="443" y="941"/>
      <point x="547" y="941" type="curve" smooth="yes"/>
      <point x="743" y="941"/>
      <point x="863" y="816"/>
      <point x="863" y="615" type="curve" smooth="yes"/>
      <point x="863" y="491" type="line"/>
      <point x="788" y="575"/>
      <point x="662" y="625"/>
      <point x="525" y="625" type="curve" smooth="yes"/>
      <point x="292" y="625"/>
      <point x="126" y="485"/>
      <point x="126" y="294" type="curve" smooth="yes"/>
      <point x="126" y="104"/>
      <point x="293" y="-32" name=".hr02"/>
    </contour>
    <contour>
      <point x="567" y="65" type="curve" smooth="yes"/>
      <point x="392" y="65"/>
      <point x="263" y="165"/>
      <point x="263" y="302" type="curve" smooth="yes"/>
      <point x="263" y="437"/>
      <point x="390" y="534"/>
      <point x="566" y="534" type="curve" smooth="yes"/>
      <point x="742" y="534"/>
      <point x="871" y="435"/>
      <point x="871" y="300" type="curve" smooth="yes"/>
      <point x="871" y="164"/>
      <point x="741" y="65"/>
    </contour>
  </outline>
</glyph>
<glyph name="b" format="2">
  <advance width="1437"/>
  <unicode hex="0062"/>
  <anchor x="717" y="0" name="bottom"/>
  <anchor x="717" y="1720" name="top"/>
  <outline>
    <contour>
      <point x="351" y="512" type="curve" smooth="yes"/>
      <point x="351" y="759"/>
      <point x="517" y="934"/>
      <point x="750" y="934" type="curve" smooth="yes"/>
      <point x="981" y="934"/>
      <point x="1149" y="758"/>
      <point x="1149" y="512" type="curve" smooth="yes"/>
      <point x="1149" y="266"/>
      <point x="981" y="90"/>
      <point x="750" y="90" type="curve" smooth="yes"/>
      <point x="517" y="90"/>
      <point x="351" y="266"/>
    </contour>
    <contour>
      <point x="217" y="1720" type="line"/>
      <point x="217" y="0" type="line"/>
      <point x="357" y="0" type="line" name=".hr01"/>
      <point x="357" y="219" type="line"/>
      <point x="444" y="61"/>
      <point x="600" y="-32"/>
      <point x="783" y="-32" type="curve" smooth="yes" name=".hr02"/>
      <point x="1076" y="-32"/>
      <point x="1293" y="199"/>
      <point x="1293" y="512" type="curve" smooth="yes"/>
      <point x="1293" y="825"/>
      <point x="1076" y="1056"/>
      <point x="783" y="1056" type="curve" smooth="yes"/>
      <point x="600" y="1056"/>
      <point x="444" y="963"/>
      <point x="357" y="805" type="curve"/>
      <point x="357" y="1720" type="line"/>
    </contour>
  </outline>
</glyph>
<glyph name="c" format="2">
  <advance width="1146"/>
  <unicode hex="0063"/>
  <anchor x="637" y="0" name="bottom"/>
  <anchor x="637" y="1024" name="top"/>
  <anchor x="669" y="0" name="cedilla"/>
  <outline>
    <contour>
      <point x="692" y="-32" type="curve" smooth="yes"/>
      <point x="827" y="-32"/>
      <point x="952" y="12"/>
      <point x="1042" y="81" type="curve"/>
      <point x="974" y="171" type="line"/>
      <point x="902" y="116"/>
      <point x="810" y="87"/>
      <point x="709" y="87" type="curve" smooth="yes"/>
      <point x="454" y="87"/>
      <point x="281" y="274"/>
      <point x="281" y="512" type="curve" smooth="yes"/>
      <point x="281" y="752"/>
      <point x="455" y="937"/>
      <point x="708" y="937" type="curve" smooth="yes"/>
      <point x="810" y="937"/>
      <point x="902" y="908"/>
      <point x="975" y="853" type="curve"/>
      <point x="1042" y="943" type="line"/>
      <point x="954" y="1012"/>
      <point x="827" y="1056"/>
      <point x="692" y="1056" type="curve" smooth="yes"/>
      <point x="378" y="1056"/>
      <point x="138" y="822"/>
      <point x="138" y="512" type="curve" smooth="yes"/>
      <point x="138" y="203"/>
      <point x="378" y="-32"/>
    </contour>
  </outline>
</glyph>
<glyph name="d" format="2">
  <advance width="1437"/>
  <unicode hex="0064"/>
  <anchor x="653" y="0" name="bottom"/>
  <anchor x="651" y="1331" name="top"/>
  <outline>
    <contour>
      <point x="288" y="512" type="curve" smooth="yes"/>
      <point x="288" y="758"/>
      <point x="455" y="934"/>
      <point x="687" y="934" type="curve" smooth="yes"/>
      <point x="919" y="934"/>
      <point x="1085" y="759"/>
      <point x="1085" y="512" type="curve" smooth="yes"/>
      <point x="1085" y="266"/>
      <point x="919" y="90"/>
      <point x="687" y="90" type="curve" smooth="yes"/>
      <point x="455" y="90"/>
      <point x="288" y="266"/>
    </contour>
    <contour>
      <point x="144" y="512" type="curve" smooth="yes"/>
      <point x="144" y="199"/>
      <point x="361" y="-32"/>
      <point x="654" y="-32" type="curve" smooth="yes"/>
      <point x="836" y="-32"/>
      <point x="992" y="61"/>
      <point x="1079" y="219" type="curve"/>
      <point x="1079" y="0" type="line"/>
      <point x="1219" y="0" type="line" name=".hr01"/>
      <point x="1219" y="1720" type="line"/>
      <point x="1079" y="1720" type="line"/>
      <point x="1079" y="805" type="line"/>
      <point x="992" y="963"/>
      <point x="836" y="1056"/>
      <point x="654" y="1056" type="curve" smooth="yes"/>
      <point x="361" y="1056"/>
      <point x="144" y="825"/>
    </contour>
  </outline>
</glyph>
<glyph name="e" format="2">
  <advance width="1336"/>
  <unicode hex="0065"/>
  <anchor x="702" y="0" name="bottom"/>
  <anchor x="718" y="0" name="ogonek"/>
  <anchor x="676" y="1024" name="top"/>
  <outline>
    <contour>
      <point x="696" y="-32" type="curve" smooth="yes"/>
      <point x="899" y="-32"/>
      <point x="1074" y="61"/>
      <point x="1172" y="219" type="curve"/>
      <point x="1069" y="275" type="line"/>
      <point x="985" y="153"/>
      <point x="857" y="85"/>
      <point x="702" y="85" type="curve" smooth="yes"/>
      <point x="454" y="85"/>
      <point x="278" y="257"/>
      <point x="278" y="499" type="curve"/>
      <point x="1207" y="499" type="line"/>
      <point x="1208" y="510"/>
      <point x="1208" y="520"/>
      <point x="1208" y="533" type="curve"/>
      <point x="1207" y="812"/>
      <point x="979" y="1056"/>
      <point x="678" y="1056" type="curve" smooth="yes"/>
      <point x="381" y="1056"/>
      <point x="137" y="819"/>
      <point x="137" y="507" type="curve" smooth="yes"/>
      <point x="137" y="203"/>
      <point x="370" y="-32"/>
    </contour>
    <contour>
      <point x="283" y="583" type="line"/>
      <point x="301" y="793"/>
      <point x="468" y="950"/>
      <point x="676" y="950" type="curve" smooth="yes"/>
      <point x="882" y="950"/>
      <point x="1049" y="795"/>
      <point x="1070" y="583" type="curve"/>
    </contour>
  </outline>
</glyph>
<glyph name="f" format="2">
  <advance width="721"/>
  <unicode hex="0066"/>
  <anchor x="306" y="0" name="bottom"/>
  <anchor x="517" y="1720" name="top"/>
  <outline>
    <contour>
      <point x="377" y="0" type="line"/>
      <point x="377" y="917" type="line"/>
      <point x="640" y="917" type="line"/>
      <point x="640" y="1024" type="line"/>
      <point x="377" y="1024" type="line"/>
      <point x="377" y="1404" type="line" smooth="yes"/>
      <point x="377" y="1551"/>
      <point x="437" y="1625"/>
      <point x="532" y="1625" type="curve" smooth="yes"/>
      <point x="575" y="1625"/>
      <point x="622" y="1610"/>
      <point x="655" y="1566" type="curve"/>
      <point x="730" y="1649" type="line"/>
      <point x="672" y="1721"/>
      <point x="591" y="1750"/>
      <point x="510" y="1750" type="curve" smooth="yes"/>
      <point x="346" y="1750"/>
      <point x="237" y="1631"/>
      <point x="237" y="1395" type="curve" smooth="yes"/>
      <point x="237" y="1024" type="line"/>
      <point x="135" y="1024" type="line"/>
      <point x="135" y="917" type="line"/>
      <point x="237" y="917" type="line"/>
      <point x="237" y="0" type="line"/>
    </contour>
  </outline>
</glyph>
<glyph name="g" format="2">
  <advance width="1437"/>
  <unicode hex="0067"/>
  <anchor x="688" y="-520" name="bottom"/>
  <anchor x="688" y="1024" name="top"/>
  <outline>
    <contour>
      <point x="145" y="512" type="curve" smooth="yes"/>
      <point x="145" y="200"/>
      <point x="362" y="-32"/>
      <point x="655" y="-32" type="curve" smooth="yes"/>
      <point x="837" y="-32"/>
      <point x="993" y="61"/>
      <point x="1080" y="220" type="curve"/>
      <point x="1080" y="-35" type="line" smooth="yes"/>
      <point x="1080" y="-285"/>
      <point x="903" y="-430"/>
      <point x="667" y="-430" type="curve" smooth="yes"/>
      <point x="480" y="-430"/>
      <point x="323" y="-340"/>
      <point x="259" y="-198" type="curve"/>
      <point x="141" y="-252" type="line"/>
      <point x="228" y="-446"/>
      <point x="409" y="-550"/>
      <point x="666" y="-550" type="curve" smooth="yes"/>
      <point x="1008" y="-550"/>
      <point x="1220" y="-368"/>
      <point x="1220" y="-28" type="curve" smooth="yes"/>
      <point x="1220" y="1024" type="line"/>
      <point x="1080" y="1024" type="line"/>
      <point x="1080" y="804" type="line"/>
      <point x="993" y="963"/>
      <point x="837" y="1056" name=".hr01"/>
      <point x="655" y="1056" type="curve" smooth="yes"/>
      <point x="362" y="1056"/>
      <point x="145" y="824"/>
    </contour>
    <contour>
      <point x="289" y="512" type="curve" smooth="yes"/>
      <point x="289" y="758"/>
      <point x="456" y="934"/>
      <point x="688" y="934" type="curve" smooth="yes"/>
      <point x="921" y="934"/>
      <point x="1087" y="759"/>
      <point x="1087" y="512" type="curve" smooth="yes"/>
      <point x="1087" y="266"/>
      <point x="921" y="90"/>
      <point x="688" y="90" type="curve" smooth="yes"/>
      <point x="456" y="90"/>
      <point x="289" y="266"/>
    </contour>
  </outline>
</glyph>
<glyph name="h" format="2">
  <advance width="1282"/>
  <unicode hex="0068"/>
  <anchor x="641" y="0" name="bottom"/>
  <anchor x="641" y="860" name="center"/>
  <anchor x="641" y="1720" name="top"/>
  <outline>
    <contour>
      <point x="357" y="0" type="line"/>
      <point x="357" y="670" type="line" smooth="yes"/>
      <point x="357" y="813"/>
      <point x="468" y="942"/>
      <point x="658" y="942" type="curve" smooth="yes"/>
      <point x="839" y="942"/>
      <point x="944" y="825"/>
      <point x="944" y="612" type="curve" smooth="yes"/>
      <point x="944" y="0" type="line"/>
      <point x="1084" y="0" type="line"/>
      <point x="1084" y="639" type="line" smooth="yes"/>
      <point x="1084" y="904"/>
      <point x="939" y="1056"/>
      <point x="702" y="1056" type="curve" smooth="yes"/>
      <point x="531" y="1056"/>
      <point x="411" y="979"/>
      <point x="357" y="883" type="curve"/>
      <point x="357" y="1720" type="line"/>
      <point x="217" y="1720" type="line"/>
      <point x="217" y="0" type="line"/>
    </contour>
  </outline>
</glyph>
<glyph name="i" format="2">
  <advance width="571"/>
  <unicode hex="0069"/>
  <anchor x="286" y="0" name="bottom"/>
  <anchor x="355" y="0" name="ogonek"/>
  <outline>
    <component base="idotless" xOffset="-1"/>
    <contour>
      <point x="286" y="1229" type="curve" smooth="yes"/>
      <point x="338" y="1229"/>
      <point x="378" y="1270"/>
      <point x="378" y="1322" type="curve" smooth="yes"/>
      <point x="378" y="1374"/>
      <point x="338" y="1414"/>
      <point x="286" y="1414" type="curve" smooth="yes"/>
      <point x="235" y="1414"/>
      <point x="193" y="1374"/>
      <point x="193" y="1322" type="curve" smooth="yes"/>
      <point x="193" y="1270"/>
      <point x="235" y="1229"/>
    </contour>
  </outline>
</glyph>
<glyph name="j" format="2">
  <advance width="575"/>
  <unicode hex="006A"/>
  <outline>
    <contour>
      <point x="88" y="-550" type="curve" smooth="yes"/>
      <point x="254" y="-550"/>
      <point x="358" y="-436"/>
      <point x="358" y="-227" type="curve" smooth="yes"/>
      <point x="358" y="1024" type="line"/>
      <point x="218" y="1024" type="line"/>
      <point x="218" y="-215" type="line" smooth="yes"/>
      <point x="218" y="-350"/>
      <point x="158" y="-425"/>
      <point x="63" y="-425" type="curve" smooth="yes"/>
      <point x="21" y="-425"/>
      <point x="-26" y="-410"/>
      <point x="-60" y="-365" type="curve"/>
      <point x="-135" y="-449" type="line"/>
      <point x="-78" y="-521"/>
      <point x="4" y="-550"/>
    </contour>
    <contour>
      <point x="288" y="1230" type="curve" smooth="yes"/>
      <point x="339" y="1230"/>
      <point x="381" y="1272"/>
      <point x="381" y="1323" type="curve" smooth="yes" name=".hr01"/>
      <point x="381" y="1374"/>
      <point x="339" y="1416"/>
      <point x="288" y="1416" type="curve" smooth="yes"/>
      <point x="237" y="1416"/>
      <point x="195" y="1374"/>
      <point x="195" y="1323" type="curve" smooth="yes"/>
      <point x="195" y="1272"/>
      <point x="237" y="1230"/>
    </contour>
  </outline>
</glyph>
<glyph name="k" format="2">
  <advance width="1096"/>
  <unicode hex="006B"/>
  <anchor x="547" y="0" name="bottom"/>
  <anchor x="547" y="1720" name="top"/>
  <outline>
    <contour>
      <point x="358" y="0" type="line"/>
      <point x="358" y="489" type="line"/>
      <point x="796" y="0" type="line"/>
      <point x="976" y="0" type="line"/>
      <point x="486" y="543" type="line"/>
      <point x="951" y="1024" type="line"/>
      <point x="768" y="1024" type="line"/>
      <point x="358" y="604" type="line"/>
      <point x="358" y="1720" type="line"/>
      <point x="217" y="1720" type="line"/>
      <point x="217" y="0" type="line"/>
    </contour>
  </outline>
</glyph>
<glyph name="l" format="2">
  <advance width="574"/>
  <unicode hex="006C"/>
  <anchor x="286" y="0" name="bottom"/>
  <anchor x="286" y="860" name="center"/>
  <anchor x="286" y="1720" name="top"/>
  <anchor x="356" y="1720" name="topright"/>
  <outline>
    <contour>
      <point x="357" y="0" type="line"/>
      <point x="357" y="1720" type="line"/>
      <point x="217" y="1720" type="line"/>
      <point x="217" y="0" type="line"/>
    </contour>
  </outline>
</glyph>
<glyph name="m" format="2">
  <advance width="1924"/>
  <unicode hex="006D"/>
  <anchor x="1072" y="0" name="bottom"/>
  <anchor x="1035" y="1025" name="top"/>
  <outline>
    <contour>
      <point x="217" y="1024" type="line"/>
      <point x="217" y="0" type="line"/>
      <point x="358" y="0" type="line"/>
      <point x="358" y="616" type="line" smooth="yes"/>
      <point x="358" y="814"/>
      <point x="486" y="940" name=".hr01"/>
      <point x="647" y="940" type="curve" smooth="yes"/>
      <point x="801" y="940"/>
      <point x="901" y="827"/>
      <point x="901" y="648" type="curve" smooth="yes"/>
      <point x="901" y="0" type="line"/>
      <point x="1042" y="0" type="line"/>
      <point x="1042" y="616" type="line" smooth="yes"/>
      <point x="1042" y="814"/>
      <point x="1167" y="940"/>
      <point x="1329" y="940" type="curve" smooth="yes"/>
      <point x="1483" y="940"/>
      <point x="1585" y="825"/>
      <point x="1585" y="633" type="curve" smooth="yes"/>
      <point x="1585" y="0" type="line"/>
      <point x="1726" y="0" type="line"/>
      <point x="1726" y="673" type="line" smooth="yes"/>
      <point x="1726" y="915"/>
      <point x="1574" y="1056"/>
      <point x="1368" y="1056" type="curve" smooth="yes"/>
      <point x="1204" y="1056"/>
      <point x="1081" y="965"/>
      <point x="1017" y="824" type="curve"/>
      <point x="973" y="967"/>
      <point x="845" y="1056"/>
      <point x="682" y="1056" type="curve" smooth="yes"/>
      <point x="542" y="1056"/>
      <point x="429" y="989"/>
      <point x="358" y="859" type="curve"/>
      <point x="358" y="1024" type="line" name=".hr02"/>
    </contour>
  </outline>
</glyph>
<glyph name="n" format="2">
  <advance width="1282"/>
  <unicode hex="006E"/>
  <anchor x="658" y="0" name="bottom"/>
  <anchor x="658" y="1020" name="top"/>
  <outline>
    <contour>
      <point x="357" y="0" type="line"/>
      <point x="357" y="596" type="line" smooth="yes"/>
      <point x="357" y="801"/>
      <point x="468" y="941"/>
      <point x="662" y="941" type="curve" smooth="yes"/>
      <point x="841" y="941"/>
      <point x="944" y="823"/>
      <point x="944" y="613" type="curve" smooth="yes"/>
      <point x="944" y="0" type="line"/>
      <point x="1084" y="0" type="line"/>
      <point x="1084" y="639" type="line" smooth="yes"/>
      <point x="1084" y="901"/>
      <point x="941" y="1056"/>
      <point x="707" y="1056" type="curve" smooth="yes"/>
      <point x="531" y="1056"/>
      <point x="411" y="967"/>
      <point x="357" y="858" type="curve"/>
      <point x="357" y="1024" type="line" name=".hr01"/>
      <point x="217" y="1024" type="line"/>
      <point x="217" y="0" type="line"/>
    </contour>
  </outline>
</glyph>
<glyph name="o" format="2">
  <advance width="1409"/>
  <unicode hex="006F"/>
  <anchor x="704" y="0" name="bottom"/>
  <anchor x="704" y="512" name="center"/>
  <anchor x="720" y="0" name="ogonek"/>
  <anchor x="704" y="1024" name="top"/>
  <outline>
    <contour>
      <point x="705" y="-32" type="curve" smooth="yes"/>
      <point x="1024" y="-32"/>
      <point x="1270" y="190"/>
      <point x="1270" y="512" type="curve" smooth="yes"/>
      <point x="1270" y="834"/>
      <point x="1024" y="1056"/>
      <point x="705" y="1056" type="curve" smooth="yes"/>
      <point x="385" y="1056"/>
      <point x="139" y="834"/>
      <point x="139" y="512" type="curve" smooth="yes"/>
      <point x="139" y="190"/>
      <point x="385" y="-32"/>
    </contour>
    <contour>
      <point x="705" y="93" type="curve" smooth="yes"/>
      <point x="462" y="93"/>
      <point x="284" y="268"/>
      <point x="284" y="512" type="curve" smooth="yes"/>
      <point x="284" y="756"/>
      <point x="462" y="931"/>
      <point x="705" y="931" type="curve" smooth="yes"/>
      <point x="947" y="931"/>
      <point x="1125" y="756"/>
      <point x="1125" y="512" type="curve" smooth="yes"/>
      <point x="1125" y="268"/>
      <point x="947" y="93"/>
    </contour>
  </outline>
</glyph>
<glyph name="q" format="2">
  <advance width="1395"/>
  <unicode hex="0071"/>
  <anchor x="699" y="0" name="bottom"/>
  <anchor x="673" y="1024" name="top"/>
  <outline>
    <contour>
      <point x="270" y="512" type="curve" smooth="yes"/>
      <point x="270" y="758"/>
      <point x="437" y="934"/>
      <point x="669" y="934" type="curve" smooth="yes"/>
      <point x="901" y="934"/>
      <point x="1067" y="759"/>
      <point x="1067" y="512" type="curve" smooth="yes"/>
      <point x="1067" y="266"/>
      <point x="901" y="90"/>
      <point x="669" y="90" type="curve" smooth="yes"/>
      <point x="437" y="90"/>
      <point x="270" y="266"/>
    </contour>
    <contour>
      <point x="126" y="512" type="curve" smooth="yes"/>
      <point x="126" y="199"/>
      <point x="343" y="-32"/>
      <point x="636" y="-32" type="curve" smooth="yes"/>
      <point x="818" y="-32"/>
      <point x="974" y="61"/>
      <point x="1061" y="219" type="curve"/>
      <point x="1061" y="-520" type="line"/>
      <point x="1201" y="-520" type="line"/>
      <point x="1201" y="1024" type="line"/>
      <point x="1061" y="1024" type="line" name=".hr01"/>
      <point x="1061" y="805" type="line"/>
      <point x="974" y="963"/>
      <point x="818" y="1056"/>
      <point x="636" y="1056" type="curve" smooth="yes" name=".hr02"/>
      <point x="343" y="1056"/>
      <point x="126" y="825"/>
    </contour>
  </outline>
</glyph>
<glyph name="r" format="2">
  <advance width="890"/>
  <unicode hex="0072"/>
  <anchor x="453" y="0" name="bottom"/>
  <anchor x="498" y="1024" name="top"/>
  <outline>
    <contour>
      <point x="357" y="0" type="line"/>
      <point x="357" y="619" type="line" smooth="yes"/>
      <point x="357" y="810"/>
      <point x="488" y="934"/>
      <point x="634" y="934" type="curve" smooth="yes"/>
      <point x="681" y="934"/>
      <point x="735" y="921"/>
      <point x="776" y="902" type="curve"/>
      <point x="833" y="1021" type="line"/>
      <point x="787" y="1042"/>
      <point x="725" y="1056"/>
      <point x="661" y="1056" type="curve" smooth="yes"/>
      <point x="525" y="1056"/>
      <point x="414" y="994"/>
      <point x="357" y="854" type="curve"/>
      <point x="357" y="1024" type="line" name=".hr01"/>
      <point x="217" y="1024" type="line"/>
      <point x="217" y="0" type="line"/>
    </contour>
  </outline>
</glyph>
<glyph name="s" format="2">
  <advance width="990"/>
  <unicode hex="0073"/>
  <anchor x="493" y="0" name="bottom"/>
  <anchor x="482" y="1024" name="top"/>
  <outline>
    <contour>
      <point x="491" y="-32" type="curve" smooth="yes"/>
      <point x="710" y="-32"/>
      <point x="856" y="73"/>
      <point x="856" y="264" type="curve" smooth="yes"/>
      <point x="856" y="447"/>
      <point x="709" y="528"/>
      <point x="515" y="601" type="curve" smooth="yes"/>
      <point x="377" y="652"/>
      <point x="287" y="690"/>
      <point x="287" y="791" type="curve" smooth="yes"/>
      <point x="287" y="886"/>
      <point x="365" y="952"/>
      <point x="490" y="952" type="curve" smooth="yes"/>
      <point x="580" y="952"/>
      <point x="656" y="917"/>
      <point x="710" y="845" type="curve"/>
      <point x="785" y="904" type="line"/>
      <point x="719" y="1001"/>
      <point x="611" y="1055"/>
      <point x="482" y="1055" type="curve" smooth="yes"/>
      <point x="288" y="1055"/>
      <point x="154" y="939"/>
      <point x="154" y="786" type="curve" smooth="yes"/>
      <point x="154" y="619"/>
      <point x="311" y="555"/>
      <point x="444" y="504" type="curve" smooth="yes"/>
      <point x="600" y="445"/>
      <point x="716" y="394"/>
      <point x="716" y="269" type="curve" smooth="yes"/>
      <point x="716" y="140"/>
      <point x="607" y="78"/>
      <point x="480" y="78" type="curve" smooth="yes"/>
      <point x="369" y="78"/>
      <point x="265" y="123"/>
      <point x="195" y="228" type="curve"/>
      <point x="112" y="171" type="line"/>
      <point x="197" y="25"/>
      <point x="336" y="-32"/>
    </contour>
  </outline>
</glyph>
<glyph name="t" format="2">
  <advance width="742"/>
  <unicode hex="0074"/>
  <anchor x="465" y="0" name="bottom"/>
  <anchor x="370" y="512" name="center"/>
  <anchor x="386" y="1406" name="top"/>
  <anchor x="698" y="1024" name="topright"/>
  <outline>
    <contour>
      <point x="467" y="-32" type="curve" smooth="yes"/>
      <point x="538" y="-32"/>
      <point x="612" y="-8"/>
      <point x="654" y="27" type="curve"/>
      <point x="594" y="120" type="line"/>
      <point x="568" y="102"/>
      <point x="532" y="92"/>
      <point x="498" y="92" type="curve" smooth="yes"/>
      <point x="416" y="92"/>
      <point x="370" y="154"/>
      <point x="370" y="268" type="curve" smooth="yes"/>
      <point x="370" y="917" type="line"/>
      <point x="626" y="917" type="line"/>
      <point x="626" y="1024" type="line"/>
      <point x="370" y="1024" type="line"/>
      <point x="370" y="1406" type="line"/>
      <point x="229" y="1406" type="line"/>
      <point x="229" y="1024" type="line"/>
      <point x="126" y="1024" type="line"/>
      <point x="126" y="917" type="line"/>
      <point x="229" y="917" type="line"/>
      <point x="229" y="261" type="line" smooth="yes"/>
      <point x="229" y="75"/>
      <point x="317" y="-32"/>
    </contour>
  </outline>
</glyph>
<glyph name="u" format="2">
  <advance width="1255"/>
  <unicode hex="0075"/>
  <anchor x="627" y="0" name="bottom"/>
  <anchor x="643" y="0" name="ogonek"/>
  <anchor x="627" y="1024" name="top"/>
  <outline>
    <contour>
      <point x="628" y="-32" type="curve" smooth="yes"/>
      <point x="919" y="-32"/>
      <point x="1057" y="124"/>
      <point x="1057" y="453" type="curve" smooth="yes"/>
      <point x="1057" y="1024" type="line"/>
      <point x="917" y="1024" type="line"/>
      <point x="917" y="478" type="line" smooth="yes"/>
      <point x="917" y="200"/>
      <point x="833" y="86"/>
      <point x="628" y="86" type="curve" smooth="yes"/>
      <point x="422" y="86"/>
      <point x="338" y="200"/>
      <point x="338" y="478" type="curve" smooth="yes"/>
      <point x="338" y="1024" type="line"/>
      <point x="198" y="1024" type="line"/>
      <point x="198" y="453" type="line" smooth="yes"/>
      <point x="198" y="124"/>
      <point x="336" y="-32"/>
    </contour>
  </outline>
</glyph>
<glyph name="v" format="2">
  <advance width="1218"/>
  <unicode hex="0076"/>
  <anchor x="608" y="0" name="bottom"/>
  <anchor x="608" y="1024" name="top"/>
  <outline>
    <contour>
      <point x="656" y="0" type="line"/>
      <point x="1150" y="1024" type="line"/>
      <point x="986" y="1024" type="line"/>
      <point x="608" y="201" type="line"/>
      <point x="232" y="1024" type="line"/>
      <point x="67" y="1024" type="line"/>
      <point x="562" y="0" type="line"/>
    </contour>
  </outline>
</glyph>
<glyph name="w" format="2">
  <advance width="1955"/>
  <unicode hex="0077"/>
  <anchor x="976" y="0" name="bottom"/>
  <anchor x="976" y="1024" name="top"/>
  <outline>
    <contour>
      <point x="656" y="0" type="line"/>
      <point x="977" y="805" type="line"/>
      <point x="1299" y="0" type="line"/>
      <point x="1392" y="0" type="line"/>
      <point x="1887" y="1024" type="line"/>
      <point x="1726" y="1024" type="line"/>
      <point x="1349" y="203" type="line"/>
      <point x="1024" y="1024" type="line"/>
      <point x="931" y="1024" type="line"/>
      <point x="605" y="203" type="line"/>
      <point x="228" y="1024" type="line"/>
      <point x="67" y="1024" type="line"/>
      <point x="562" y="0" type="line"/>
    </contour>
  </outline>
</glyph>
<glyph name="x" format="2">
  <advance width="1175"/>
  <unicode hex="0078"/>
  <anchor x="588" y="0" name="bottom"/>
  <anchor x="588" y="1024" name="top"/>
  <outline>
    <contour>
      <point x="231" y="0" type="line"/>
      <point x="588" y="440" type="line"/>
      <point x="945" y="0" type="line"/>
      <point x="1111" y="0" type="line"/>
      <point x="679" y="529" type="line"/>
      <point x="1052" y="1024" type="line"/>
      <point x="891" y="1024" type="line"/>
      <point x="588" y="623" type="line"/>
      <point x="284" y="1024" type="line"/>
      <point x="123" y="1024" type="line"/>
      <point x="497" y="529" type="line"/>
      <point x="65" y="0" type="line"/>
    </contour>
  </outline>
</glyph>
<glyph name="y" format="2">
  <advance width="1231"/>
  <unicode hex="0079"/>
  <anchor x="616" y="0" name="bottom"/>
  <anchor x="615" y="1024" name="top"/>
  <outline>
    <contour>
      <point x="462" y="-520" type="line"/>
      <point x="1162" y="1024" type="line"/>
      <point x="1003" y="1024" type="line"/>
      <point x="633" y="166" type="line"/>
      <point x="226" y="1024" type="line"/>
      <point x="66" y="1024" type="line"/>
      <point x="553" y="22" type="line"/>
      <point x="303" y="-520" type="line"/>
    </contour>
  </outline>
</glyph>
<glyph name="z" format="2">
  <advance width="1199"/>
  <unicode hex="007A"/>
  <anchor x="599" y="0" name="bottom"/>
  <anchor x="599" y="1023" name="top"/>
  <outline>
    <contour>
      <point x="1081" y="0" type="line"/>
      <point x="1081" y="116" type="line"/>
      <point x="338" y="116" type="line"/>
      <point x="1104" y="1024" type="line"/>
      <point x="158" y="1024" type="line"/>
      <point x="158" y="908" type="line"/>
      <point x="846" y="908" type="line"/>
      <point x="82" y="0" type="line"/>
    </contour>
  </outline>
</glyph>
<glyph name="braceleft" format="2">
  <advance width="773"/>
  <unicode hex="007B"/>
  <outline>
    <contour>
      <point x="648" y="-520" type="line"/>
      <point x="648" y="-408" type="line"/>
      <point x="603" y="-408" type="line" smooth="yes"/>
      <point x="453" y="-408"/>
      <point x="380" y="-313"/>
      <point x="380" y="-149" type="curve" smooth="yes"/>
      <point x="380" y="484" type="line" smooth="yes"/>
      <point x="380" y="544"/>
      <point x="359" y="581"/>
      <point x="325" y="600" type="curve"/>
      <point x="359" y="618"/>
      <point x="380" y="653"/>
      <point x="380" y="715" type="curve" smooth="yes"/>
      <point x="380" y="1350" type="line" smooth="yes"/>
      <point x="380" y="1512"/>
      <point x="453" y="1608"/>
      <point x="603" y="1608" type="curve" smooth="yes"/>
      <point x="648" y="1608" type="line"/>
      <point x="648" y="1720" type="line"/>
      <point x="572" y="1720" type="line" smooth="yes"/>
      <point x="316" y="1720"/>
      <point x="254" y="1524"/>
      <point x="254" y="1358" type="curve" smooth="yes"/>
      <point x="254" y="741" type="line" smooth="yes"/>
      <point x="254" y="671"/>
      <point x="225" y="643"/>
      <point x="167" y="643" type="curve"/>
      <point x="167" y="556" type="line"/>
      <point x="225" y="556"/>
      <point x="254" y="528"/>
      <point x="254" y="458" type="curve" smooth="yes"/>
      <point x="254" y="-158" type="line" smooth="yes"/>
      <point x="254" y="-324"/>
      <point x="316" y="-520"/>
      <point x="572" y="-520" type="curve" smooth="yes"/>
    </contour>
  </outline>
</glyph>
<glyph name="bar" format="2">
  <advance width="775"/>
  <unicode hex="007C"/>
  <outline>
    <contour>
      <point x="451" y="0" type="line"/>
      <point x="451" y="1720" type="line"/>
      <point x="325" y="1720" type="line"/>
      <point x="325" y="0" type="line"/>
    </contour>
  </outline>
</glyph>
<glyph name="asciitilde" format="2">
  <advance width="1519"/>
  <unicode hex="007E"/>
  <outline>
    <contour>
      <point x="262" y="773" type="curve"/>
      <point x="344" y="720" type="line"/>
      <point x="390" y="799"/>
      <point x="461" y="859"/>
      <point x="559" y="859" type="curve" smooth="yes"/>
      <point x="720" y="859"/>
      <point x="779" y="698"/>
      <point x="963" y="698" type="curve" smooth="yes"/>
      <point x="1080" y="698"/>
      <point x="1184" y="764"/>
      <point x="1257" y="895" type="curve"/>
      <point x="1175" y="948" type="line"/>
      <point x="1123" y="858"/>
      <point x="1047" y="809"/>
      <point x="958" y="809" type="curve" smooth="yes"/>
      <point x="798" y="809"/>
      <point x="741" y="970"/>
      <point x="556" y="970" type="curve" smooth="yes"/>
      <point x="426" y="970"/>
      <point x="327" y="891"/>
    </contour>
  </outline>
</glyph>
<glyph name="cent" format="2">
  <advance width="1357"/>
  <unicode hex="00A2"/>
  <outline>
    <component base="c" xOffset="92"/>
    <contour>
      <point x="682" y="1272" type="line"/>
      <point x="682" y="1017" type="line"/>
      <point x="775" y="1017" type="line"/>
      <point x="775" y="1272" type="line"/>
    </contour>
    <contour>
      <point x="730" y="0" type="line" name=".hr01"/>
      <point x="730" y="-258" type="line"/>
      <point x="824" y="-258" type="line"/>
      <point x="824" y="0" type="line"/>
    </contour>
  </outline>
</glyph>
<glyph name="sterling" format="2">
  <advance width="1721"/>
  <unicode hex="00A3"/>
  <outline>
    <contour>
      <point x="1155" y="-30" type="curve" smooth="yes"/>
      <point x="1353" y="-30"/>
      <point x="1490" y="102"/>
      <point x="1520" y="275" type="curve"/>
      <point x="1405" y="331" type="line"/>
      <point x="1389" y="206"/>
      <point x="1306" y="88"/>
      <point x="1145" y="88" type="curve" smooth="yes"/>
      <point x="973" y="88"/>
      <point x="835" y="232"/>
      <point x="671" y="238" type="curve"/>
      <point x="705" y="313"/>
      <point x="719" y="387"/>
      <point x="719" y="450" type="curve" smooth="yes"/>
      <point x="719" y="521"/>
      <point x="702" y="572"/>
      <point x="672" y="625" type="curve"/>
      <point x="1139" y="625" type="line"/>
      <point x="1139" y="713" type="line"/>
      <point x="640" y="713" type="line"/>
      <point x="570" y="839"/>
      <point x="490" y="962"/>
      <point x="490" y="1144" type="curve" smooth="yes"/>
      <point x="490" y="1395"/>
      <point x="644" y="1561"/>
      <point x="893" y="1561" type="curve" smooth="yes"/>
      <point x="1150" y="1561"/>
      <point x="1278" y="1385"/>
      <point x="1314" y="1215" type="curve"/>
      <point x="1436" y="1266" type="line"/>
      <point x="1377" y="1527"/>
      <point x="1160" y="1680"/>
      <point x="893" y="1680" type="curve" smooth="yes"/>
      <point x="577" y="1680"/>
      <point x="353" y="1468"/>
      <point x="353" y="1141" type="curve" smooth="yes"/>
      <point x="353" y="957"/>
      <point x="426" y="827"/>
      <point x="503" y="713" type="curve"/>
      <point x="224" y="713" type="line"/>
      <point x="224" y="625" type="line"/>
      <point x="550" y="625" type="line"/>
      <point x="577" y="577"/>
      <point x="599" y="525"/>
      <point x="599" y="450" type="curve" smooth="yes"/>
      <point x="599" y="376"/>
      <point x="580" y="299"/>
      <point x="557" y="245" type="curve"/>
      <point x="398" y="236"/>
      <point x="279" y="124"/>
      <point x="271" y="0" type="curve"/>
      <point x="396" y="0" type="line"/>
      <point x="408" y="83"/>
      <point x="507" y="136"/>
      <point x="611" y="136" type="curve" smooth="yes"/>
      <point x="795" y="136"/>
      <point x="935" y="-30"/>
    </contour>
  </outline>
</glyph>
<glyph name="currency" format="2">
  <advance width="1225"/>
  <unicode hex="00A4"/>
  <outline>
    <contour>
      <point x="318" y="300" type="line"/>
      <point x="396" y="232"/>
      <point x="499" y="192"/>
      <point x="612" y="192" type="curve" smooth="yes"/>
      <point x="725" y="192"/>
      <point x="828" y="232"/>
      <point x="906" y="300" type="curve"/>
      <point x="1041" y="164" type="line"/>
      <point x="1097" y="220" type="line"/>
      <point x="962" y="355" type="line"/>
      <point x="1028" y="434"/>
      <point x="1068" y="535"/>
      <point x="1068" y="649" type="curve" smooth="yes"/>
      <point x="1068" y="762"/>
      <point x="1028" y="863"/>
      <point x="962" y="942" type="curve"/>
      <point x="1097" y="1077" type="line"/>
      <point x="1041" y="1133" type="line"/>
      <point x="906" y="997" type="line"/>
      <point x="828" y="1065"/>
      <point x="725" y="1105"/>
      <point x="612" y="1105" type="curve" smooth="yes"/>
      <point x="499" y="1105"/>
      <point x="396" y="1065"/>
      <point x="318" y="997" type="curve"/>
      <point x="183" y="1133" type="line"/>
      <point x="127" y="1077" type="line"/>
      <point x="262" y="942" type="line"/>
      <point x="196" y="863"/>
      <point x="156" y="762"/>
      <point x="156" y="649" type="curve" smooth="yes"/>
      <point x="156" y="535"/>
      <point x="196" y="434"/>
      <point x="262" y="355" type="curve"/>
      <point x="127" y="220" type="line"/>
      <point x="183" y="164" type="line"/>
    </contour>
    <contour>
      <point x="612" y="306" type="curve" smooth="yes"/>
      <point x="420" y="306"/>
      <point x="268" y="456"/>
      <point x="268" y="649" type="curve" smooth="yes"/>
      <point x="268" y="841"/>
      <point x="420" y="991"/>
      <point x="612" y="991" type="curve" smooth="yes"/>
      <point x="804" y="991"/>
      <point x="956" y="841"/>
      <point x="956" y="649" type="curve" smooth="yes"/>
      <point x="956" y="456"/>
      <point x="804" y="306"/>
    </contour>
  </outline>
</glyph>
<glyph name="yen" format="2">
  <advance width="1656"/>
  <unicode hex="00A5"/>
  <outline>
    <component base="Y" xOffset="88"/>
    <contour>
      <point x="360" y="777" type="line"/>
      <point x="360" y="670" type="line"/>
      <point x="1296" y="670" type="line"/>
      <point x="1296" y="777" type="line"/>
    </contour>
    <contour>
      <point x="360" y="427" type="line"/>
      <point x="360" y="320" type="line"/>
      <point x="1296" y="320" type="line"/>
      <point x="1296" y="427" type="line"/>
    </contour>
  </outline>
</glyph>
<glyph name="brokenbar" format="2">
  <advance width="775"/>
  <unicode hex="00A6"/>
  <outline>
    <contour>
      <point x="451" y="1056" type="line"/>
      <point x="451" y="1720" type="line"/>
      <point x="325" y="1720" type="line"/>
      <point x="325" y="1056" type="line"/>
    </contour>
    <contour>
      <point x="451" y="0" type="line"/>
      <point x="451" y="664" type="line"/>
      <point x="325" y="664" type="line"/>
      <point x="325" y="0" type="line"/>
    </contour>
  </outline>
</glyph>
<glyph name="section" format="2">
  <advance width="1477"/>
  <unicode hex="00A7"/>
  <outline>
    <contour>
      <point x="744" y="-550" type="curve" smooth="yes"/>
      <point x="1019" y="-550"/>
      <point x="1236" y="-379"/>
      <point x="1236" y="-109" type="curve" smooth="yes"/>
      <point x="1236" y="37"/>
      <point x="1173" y="149"/>
      <point x="1046" y="238" type="curve"/>
      <point x="1173" y="291"/>
      <point x="1254" y="405"/>
      <point x="1256" y="530" type="curve" smooth="yes"/>
      <point x="1259" y="756"/>
      <point x="993" y="866"/>
      <point x="800" y="944" type="curve"/>
      <point x="635" y="1009"/>
      <point x="448" y="1079"/>
      <point x="448" y="1266" type="curve" smooth="yes"/>
      <point x="448" y="1426"/>
      <point x="574" y="1556"/>
      <point x="746" y="1556" type="curve" smooth="yes"/>
      <point x="885" y="1556"/>
      <point x="1003" y="1474"/>
      <point x="1040" y="1368" type="curve"/>
      <point x="1167" y="1404" type="line"/>
      <point x="1115" y="1549"/>
      <point x="969" y="1680"/>
      <point x="742" y="1680" type="curve" smooth="yes"/>
      <point x="478" y="1680"/>
      <point x="297" y="1499"/>
      <point x="297" y="1258" type="curve" smooth="yes"/>
      <point x="297" y="1119"/>
      <point x="358" y="1014"/>
      <point x="482" y="933" type="curve"/>
      <point x="358" y="885"/>
      <point x="277" y="770"/>
      <point x="275" y="642" type="curve" smooth="yes"/>
      <point x="271" y="430"/>
      <point x="487" y="328"/>
      <point x="665" y="255" type="curve"/>
      <point x="908" y="160"/>
      <point x="1083" y="86"/>
      <point x="1083" y="-114" type="curve" smooth="yes"/>
      <point x="1083" y="-302"/>
      <point x="939" y="-426"/>
      <point x="744" y="-426" type="curve" smooth="yes"/>
      <point x="553" y="-426"/>
      <point x="386" y="-311"/>
      <point x="328" y="-149" type="curve"/>
      <point x="201" y="-186" type="line"/>
      <point x="247" y="-350"/>
      <point x="445" y="-550"/>
    </contour>
    <contour>
      <point x="944" y="295" type="curve"/>
      <point x="863" y="337"/>
      <point x="837" y="350"/>
      <point x="714" y="398" type="curve" smooth="yes"/>
      <point x="521" y="472"/>
      <point x="423" y="529"/>
      <point x="423" y="655" type="curve" smooth="yes"/>
      <point x="423" y="767"/>
      <point x="503" y="851"/>
      <point x="584" y="876" type="curve"/>
      <point x="648" y="845"/>
      <point x="674" y="833"/>
      <point x="726" y="814" type="curve" smooth="yes"/>
      <point x="1013" y="709"/>
      <point x="1108" y="630"/>
      <point x="1108" y="512" type="curve" smooth="yes"/>
      <point x="1108" y="410"/>
      <point x="1032" y="325"/>
    </contour>
  </outline>
</glyph>
<glyph name="copyright" format="2">
  <advance width="2118"/>
  <unicode hex="00A9"/>
  <outline>
    <component base="c" xScale="0.9279" yScale="0.9279" xOffset="443" yOffset="348"/>
    <contour>
      <point x="1058" y="-32" type="curve" smooth="yes"/>
      <point x="1529" y="-32"/>
      <point x="1900" y="343"/>
      <point x="1900" y="820" type="curve" smooth="yes"/>
      <point x="1900" y="1300"/>
      <point x="1527" y="1680"/>
      <point x="1058" y="1680" type="curve" smooth="yes"/>
      <point x="591" y="1680"/>
      <point x="219" y="1298"/>
      <point x="219" y="821" type="curve" smooth="yes"/>
      <point x="219" y="340"/>
      <point x="587" y="-32"/>
    </contour>
    <contour>
      <point x="1058" y="71" type="curve" smooth="yes"/>
      <point x="645" y="71"/>
      <point x="327" y="396"/>
      <point x="327" y="820" type="curve" smooth="yes"/>
      <point x="327" y="1241"/>
      <point x="652" y="1577"/>
      <point x="1058" y="1577" type="curve" smooth="yes"/>
      <point x="1467" y="1577"/>
      <point x="1792" y="1242"/>
      <point x="1792" y="820" type="curve" smooth="yes"/>
      <point x="1792" y="399"/>
      <point x="1470" y="71"/>
    </contour>
  </outline>
</glyph>
<glyph name="ordfeminine" format="2">
  <advance width="1058"/>
  <unicode hex="00AA"/>
  <outline>
    <contour>
      <point x="484" y="1008" type="curve" smooth="yes"/>
      <point x="600" y="1008"/>
      <point x="696" y="1069"/>
      <point x="746" y="1164" type="curve"/>
      <point x="746" y="1028" type="line"/>
      <point x="833" y="1028" type="line"/>
      <point x="833" y="1660" type="line"/>
      <point x="746" y="1660" type="line"/>
      <point x="746" y="1527" type="line"/>
      <point x="695" y="1622"/>
      <point x="599" y="1680"/>
      <point x="487" y="1680" type="curve" smooth="yes"/>
      <point x="303" y="1680"/>
      <point x="169" y="1537"/>
      <point x="169" y="1344" type="curve" smooth="yes"/>
      <point x="169" y="1148"/>
      <point x="306" y="1008"/>
    </contour>
    <contour>
      <point x="503" y="1082" type="curve" smooth="yes"/>
      <point x="361" y="1082"/>
      <point x="257" y="1193"/>
      <point x="257" y="1344" type="curve" smooth="yes"/>
      <point x="257" y="1497"/>
      <point x="362" y="1606"/>
      <point x="503" y="1606" type="curve" smooth="yes"/>
      <point x="644" y="1606"/>
      <point x="748" y="1497"/>
      <point x="748" y="1344" type="curve" smooth="yes"/>
      <point x="748" y="1193"/>
      <point x="645" y="1082"/>
    </contour>
  </outline>
</glyph>
<glyph name="guillemetleft" format="2">
  <advance width="1100"/>
  <unicode hex="00AB"/>
  <outline>
    <contour>
      <point x="604" y="122" type="line"/>
      <point x="264" y="557" type="line"/>
      <point x="604" y="991" type="line"/>
      <point x="521" y="1057" type="line"/>
      <point x="131" y="557" type="line"/>
      <point x="521" y="57" type="line"/>
    </contour>
    <contour>
      <point x="953" y="122" type="line"/>
      <point x="613" y="557" type="line"/>
      <point x="953" y="991" type="line"/>
      <point x="871" y="1057" type="line"/>
      <point x="481" y="557" type="line"/>
      <point x="871" y="57" type="line"/>
    </contour>
  </outline>
</glyph>
<glyph name="logicalnot" format="2">
  <advance width="1434"/>
  <unicode hex="00AC"/>
  <outline>
    <contour>
      <point x="1230" y="316" type="line"/>
      <point x="1230" y="889" type="line"/>
      <point x="205" y="889" type="line"/>
      <point x="205" y="768" type="line"/>
      <point x="1109" y="768" type="line"/>
      <point x="1109" y="316" type="line"/>
    </contour>
  </outline>
</glyph>
<glyph name="registered" format="2">
  <advance width="1393"/>
  <unicode hex="00AE"/>
  <outline>
    <component base="R" xScale="0.3398" yScale="0.3398" xOffset="445" yOffset="952"/>
    <contour>
      <point x="696" y="771" type="curve" smooth="yes"/>
      <point x="948" y="771"/>
      <point x="1154" y="979"/>
      <point x="1154" y="1231" type="curve" smooth="yes"/>
      <point x="1154" y="1483"/>
      <point x="948" y="1691"/>
      <point x="696" y="1691" type="curve" smooth="yes"/>
      <point x="444" y="1691"/>
      <point x="238" y="1483"/>
      <point x="238" y="1231" type="curve" smooth="yes"/>
      <point x="238" y="979"/>
      <point x="444" y="771"/>
    </contour>
    <contour>
      <point x="696" y="832" type="curve" smooth="yes"/>
      <point x="477" y="832"/>
      <point x="299" y="1012"/>
      <point x="299" y="1231" type="curve" smooth="yes"/>
      <point x="299" y="1450"/>
      <point x="477" y="1630"/>
      <point x="696" y="1630" type="curve" smooth="yes"/>
      <point x="915" y="1630"/>
      <point x="1093" y="1450"/>
      <point x="1093" y="1231" type="curve" smooth="yes"/>
      <point x="1093" y="1012"/>
      <point x="915" y="832"/>
    </contour>
  </outline>
</glyph>
<glyph name="degree" format="2">
  <advance width="995"/>
  <unicode hex="00B0"/>
  <outline>
    <contour>
      <point x="497" y="1338" type="curve" smooth="yes"/>
      <point x="620" y="1338"/>
      <point x="709" y="1424"/>
      <point x="709" y="1544" type="curve" smooth="yes"/>
      <point x="709" y="1666"/>
      <point x="616" y="1750"/>
      <point x="497" y="1750" type="curve" smooth="yes"/>
      <point x="379" y="1750"/>
      <point x="286" y="1666"/>
      <point x="286" y="1543" type="curve" smooth="yes"/>
      <point x="286" y="1426"/>
      <point x="371" y="1338"/>
    </contour>
    <contour>
      <point x="497" y="1406" type="curve" smooth="yes"/>
      <point x="416" y="1406"/>
      <point x="361" y="1462"/>
      <point x="361" y="1542" type="curve" smooth="yes"/>
      <point x="361" y="1625"/>
      <point x="419" y="1682"/>
      <point x="497" y="1682" type="curve" smooth="yes"/>
      <point x="572" y="1682"/>
      <point x="633" y="1627"/>
      <point x="633" y="1543" type="curve" smooth="yes"/>
      <point x="633" y="1463"/>
      <point x="578" y="1406"/>
    </contour>
  </outline>
</glyph>
<glyph name="plusminus" format="2">
  <advance width="1482"/>
  <unicode hex="00B1"/>
  <outline>
    <contour>
      <point x="802" y="344" type="line"/>
      <point x="802" y="782" type="line"/>
      <point x="1254" y="782" type="line"/>
      <point x="1254" y="902" type="line"/>
      <point x="802" y="902" type="line"/>
      <point x="802" y="1340" type="line"/>
      <point x="680" y="1340" type="line"/>
      <point x="680" y="902" type="line"/>
      <point x="228" y="902" type="line"/>
      <point x="228" y="782" type="line"/>
      <point x="680" y="782" type="line"/>
      <point x="680" y="344" type="line"/>
    </contour>
    <contour>
      <point x="1254" y="0" type="line"/>
      <point x="1254" y="121" type="line"/>
      <point x="228" y="121" type="line"/>
      <point x="228" y="0" type="line"/>
    </contour>
  </outline>
</glyph>
<glyph name="twosuperior" format="2">
  <advance width="927"/>
  <unicode hex="00B2"/>
  <outline>
    <contour>
      <point x="693" y="1026" type="line"/>
      <point x="693" y="1094" type="line"/>
      <point x="369" y="1094" type="line"/>
      <point x="609" y="1272"/>
      <point x="681" y="1361"/>
      <point x="681" y="1469" type="curve" smooth="yes"/>
      <point x="681" y="1596"/>
      <point x="584" y="1680"/>
      <point x="461" y="1680" type="curve" smooth="yes"/>
      <point x="344" y="1680"/>
      <point x="253" y="1599"/>
      <point x="236" y="1482" type="curve"/>
      <point x="303" y="1456" type="line"/>
      <point x="316" y="1547"/>
      <point x="379" y="1613"/>
      <point x="462" y="1613" type="curve" smooth="yes"/>
      <point x="539" y="1613"/>
      <point x="598" y="1557"/>
      <point x="598" y="1476" type="curve" smooth="yes"/>
      <point x="598" y="1372"/>
      <point x="496" y="1258"/>
      <point x="230" y="1070" type="curve"/>
      <point x="230" y="1026" type="line"/>
    </contour>
  </outline>
</glyph>
<glyph name="threesuperior" format="2">
  <advance width="882"/>
  <unicode hex="00B3"/>
  <outline>
    <contour>
      <point x="444" y="1026" type="curve" smooth="yes"/>
      <point x="569" y="1026"/>
      <point x="648" y="1098"/>
      <point x="648" y="1205" type="curve" smooth="yes"/>
      <point x="648" y="1279"/>
      <point x="608" y="1343"/>
      <point x="541" y="1366" type="curve"/>
      <point x="596" y="1395"/>
      <point x="634" y="1453"/>
      <point x="634" y="1516" type="curve" smooth="yes"/>
      <point x="634" y="1609"/>
      <point x="557" y="1680"/>
      <point x="449" y="1680" type="curve" smooth="yes"/>
      <point x="347" y="1680"/>
      <point x="276" y="1616"/>
      <point x="263" y="1528" type="curve"/>
      <point x="326" y="1504" type="line"/>
      <point x="330" y="1569"/>
      <point x="383" y="1617"/>
      <point x="447" y="1617" type="curve" smooth="yes"/>
      <point x="508" y="1617"/>
      <point x="558" y="1569"/>
      <point x="558" y="1507" type="curve" smooth="yes"/>
      <point x="558" y="1442"/>
      <point x="503" y="1389"/>
      <point x="436" y="1389" type="curve" smooth="yes"/>
      <point x="412" y="1389" type="line"/>
      <point x="412" y="1335" type="line"/>
      <point x="418" y="1337"/>
      <point x="428" y="1338"/>
      <point x="437" y="1338" type="curve" smooth="yes"/>
      <point x="506" y="1338"/>
      <point x="567" y="1282"/>
      <point x="567" y="1207" type="curve" smooth="yes"/>
      <point x="567" y="1143"/>
      <point x="522" y="1094"/>
      <point x="440" y="1094" type="curve" smooth="yes"/>
      <point x="357" y="1094"/>
      <point x="304" y="1145"/>
      <point x="302" y="1216" type="curve"/>
      <point x="230" y="1187" type="line"/>
      <point x="245" y="1096"/>
      <point x="320" y="1026"/>
    </contour>
  </outline>
</glyph>
<glyph name="micro" format="2">
  <advance width="1497"/>
  <unicode hex="00B5"/>
  <outline>
    <contour>
      <point x="476" y="-320" type="line"/>
      <point x="476" y="94" type="line"/>
      <point x="527" y="10"/>
      <point x="618" y="-32"/>
      <point x="744" y="-32" type="curve" smooth="yes"/>
      <point x="878" y="-32"/>
      <point x="1010" y="39"/>
      <point x="1063" y="141" type="curve"/>
      <point x="1063" y="0" type="line" name=".hr01"/>
      <point x="1204" y="0" type="line"/>
      <point x="1204" y="1024" type="line"/>
      <point x="1063" y="1024" type="line"/>
      <point x="1063" y="356" type="line" smooth="yes"/>
      <point x="1063" y="205"/>
      <point x="932" y="82" name=".hr02"/>
      <point x="768" y="82" type="curve" smooth="yes"/>
      <point x="577" y="82"/>
      <point x="476" y="196"/>
      <point x="476" y="414" type="curve" smooth="yes"/>
      <point x="476" y="1024" type="line"/>
      <point x="336" y="1024" type="line"/>
      <point x="336" y="438" type="line" smooth="yes"/>
      <point x="336" y="141"/>
      <point x="297" y="0" name=".hr03"/>
      <point x="297" y="-320" type="curve"/>
    </contour>
  </outline>
</glyph>
<glyph name="paragraph" format="2">
  <advance width="1499"/>
  <unicode hex="00B6"/>
  <outline>
    <contour>
      <point x="1005" y="0" type="line"/>
      <point x="1005" y="1557" type="line"/>
      <point x="1076" y="1557" type="line"/>
      <point x="1076" y="0" type="line"/>
      <point x="1174" y="0" type="line"/>
      <point x="1174" y="1650" type="line"/>
      <point x="713" y="1650" type="line" smooth="yes"/>
      <point x="391" y="1650"/>
      <point x="202" y="1459"/>
      <point x="202" y="1185" type="curve" smooth="yes"/>
      <point x="202" y="914"/>
      <point x="391" y="701"/>
      <point x="713" y="701" type="curve" smooth="yes"/>
      <point x="907" y="701" type="line"/>
      <point x="907" y="0" type="line"/>
    </contour>
  </outline>
</glyph>
<glyph name="onesuperior" format="2">
  <advance width="606"/>
  <unicode hex="00B9"/>
  <outline>
    <contour>
      <point x="372" y="1026" type="line"/>
      <point x="372" y="1650" type="line"/>
      <point x="230" y="1650" type="line"/>
      <point x="230" y="1575" type="line"/>
      <point x="298" y="1575" type="line"/>
      <point x="298" y="1026" type="line"/>
    </contour>
  </outline>
</glyph>
<glyph name="ordmasculine" format="2">
  <advance width="1006"/>
  <unicode hex="00BA"/>
  <outline>
    <contour>
      <point x="503" y="1007" type="curve" smooth="yes"/>
      <point x="699" y="1007"/>
      <point x="850" y="1146"/>
      <point x="850" y="1344" type="curve" smooth="yes"/>
      <point x="850" y="1543"/>
      <point x="699" y="1680"/>
      <point x="503" y="1680" type="curve" smooth="yes"/>
      <point x="306" y="1680"/>
      <point x="155" y="1543"/>
      <point x="155" y="1344" type="curve" smooth="yes"/>
      <point x="155" y="1146"/>
      <point x="306" y="1007"/>
    </contour>
    <contour>
      <point x="502" y="1082" type="curve" smooth="yes"/>
      <point x="354" y="1082"/>
      <point x="244" y="1190"/>
      <point x="244" y="1344" type="curve" smooth="yes"/>
      <point x="244" y="1495"/>
      <point x="352" y="1605"/>
      <point x="503" y="1605" type="curve" smooth="yes"/>
      <point x="651" y="1605"/>
      <point x="762" y="1495"/>
      <point x="762" y="1344" type="curve" smooth="yes"/>
      <point x="762" y="1192"/>
      <point x="651" y="1082"/>
    </contour>
  </outline>
</glyph>
<glyph name="AE" format="2">
  <advance width="1831"/>
  <unicode hex="00C6"/>
  <outline>
    <contour>
      <point x="828" y="1459" type="line"/>
      <point x="828" y="661" type="line"/>
      <point x="522" y="661" type="line"/>
    </contour>
    <contour>
      <point x="760" y="1651" type="line"/>
      <point x="111" y="0" type="line"/>
      <point x="268" y="0" type="line"/>
      <point x="472" y="532" type="line"/>
      <point x="828" y="532" type="line"/>
      <point x="828" y="0" type="line"/>
      <point x="1657" y="0" type="line"/>
      <point x="1657" y="129" type="line" name=".hr01"/>
      <point x="974" y="129" type="line"/>
      <point x="974" y="762" type="line"/>
      <point x="1633" y="762" type="line"/>
      <point x="1633" y="891" type="line"/>
      <point x="974" y="891" type="line"/>
      <point x="974" y="1522" type="line"/>
      <point x="1657" y="1522" type="line"/>
      <point x="1657" y="1651" type="line"/>
    </contour>
  </outline>
</glyph>
<glyph name="Eth" format="2">
  <advance width="1673"/>
  <unicode hex="00D0"/>
  <outline>
    <component base="D" xOffset="34"/>
    <contour>
      <point x="140" y="885" type="line"/>
      <point x="140" y="766" type="line"/>
      <point x="898" y="766" type="line"/>
      <point x="898" y="885" type="line"/>
    </contour>
  </outline>
</glyph>
<glyph name="multiply" format="2">
  <advance width="1321"/>
  <unicode hex="00D7"/>
  <outline>
    <contour>
      <point x="661" y="745" type="line"/>
      <point x="1030" y="373" type="line"/>
      <point x="1115" y="457" type="line"/>
      <point x="744" y="828" type="line"/>
      <point x="1115" y="1201" type="line"/>
      <point x="1032" y="1283" type="line"/>
      <point x="661" y="912" type="line"/>
      <point x="290" y="1283" type="line"/>
      <point x="205" y="1201" type="line"/>
      <point x="577" y="828" type="line"/>
      <point x="205" y="457" type="line"/>
      <point x="289" y="373" type="line"/>
    </contour>
  </outline>
</glyph>
<glyph name="Oslash" format="2">
  <advance width="2003"/>
  <unicode hex="00D8"/>
  <outline>
    <component base="O"/>
    <contour>
      <point x="1679" y="1589" type="line"/>
      <point x="1582" y="1662" type="line"/>
      <point x="335" y="69" type="line"/>
      <point x="429" y="-2" type="line"/>
    </contour>
  </outline>
</glyph>
<glyph name="Thorn" format="2">
  <advance width="1367"/>
  <unicode hex="00DE"/>
  <anchor x="684" y="0" name="bottom"/>
  <anchor x="684" y="1650" name="top"/>
  <outline>
    <contour>
      <point x="417" y="0" type="line"/>
      <point x="417" y="343" type="line"/>
      <point x="694" y="343" type="line" smooth="yes"/>
      <point x="1017" y="343"/>
      <point x="1218" y="528"/>
      <point x="1218" y="818" type="curve" smooth="yes"/>
      <point x="1218" y="1107"/>
      <point x="1017" y="1292"/>
      <point x="694" y="1292" type="curve" smooth="yes"/>
      <point x="417" y="1292" type="line"/>
      <point x="417" y="1650" type="line"/>
      <point x="271" y="1650" type="line"/>
      <point x="271" y="0" type="line"/>
    </contour>
    <contour>
      <point x="417" y="1173" type="line"/>
      <point x="661" y="1173" type="line" smooth="yes"/>
      <point x="910" y="1173"/>
      <point x="1070" y="1037"/>
      <point x="1070" y="818" type="curve" smooth="yes"/>
      <point x="1070" y="598"/>
      <point x="910" y="462"/>
      <point x="661" y="462" type="curve" smooth="yes"/>
      <point x="417" y="462" type="line"/>
    </contour>
  </outline>
</glyph>
<glyph name="germandbls" format="2">
  <advance width="1348"/>
  <unicode hex="00DF"/>
  <anchor x="674" y="0" name="bottom"/>
  <anchor x="674" y="1025" name="top"/>
  <outline>
    <contour>
      <point x="700" y="-32" type="line"/>
      <point x="990" y="-30"/>
      <point x="1213" y="189"/>
      <point x="1213" y="471" type="curve" smooth="yes"/>
      <point x="1213" y="675"/>
      <point x="1092" y="849"/>
      <point x="902" y="919" type="curve"/>
      <point x="1057" y="987"/>
      <point x="1153" y="1133"/>
      <point x="1153" y="1304" type="curve" smooth="yes"/>
      <point x="1153" y="1553"/>
      <point x="954" y="1750"/>
      <point x="702" y="1750" type="curve" smooth="yes"/>
      <point x="448" y="1750"/>
      <point x="248" y="1550"/>
      <point x="248" y="1299" type="curve" smooth="yes"/>
      <point x="248" y="844" type="line"/>
      <point x="116" y="844" type="line"/>
      <point x="116" y="726" type="line"/>
      <point x="248" y="726" type="line"/>
      <point x="248" y="0" type="line" name=".hr01"/>
      <point x="388" y="0" type="line"/>
      <point x="388" y="1302" type="line" smooth="yes"/>
      <point x="388" y="1484"/>
      <point x="526" y="1626"/>
      <point x="700" y="1626" type="curve" smooth="yes"/>
      <point x="877" y="1626"/>
      <point x="1019" y="1482"/>
      <point x="1019" y="1301" type="curve" smooth="yes"/>
      <point x="1019" y="1120"/>
      <point x="877" y="974"/>
      <point x="700" y="974" type="curve" smooth="yes"/>
      <point x="533" y="974" type="line"/>
      <point x="533" y="858" type="line"/>
      <point x="700" y="858" type="line" smooth="yes"/>
      <point x="904" y="858"/>
      <point x="1067" y="691"/>
      <point x="1067" y="478" type="curve" smooth="yes"/>
      <point x="1067" y="267"/>
      <point x="904" y="99" name=".hr02"/>
      <point x="700" y="99" type="curve" smooth="yes"/>
      <point x="533" y="99" type="line"/>
      <point x="533" y="-32" type="line"/>
    </contour>
  </outline>
</glyph>
<glyph name="ae" format="2">
  <advance width="2074"/>
  <unicode hex="00E6"/>
  <outline>
    <contour>
      <point x="543" y="-32" type="curve" smooth="yes"/>
      <point x="730" y="-32"/>
      <point x="879" y="61"/>
      <point x="967" y="219" type="curve"/>
      <point x="1063" y="61"/>
      <point x="1232" y="-32"/>
      <point x="1432" y="-32" type="curve" smooth="yes"/>
      <point x="1638" y="-32"/>
      <point x="1812" y="59"/>
      <point x="1910" y="218" type="curve"/>
      <point x="1807" y="275" type="line"/>
      <point x="1724" y="151"/>
      <point x="1596" y="85" name=".hr01"/>
      <point x="1441" y="85" type="curve" smooth="yes"/>
      <point x="1192" y="85"/>
      <point x="1017" y="257"/>
      <point x="1017" y="499" type="curve"/>
      <point x="1946" y="499" type="line"/>
      <point x="1946" y="510"/>
      <point x="1946" y="513"/>
      <point x="1946" y="521" type="curve" smooth="yes"/>
      <point x="1946" y="823"/>
      <point x="1713" y="1056"/>
      <point x="1415" y="1056" type="curve" smooth="yes"/>
      <point x="1223" y="1056"/>
      <point x="1058" y="950"/>
      <point x="968" y="794" type="curve"/>
      <point x="918" y="953"/>
      <point x="786" y="1056"/>
      <point x="575" y="1056" type="curve" smooth="yes"/>
      <point x="429" y="1056"/>
      <point x="304" y="1007"/>
      <point x="208" y="910" type="curve"/>
      <point x="282" y="830" type="line"/>
      <point x="359" y="899"/>
      <point x="453" y="941"/>
      <point x="565" y="941" type="curve" smooth="yes"/>
      <point x="758" y="941"/>
      <point x="880" y="820"/>
      <point x="880" y="616" type="curve" smooth="yes"/>
      <point x="880" y="491" type="line"/>
      <point x="808" y="574"/>
      <point x="683" y="625" name=".hr02"/>
      <point x="546" y="625" type="curve" smooth="yes"/>
      <point x="317" y="625"/>
      <point x="144" y="491"/>
      <point x="144" y="295" type="curve" smooth="yes"/>
      <point x="144" y="95"/>
      <point x="316" y="-32"/>
    </contour>
    <contour>
      <point x="584" y="65" type="curve" smooth="yes"/>
      <point x="417" y="65"/>
      <point x="281" y="161"/>
      <point x="281" y="302" type="curve" smooth="yes"/>
      <point x="281" y="443"/>
      <point x="416" y="534"/>
      <point x="583" y="534" type="curve" smooth="yes"/>
      <point x="751" y="534"/>
      <point x="888" y="442"/>
      <point x="888" y="301" type="curve" smooth="yes"/>
      <point x="888" y="159"/>
      <point x="752" y="65"/>
    </contour>
    <contour>
      <point x="1022" y="587" type="line"/>
      <point x="1040" y="795"/>
      <point x="1208" y="952" name=".hr03"/>
      <point x="1416" y="952" type="curve" smooth="yes"/>
      <point x="1623" y="952"/>
      <point x="1787" y="796"/>
      <point x="1808" y="587" type="curve"/>
    </contour>
  </outline>
</glyph>
<glyph name="eth" format="2">
  <advance width="1437"/>
  <unicode hex="00F0"/>
  <outline>
    <contour>
      <point x="707" y="-32" type="curve" smooth="yes"/>
      <point x="1030" y="-32"/>
      <point x="1273" y="192"/>
      <point x="1273" y="512" type="curve" smooth="yes"/>
      <point x="1273" y="976"/>
      <point x="1097" y="1322"/>
      <point x="820" y="1542" type="curve"/>
      <point x="957" y="1678" type="line"/>
      <point x="886" y="1750" type="line"/>
      <point x="734" y="1600" type="line"/>
      <point x="636" y="1664"/>
      <point x="528" y="1714"/>
      <point x="420" y="1750" type="curve"/>
      <point x="382" y="1629" type="line"/>
      <point x="469" y="1599"/>
      <point x="558" y="1558"/>
      <point x="639" y="1503" type="curve"/>
      <point x="497" y="1362" type="line"/>
      <point x="569" y="1290" type="line"/>
      <point x="727" y="1447" type="line"/>
      <point x="893" y="1315"/>
      <point x="1015" y="1121"/>
      <point x="1069" y="863" type="curve"/>
      <point x="996" y="985"/>
      <point x="860" y="1060"/>
      <point x="700" y="1060" type="curve" smooth="yes"/>
      <point x="404" y="1060"/>
      <point x="139" y="849"/>
      <point x="139" y="512" type="curve" smooth="yes"/>
      <point x="139" y="192"/>
      <point x="380" y="-32"/>
    </contour>
    <contour>
      <point x="707" y="90" type="curve" smooth="yes"/>
      <point x="459" y="90"/>
      <point x="283" y="267"/>
      <point x="283" y="512" type="curve" smooth="yes"/>
      <point x="283" y="758"/>
      <point x="462" y="934"/>
      <point x="707" y="934" type="curve" smooth="yes"/>
      <point x="949" y="934"/>
      <point x="1130" y="758"/>
      <point x="1130" y="512" type="curve" smooth="yes"/>
      <point x="1130" y="267"/>
      <point x="950" y="90"/>
    </contour>
  </outline>
</glyph>
<glyph name="divide" format="2">
  <advance width="1432"/>
  <unicode hex="00F7"/>
  <outline>
    <contour>
      <point x="583" y="770" type="line"/>
      <point x="1207" y="789" type="line"/>
      <point x="806" y="890" type="line"/>
      <point x="182" y="872" type="line"/>
    </contour>
    <contour>
      <point x="695" y="260" type="curve" smooth="yes"/>
      <point x="738" y="260"/>
      <point x="774" y="296"/>
      <point x="774" y="341" type="curve" smooth="yes"/>
      <point x="774" y="386"/>
      <point x="738" y="422"/>
      <point x="695" y="422" type="curve" smooth="yes"/>
      <point x="651" y="422"/>
      <point x="615" y="386"/>
      <point x="615" y="341" type="curve" smooth="yes"/>
      <point x="615" y="296"/>
      <point x="651" y="260"/>
    </contour>
    <contour>
      <point x="695" y="1239" type="curve" smooth="yes"/>
      <point x="738" y="1239"/>
      <point x="774" y="1275"/>
      <point x="774" y="1320" type="curve" smooth="yes"/>
      <point x="774" y="1365"/>
      <point x="738" y="1401"/>
      <point x="695" y="1401" type="curve" smooth="yes"/>
      <point x="651" y="1401"/>
      <point x="615" y="1365"/>
      <point x="615" y="1320" type="curve" smooth="yes"/>
      <point x="615" y="1275"/>
      <point x="651" y="1239"/>
    </contour>
  </outline>
</glyph>
<glyph name="oslash" format="2">
  <advance width="1409"/>
  <unicode hex="00F8"/>
  <outline>
    <component base="o"/>
    <contour>
      <point x="306" y="-32" type="line"/>
      <point x="1198" y="1056" type="line"/>
      <point x="1103" y="1056" type="line"/>
      <point x="211" y="-32" type="line"/>
    </contour>
  </outline>
</glyph>
<glyph name="thorn" format="2">
  <advance width="1437"/>
  <unicode hex="00FE"/>
  <anchor x="720" y="0" name="bottom"/>
  <anchor x="720" y="1025" name="top"/>
  <outline>
    <contour>
      <point x="351" y="512" type="curve" smooth="yes"/>
      <point x="351" y="759"/>
      <point x="517" y="934"/>
      <point x="750" y="934" type="curve" smooth="yes"/>
      <point x="981" y="934"/>
      <point x="1149" y="758"/>
      <point x="1149" y="512" type="curve" smooth="yes"/>
      <point x="1149" y="266"/>
      <point x="981" y="90"/>
      <point x="750" y="90" type="curve" smooth="yes"/>
      <point x="517" y="90"/>
      <point x="351" y="266"/>
    </contour>
    <contour>
      <point x="217" y="1720" type="line"/>
      <point x="217" y="-520" type="line"/>
      <point x="357" y="-520" type="line"/>
      <point x="357" y="219" type="line"/>
      <point x="444" y="61"/>
      <point x="600" y="-32"/>
      <point x="783" y="-32" type="curve" smooth="yes"/>
      <point x="1076" y="-32"/>
      <point x="1293" y="199"/>
      <point x="1293" y="512" type="curve" smooth="yes"/>
      <point x="1293" y="825"/>
      <point x="1076" y="1056"/>
      <point x="783" y="1056" type="curve" smooth="yes"/>
      <point x="600" y="1056"/>
      <point x="444" y="963"/>
      <point x="357" y="805" type="curve"/>
      <point x="357" y="1720" type="line"/>
    </contour>
  </outline>
</glyph>
<glyph name="dcroat" format="2">
  <advance width="1510"/>
  <unicode hex="0111"/>
  <outline>
    <component base="d"/>
    <contour>
      <point x="673" y="1420" type="line"/>
      <point x="673" y="1323" type="line"/>
      <point x="1397" y="1323" type="line"/>
      <point x="1397" y="1420" type="line"/>
    </contour>
  </outline>
</glyph>
<glyph name="eogonek" format="2">
  <advance width="1336"/>
  <unicode hex="0119"/>
  <anchor x="702" y="0" name="bottom"/>
  <anchor x="718" y="0" name="ogonek"/>
  <anchor x="676" y="1024" name="top"/>
  <anchor x="718" y="0" name="_ogonek"/>
  <outline>
    <contour>
      <point x="696" y="-32" type="curve" smooth="yes"/>
      <point x="780" y="-32"/>
      <point x="859" y="-16"/>
      <point x="929" y="16" type="curve"/>
      <point x="902" y="16" type="line"/>
      <point x="776" y="-115"/>
      <point x="704" y="-238"/>
      <point x="704" y="-335" type="curve" smooth="yes"/>
      <point x="704" y="-458"/>
      <point x="809" y="-559"/>
      <point x="956" y="-559" type="curve" smooth="yes"/>
      <point x="1064" y="-559"/>
      <point x="1169" y="-504"/>
      <point x="1231" y="-415" type="curve"/>
      <point x="1166" y="-367" type="line"/>
      <point x="1105" y="-436"/>
      <point x="1042" y="-467"/>
      <point x="968" y="-467" type="curve" smooth="yes"/>
      <point x="857" y="-467"/>
      <point x="800" y="-399"/>
      <point x="800" y="-319" type="curve" smooth="yes"/>
      <point x="800" y="-217"/>
      <point x="894" y="-58"/>
      <point x="1075" y="105" type="curve"/>
      <point x="1113" y="137"/>
      <point x="1146" y="176"/>
      <point x="1172" y="219" type="curve"/>
      <point x="1069" y="275" type="line"/>
      <point x="985" y="153"/>
      <point x="857" y="85"/>
      <point x="702" y="85" type="curve" smooth="yes"/>
      <point x="454" y="85"/>
      <point x="278" y="257"/>
      <point x="278" y="499" type="curve"/>
      <point x="1207" y="499" type="line"/>
      <point x="1208" y="510"/>
      <point x="1208" y="520"/>
      <point x="1208" y="533" type="curve"/>
      <point x="1207" y="812"/>
      <point x="979" y="1056"/>
      <point x="678" y="1056" type="curve" smooth="yes"/>
      <point x="381" y="1056"/>
      <point x="137" y="819"/>
      <point x="137" y="507" type="curve" smooth="yes"/>
      <point x="137" y="203"/>
      <point x="370" y="-32"/>
    </contour>
    <contour>
      <point x="283" y="583" type="line"/>
      <point x="301" y="793"/>
      <point x="468" y="950"/>
      <point x="676" y="950" type="curve" smooth="yes"/>
      <point x="882" y="950"/>
      <point x="1049" y="795"/>
      <point x="1070" y="583" type="curve"/>
    </contour>
  </outline>
</glyph>
<glyph name="Hbar" format="2">
  <advance width="1744"/>
  <unicode hex="0126"/>
  <outline>
    <contour>
      <point x="417" y="0" type="line"/>
      <point x="417" y="727" type="line"/>
      <point x="1327" y="727" type="line"/>
      <point x="1327" y="0" type="line"/>
      <point x="1473" y="0" type="line"/>
      <point x="1473" y="1650" type="line"/>
      <point x="1327" y="1650" type="line"/>
      <point x="1327" y="834" type="line"/>
      <point x="417" y="834" type="line"/>
      <point x="417" y="1650" type="line"/>
      <point x="271" y="1650" type="line"/>
      <point x="271" y="0" type="line"/>
    </contour>
    <contour>
      <point x="1607" y="1069" type="line"/>
      <point x="1607" y="1176" type="line"/>
      <point x="137" y="1176" type="line"/>
      <point x="137" y="1069" type="line"/>
    </contour>
  </outline>
</glyph>
<glyph name="hbar" format="2">
  <advance width="1282"/>
  <unicode hex="0127"/>
  <outline>
    <component base="h"/>
    <contour>
      <point x="575" y="1310" type="line"/>
      <point x="575" y="1407" type="line"/>
      <point x="75" y="1407" type="line"/>
      <point x="75" y="1310" type="line"/>
    </contour>
  </outline>
</glyph>
<glyph name="idotless" format="2">
  <advance width="574"/>
  <unicode hex="0131"/>
  <anchor x="287" y="0" name="bottom"/>
  <anchor x="356" y="0" name="ogonek"/>
  <anchor x="286" y="1025" name="top"/>
  <outline>
    <contour>
      <point x="357" y="0" type="line"/>
      <point x="357" y="1024" type="line"/>
      <point x="217" y="1024" type="line"/>
      <point x="217" y="0" type="line"/>
    </contour>
  </outline>
</glyph>
<glyph name="Lslash" format="2">
  <advance width="1258"/>
  <unicode hex="0141"/>
  <outline>
    <component base="L" xOffset="35"/>
    <contour>
      <point x="666" y="991" type="line"/>
      <point x="666" y="1110" type="line"/>
      <point x="143" y="698" type="line"/>
      <point x="143" y="579" type="line"/>
    </contour>
  </outline>
</glyph>
<glyph name="lslash" format="2">
  <advance width="591"/>
  <unicode hex="0142"/>
  <outline>
    <component base="l" xOffset="9"/>
    <contour>
      <point x="374" y="947" type="line"/>
      <point x="374" y="1031" type="line"/>
      <point x="217" y="907" type="line"/>
      <point x="217" y="824" type="line"/>
    </contour>
  </outline>
</glyph>
<glyph name="Eng" format="2">
  <advance width="1708"/>
  <unicode hex="014A"/>
  <outline>
    <contour>
      <point x="270" y="1650" type="line"/>
      <point x="270" y="0" type="line"/>
      <point x="416" y="0" type="line"/>
      <point x="416" y="1399" type="line"/>
      <point x="1308" y="0" type="line"/>
      <point x="1308" y="-24" type="line" smooth="yes"/>
      <point x="1308" y="-260"/>
      <point x="1181" y="-412"/>
      <point x="948" y="-412" type="curve" smooth="yes"/>
      <point x="839" y="-412"/>
      <point x="736" y="-375"/>
      <point x="647" y="-280" type="curve"/>
      <point x="564" y="-378" type="line"/>
      <point x="676" y="-499"/>
      <point x="797" y="-551"/>
      <point x="962" y="-551" type="curve" smooth="yes"/>
      <point x="1270" y="-551"/>
      <point x="1454" y="-367"/>
      <point x="1454" y="-55" type="curve" smooth="yes"/>
      <point x="1454" y="1650" type="line"/>
      <point x="1308" y="1650" type="line"/>
      <point x="1308" y="249" type="line"/>
      <point x="416" y="1650" type="line"/>
    </contour>
  </outline>
</glyph>
<glyph name="eng" format="2">
  <advance width="1278"/>
  <unicode hex="014B"/>
  <outline>
    <contour>
      <point x="217" y="1025" type="line"/>
      <point x="217" y="0" type="line"/>
      <point x="357" y="0" type="line"/>
      <point x="357" y="627" type="line" smooth="yes"/>
      <point x="357" y="825"/>
      <point x="483" y="941" name=".hr01"/>
      <point x="656" y="941" type="curve" smooth="yes"/>
      <point x="841" y="941"/>
      <point x="944" y="806"/>
      <point x="944" y="610" type="curve" smooth="yes"/>
      <point x="944" y="-215" type="line" smooth="yes"/>
      <point x="944" y="-351"/>
      <point x="885" y="-425"/>
      <point x="790" y="-425" type="curve" smooth="yes"/>
      <point x="747" y="-425"/>
      <point x="700" y="-410"/>
      <point x="666" y="-366" type="curve"/>
      <point x="592" y="-449" type="line"/>
      <point x="649" y="-521"/>
      <point x="730" y="-550"/>
      <point x="815" y="-550" type="curve" smooth="yes"/>
      <point x="981" y="-550"/>
      <point x="1084" y="-437"/>
      <point x="1084" y="-227" type="curve" smooth="yes"/>
      <point x="1084" y="641" type="line" smooth="yes"/>
      <point x="1084" y="892"/>
      <point x="933" y="1056"/>
      <point x="696" y="1056" type="curve" smooth="yes"/>
      <point x="538" y="1056"/>
      <point x="412" y="983"/>
      <point x="357" y="877" type="curve"/>
      <point x="357" y="1025" type="line" name=".hr02"/>
    </contour>
  </outline>
</glyph>
<glyph name="OE" format="2">
  <advance width="2028"/>
  <unicode hex="0152"/>
  <outline>
    <contour>
      <point x="1854" y="0" type="line"/>
      <point x="1854" y="129" type="line"/>
      <point x="1171" y="129" type="line"/>
      <point x="1171" y="762" type="line"/>
      <point x="1830" y="762" type="line"/>
      <point x="1830" y="891" type="line"/>
      <point x="1171" y="891" type="line"/>
      <point x="1171" y="1522" type="line"/>
      <point x="1854" y="1522" type="line"/>
      <point x="1854" y="1650" type="line"/>
      <point x="1046" y="1650" type="line" smooth="yes"/>
      <point x="523" y="1650"/>
      <point x="169" y="1296"/>
      <point x="169" y="825" type="curve" smooth="yes"/>
      <point x="169" y="354"/>
      <point x="523" y="0"/>
      <point x="1046" y="0" type="curve" smooth="yes"/>
    </contour>
    <contour>
      <point x="1025" y="131" type="line"/>
      <point x="617" y="131"/>
      <point x="326" y="426"/>
      <point x="326" y="825" type="curve" smooth="yes"/>
      <point x="326" y="1224"/>
      <point x="623" y="1519"/>
      <point x="1025" y="1519" type="curve"/>
    </contour>
  </outline>
</glyph>
<glyph name="oe" format="2">
  <advance width="2316"/>
  <unicode hex="0153"/>
  <anchor x="1158" y="0" name="bottom"/>
  <anchor x="1158" y="1025" name="top"/>
  <outline>
    <contour>
      <point x="700" y="-32" type="curve" smooth="yes"/>
      <point x="925" y="-32"/>
      <point x="1110" y="85"/>
      <point x="1187" y="272" type="curve"/>
      <point x="1270" y="83"/>
      <point x="1453" y="-32"/>
      <point x="1674" y="-32" type="curve" smooth="yes"/>
      <point x="1880" y="-32"/>
      <point x="2054" y="60"/>
      <point x="2152" y="218" type="curve"/>
      <point x="2049" y="275" type="line"/>
      <point x="1966" y="151"/>
      <point x="1838" y="85"/>
      <point x="1683" y="85" type="curve" smooth="yes"/>
      <point x="1434" y="85"/>
      <point x="1260" y="257"/>
      <point x="1260" y="499" type="curve"/>
      <point x="2188" y="499" type="line"/>
      <point x="2188" y="513"/>
      <point x="2188" y="516"/>
      <point x="2188" y="523" type="curve" smooth="yes"/>
      <point x="2188" y="823"/>
      <point x="1954" y="1056"/>
      <point x="1658" y="1056" type="curve" smooth="yes"/>
      <point x="1449" y="1056"/>
      <point x="1270" y="932"/>
      <point x="1188" y="749" type="curve"/>
      <point x="1111" y="939"/>
      <point x="925" y="1056"/>
      <point x="700" y="1056" type="curve" smooth="yes"/>
      <point x="380" y="1056"/>
      <point x="139" y="833"/>
      <point x="139" y="512" type="curve" smooth="yes"/>
      <point x="139" y="191"/>
      <point x="380" y="-32"/>
    </contour>
    <contour>
      <point x="705" y="90" type="curve" smooth="yes"/>
      <point x="460" y="90"/>
      <point x="281" y="267"/>
      <point x="281" y="512" type="curve" smooth="yes"/>
      <point x="281" y="757"/>
      <point x="460" y="934"/>
      <point x="705" y="934" type="curve" smooth="yes"/>
      <point x="949" y="934"/>
      <point x="1129" y="757"/>
      <point x="1129" y="512" type="curve" smooth="yes"/>
      <point x="1129" y="267"/>
      <point x="949" y="90"/>
    </contour>
    <contour>
      <point x="1264" y="587" type="line"/>
      <point x="1282" y="795"/>
      <point x="1450" y="952"/>
      <point x="1658" y="952" type="curve" smooth="yes"/>
      <point x="1865" y="952" name=".hr01"/>
      <point x="2030" y="796"/>
      <point x="2051" y="587" type="curve"/>
    </contour>
  </outline>
</glyph>
<glyph name="Tbar" format="2">
  <advance width="1387"/>
  <unicode hex="0166"/>
  <outline>
    <component base="T"/>
    <contour>
      <point x="1065" y="950" type="line"/>
      <point x="1065" y="1057" type="line"/>
      <point x="323" y="1057" type="line"/>
      <point x="323" y="950" type="line"/>
    </contour>
  </outline>
</glyph>
<glyph name="tbar" format="2">
  <advance width="742"/>
  <unicode hex="0167"/>
  <outline>
    <contour>
      <point x="467" y="-32" type="curve" smooth="yes"/>
      <point x="538" y="-32"/>
      <point x="612" y="-8"/>
      <point x="654" y="27" type="curve"/>
      <point x="594" y="120" type="line"/>
      <point x="568" y="102"/>
      <point x="532" y="92"/>
      <point x="498" y="92" type="curve" smooth="yes"/>
      <point x="416" y="92"/>
      <point x="370" y="154"/>
      <point x="370" y="268" type="curve" smooth="yes"/>
      <point x="370" y="741" type="line"/>
      <point x="626" y="741" type="line"/>
      <point x="626" y="824" type="line"/>
      <point x="370" y="824" type="line"/>
      <point x="370" y="965" type="line"/>
      <point x="626" y="965" type="line"/>
      <point x="626" y="1048" type="line"/>
      <point x="370" y="1048" type="line"/>
      <point x="370" y="1407" type="line"/>
      <point x="229" y="1407" type="line"/>
      <point x="229" y="1048" type="line"/>
      <point x="126" y="1048" type="line"/>
      <point x="126" y="965" type="line"/>
      <point x="229" y="965" type="line"/>
      <point x="229" y="824" type="line"/>
      <point x="126" y="824" type="line"/>
      <point x="126" y="741" type="line"/>
      <point x="229" y="741" type="line"/>
      <point x="229" y="261" type="line" smooth="yes"/>
      <point x="229" y="75"/>
      <point x="317" y="-32"/>
    </contour>
  </outline>
</glyph>
<glyph name="Uogonek" format="2">
  <advance width="1630"/>
  <unicode hex="0172"/>
  <outline>
    <contour>
      <point x="815" y="-32" type="curve" smooth="yes"/>
      <point x="907" y="-32"/>
      <point x="991" y="-18"/>
      <point x="1061" y="8" type="curve"/>
      <point x="1038" y="8" type="line"/>
      <point x="917" y="-120"/>
      <point x="847" y="-237"/>
      <point x="847" y="-334" type="curve" smooth="yes"/>
      <point x="847" y="-458"/>
      <point x="951" y="-559"/>
      <point x="1098" y="-559" type="curve" smooth="yes"/>
      <point x="1206" y="-559"/>
      <point x="1312" y="-504"/>
      <point x="1373" y="-415" type="curve"/>
      <point x="1308" y="-367" type="line"/>
      <point x="1248" y="-436"/>
      <point x="1184" y="-467"/>
      <point x="1110" y="-467" type="curve" smooth="yes"/>
      <point x="999" y="-467"/>
      <point x="942" y="-400"/>
      <point x="942" y="-318" type="curve" smooth="yes"/>
      <point x="942" y="-210"/>
      <point x="1041" y="-51"/>
      <point x="1205" y="91" type="curve" smooth="yes"/>
      <point x="1324" y="195"/>
      <point x="1384" y="362"/>
      <point x="1384" y="591" type="curve" smooth="yes"/>
      <point x="1384" y="1650" type="line"/>
      <point x="1238" y="1650" type="line"/>
      <point x="1238" y="622" type="line" smooth="yes"/>
      <point x="1238" y="280"/>
      <point x="1097" y="112"/>
      <point x="815" y="112" type="curve" smooth="yes"/>
      <point x="533" y="112"/>
      <point x="392" y="280"/>
      <point x="392" y="622" type="curve" smooth="yes"/>
      <point x="392" y="1650" type="line"/>
      <point x="246" y="1650" type="line"/>
      <point x="246" y="591" type="line" smooth="yes"/>
      <point x="246" y="183"/>
      <point x="442" y="-32"/>
    </contour>
  </outline>
</glyph>
<glyph name="uogonek" format="2">
  <advance width="1254"/>
  <unicode hex="0173"/>
  <outline>
    <contour>
      <point x="627" y="-32" type="curve" smooth="yes"/>
      <point x="702" y="-32"/>
      <point x="768" y="-22"/>
      <point x="823" y="0" type="curve"/>
      <point x="782" y="0" type="line"/>
      <point x="666" y="-125"/>
      <point x="601" y="-234"/>
      <point x="601" y="-331" type="curve" smooth="yes"/>
      <point x="601" y="-458"/>
      <point x="705" y="-559"/>
      <point x="851" y="-559" type="curve" smooth="yes"/>
      <point x="960" y="-559"/>
      <point x="1066" y="-504"/>
      <point x="1127" y="-415" type="curve"/>
      <point x="1062" y="-367" type="line"/>
      <point x="1001" y="-436"/>
      <point x="938" y="-467"/>
      <point x="864" y="-467" type="curve" smooth="yes"/>
      <point x="753" y="-467"/>
      <point x="696" y="-398"/>
      <point x="696" y="-316" type="curve" smooth="yes"/>
      <point x="696" y="-215"/>
      <point x="783" y="-70"/>
      <point x="928" y="64" type="curve" smooth="yes"/>
      <point x="1014" y="143"/>
      <point x="1056" y="271"/>
      <point x="1056" y="453" type="curve" smooth="yes"/>
      <point x="1056" y="1024" type="line"/>
      <point x="916" y="1024" type="line"/>
      <point x="916" y="478" type="line" smooth="yes"/>
      <point x="916" y="200"/>
      <point x="832" y="86"/>
      <point x="627" y="86" type="curve" smooth="yes"/>
      <point x="422" y="86"/>
      <point x="338" y="200"/>
      <point x="338" y="478" type="curve" smooth="yes"/>
      <point x="338" y="1024" type="line"/>
      <point x="198" y="1024" type="line"/>
      <point x="198" y="453" type="line" smooth="yes"/>
      <point x="198" y="124"/>
      <point x="335" y="-32"/>
    </contour>
  </outline>
</glyph>
<glyph name="florin" format="2">
  <advance width="877"/>
  <unicode hex="0192"/>
  <outline>
    <contour>
      <point x="47" y="-551" type="curve" smooth="yes"/>
      <point x="225" y="-551"/>
      <point x="343" y="-419"/>
      <point x="365" y="-196" type="curve" smooth="yes"/>
      <point x="478" y="919" type="line"/>
      <point x="741" y="919" type="line"/>
      <point x="750" y="1025" type="line"/>
      <point x="488" y="1025" type="line"/>
      <point x="528" y="1399" type="line" smooth="yes"/>
      <point x="544" y="1550"/>
      <point x="610" y="1627"/>
      <point x="714" y="1627" type="curve" smooth="yes"/>
      <point x="756" y="1627"/>
      <point x="796" y="1614"/>
      <point x="822" y="1595" type="curve"/>
      <point x="886" y="1690" type="line"/>
      <point x="841" y="1730"/>
      <point x="777" y="1750"/>
      <point x="706" y="1750" type="curve" smooth="yes"/>
      <point x="527" y="1750"/>
      <point x="410" y="1618"/>
      <point x="387" y="1395" type="curve" smooth="yes"/>
      <point x="348" y="1025" type="line"/>
      <point x="246" y="1025" type="line"/>
      <point x="236" y="919" type="line"/>
      <point x="338" y="919" type="line"/>
      <point x="224" y="-201" type="line" smooth="yes"/>
      <point x="209" y="-352"/>
      <point x="141" y="-428"/>
      <point x="37" y="-428" type="curve" smooth="yes"/>
      <point x="-4" y="-428"/>
      <point x="-45" y="-415"/>
      <point x="-71" y="-396" type="curve"/>
      <point x="-135" y="-491" type="line"/>
      <point x="-90" y="-531"/>
      <point x="-25" y="-551"/>
    </contour>
  </outline>
</glyph>
<glyph name="gravecomb" format="2">
  <advance width="310"/>
  <unicode hex="0300"/>
  <anchor x="154" y="1024" name="_top"/>
  <anchor x="154" y="1661" name="top"/>
  <outline>
    <contour>
      <point x="373" y="1307" type="line"/>
      <point x="15" y="1529" type="line"/>
      <point x="-57" y="1415" type="line"/>
      <point x="324" y="1232" type="line"/>
    </contour>
  </outline>
</glyph>
<glyph name="acutecomb" format="2">
  <advance width="298"/>
  <unicode hex="0301"/>
  <anchor x="77" y="1024" name="_top"/>
  <anchor x="101" y="1683" name="top"/>
  <outline>
    <contour>
      <point x="-75" y="1307" type="line"/>
      <point x="-26" y="1232" type="line"/>
      <point x="347" y="1411" type="line"/>
      <point x="283" y="1529" type="line"/>
    </contour>
  </outline>
</glyph>
<glyph name="circumflexcomb" format="2">
  <advance width="732"/>
  <unicode hex="0302"/>
  <anchor x="366" y="1024" name="_top"/>
  <anchor x="366" y="1680" name="top"/>
  <outline>
    <contour>
      <point x="366" y="1555" type="line"/>
      <point x="672" y="1331" type="line"/>
      <point x="732" y="1412" type="line"/>
      <point x="366" y="1680" type="line"/>
      <point x="0" y="1412" type="line"/>
      <point x="60" y="1331" type="line"/>
    </contour>
  </outline>
</glyph>
<glyph name="tildecomb" format="2">
  <advance width="994"/>
  <unicode hex="0303"/>
  <anchor x="497" y="1024" name="_top"/>
  <anchor x="497" y="1542" name="top"/>
  <outline>
    <contour>
      <point x="0" y="1346" type="curve"/>
      <point x="82" y="1293" type="line"/>
      <point x="128" y="1371"/>
      <point x="199" y="1431"/>
      <point x="298" y="1431" type="curve" smooth="yes"/>
      <point x="458" y="1431"/>
      <point x="516" y="1271"/>
      <point x="700" y="1271" type="curve" smooth="yes"/>
      <point x="830" y="1271"/>
      <point x="929" y="1350"/>
      <point x="994" y="1467" type="curve"/>
      <point x="912" y="1520" type="line"/>
      <point x="866" y="1442"/>
      <point x="795" y="1382"/>
      <point x="696" y="1382" type="curve" smooth="yes"/>
      <point x="536" y="1382"/>
      <point x="478" y="1542"/>
      <point x="294" y="1542" type="curve" smooth="yes"/>
      <point x="164" y="1542"/>
      <point x="65" y="1463"/>
    </contour>
  </outline>
</glyph>
<glyph name="brevecomb" format="2">
  <advance width="820"/>
  <unicode hex="0306"/>
  <anchor x="410" y="1024" name="_top"/>
  <anchor x="410" y="1680" name="top"/>
  <outline>
    <contour>
      <point x="410" y="1334" type="curve" smooth="yes"/>
      <point x="622" y="1334"/>
      <point x="784" y="1463"/>
      <point x="820" y="1654" type="curve"/>
      <point x="713" y="1680" type="line"/>
      <point x="686" y="1538"/>
      <point x="573" y="1432"/>
      <point x="410" y="1432" type="curve" smooth="yes"/>
      <point x="247" y="1432"/>
      <point x="134" y="1538"/>
      <point x="107" y="1680" type="curve"/>
      <point x="0" y="1654" type="line"/>
      <point x="36" y="1463"/>
      <point x="198" y="1334"/>
    </contour>
  </outline>
</glyph>
<glyph name="dotaccentcomb" format="2">
  <advance width="186"/>
  <unicode hex="0307"/>
  <anchor x="93" y="1024" name="_top"/>
  <anchor x="92" y="1567" name="top"/>
  <outline>
    <contour>
      <point x="93" y="1381" type="curve" smooth="yes"/>
      <point x="144" y="1381"/>
      <point x="186" y="1423"/>
      <point x="186" y="1474" type="curve" smooth="yes"/>
      <point x="186" y="1525"/>
      <point x="144" y="1567"/>
      <point x="93" y="1567" type="curve" smooth="yes"/>
      <point x="42" y="1567"/>
      <point x="0" y="1525"/>
      <point x="0" y="1474" type="curve" smooth="yes"/>
      <point x="0" y="1423"/>
      <point x="42" y="1381"/>
    </contour>
  </outline>
</glyph>
<glyph name="dieresiscomb" format="2">
  <advance width="646"/>
  <unicode hex="0308"/>
  <anchor x="323" y="1024" name="_top"/>
  <anchor x="323" y="1484" name="top"/>
  <outline>
    <contour>
      <point x="559" y="1311" type="curve" smooth="yes"/>
      <point x="607" y="1311"/>
      <point x="646" y="1350"/>
      <point x="646" y="1398" type="curve" smooth="yes"/>
      <point x="646" y="1446"/>
      <point x="607" y="1485"/>
      <point x="559" y="1485" type="curve" smooth="yes"/>
      <point x="511" y="1485"/>
      <point x="472" y="1446"/>
      <point x="472" y="1398" type="curve" smooth="yes"/>
      <point x="472" y="1350"/>
      <point x="511" y="1311"/>
    </contour>
    <contour>
      <point x="87" y="1311" type="curve" smooth="yes"/>
      <point x="135" y="1311"/>
      <point x="174" y="1350"/>
      <point x="174" y="1398" type="curve" smooth="yes"/>
      <point x="174" y="1446"/>
      <point x="135" y="1485"/>
      <point x="87" y="1485" type="curve" smooth="yes"/>
      <point x="39" y="1485"/>
      <point x="0" y="1446"/>
      <point x="0" y="1398" type="curve" smooth="yes"/>
      <point x="0" y="1350"/>
      <point x="39" y="1311"/>
    </contour>
  </outline>
</glyph>
<glyph name="ringcomb" format="2">
  <advance width="460"/>
  <unicode hex="030A"/>
  <anchor x="230" y="1024" name="_top"/>
  <anchor x="230" y="1668" name="top"/>
  <outline>
    <contour>
      <point x="230" y="1260" type="curve" smooth="yes"/>
      <point x="359" y="1260"/>
      <point x="460" y="1345"/>
      <point x="460" y="1464" type="curve" smooth="yes"/>
      <point x="460" y="1584"/>
      <point x="359" y="1668"/>
      <point x="230" y="1668" type="curve" smooth="yes"/>
      <point x="101" y="1668"/>
      <point x="0" y="1584"/>
      <point x="0" y="1464" type="curve" smooth="yes"/>
      <point x="0" y="1345"/>
      <point x="101" y="1260"/>
    </contour>
    <contour>
      <point x="230" y="1343" type="curve" smooth="yes"/>
      <point x="152" y="1343"/>
      <point x="94" y="1394"/>
      <point x="94" y="1464" type="curve" smooth="yes"/>
      <point x="94" y="1534"/>
      <point x="152" y="1585"/>
      <point x="230" y="1585" type="curve" smooth="yes"/>
      <point x="308" y="1585"/>
      <point x="366" y="1534"/>
      <point x="366" y="1464" type="curve" smooth="yes"/>
      <point x="366" y="1394"/>
      <point x="308" y="1343"/>
    </contour>
  </outline>
</glyph>
<glyph name="hungarumlautcomb" format="2">
  <advance width="677"/>
  <unicode hex="030B"/>
  <anchor x="276" y="1024" name="_top"/>
  <anchor x="276" y="1680" name="top"/>
  <outline>
    <contour>
      <point x="677" y="1570" type="line"/>
      <point x="570" y="1680" type="line"/>
      <point x="350" y="1459" type="line"/>
      <point x="417" y="1385" type="line"/>
    </contour>
    <contour>
      <point x="326" y="1570" type="line"/>
      <point x="221" y="1680" type="line"/>
      <point x="0" y="1459" type="line"/>
      <point x="67" y="1385" type="line"/>
    </contour>
  </outline>
</glyph>
<glyph name="caroncomb" format="2">
  <advance width="732"/>
  <unicode hex="030C"/>
  <anchor x="366" y="1024" name="_top"/>
  <anchor x="366" y="1680" name="top"/>
  <outline>
    <contour>
      <point x="732" y="1492" type="line"/>
      <point x="672" y="1573" type="line"/>
      <point x="366" y="1349" type="line"/>
      <point x="60" y="1573" type="line"/>
      <point x="0" y="1492" type="line"/>
      <point x="366" y="1223" type="line"/>
    </contour>
  </outline>
</glyph>
<glyph name="commaaccentcomb" format="2">
  <advance width="725"/>
  <unicode hex="0326"/>
  <anchor x="358" y="0" name="_bottom"/>
  <anchor x="358" y="-528" name="bottom"/>
  <outline>
    <contour>
      <point x="319" y="-468" type="line"/>
      <point x="383" y="-418"/>
      <point x="436" y="-310"/>
      <point x="436" y="-225" type="curve" smooth="yes"/>
      <point x="436" y="-161"/>
      <point x="405" y="-127"/>
      <point x="358" y="-127" type="curve" smooth="yes"/>
      <point x="313" y="-127"/>
      <point x="282" y="-159"/>
      <point x="282" y="-201" type="curve" smooth="yes"/>
      <point x="282" y="-242"/>
      <point x="312" y="-272"/>
      <point x="350" y="-276" type="curve"/>
      <point x="348" y="-346"/>
      <point x="327" y="-407"/>
      <point x="296" y="-448" type="curve"/>
    </contour>
  </outline>
</glyph>
<glyph name="cedillacomb" format="2">
  <advance width="501"/>
  <unicode hex="0327"/>
  <anchor x="291" y="24" name="_cedilla"/>
  <anchor x="245" y="-559" name="bottom"/>
  <outline>
    <contour>
      <point x="212" y="24" type="line"/>
      <point x="128" y="-236" type="line"/>
      <point x="136" y="-242" type="line"/>
      <point x="169" y="-221"/>
      <point x="228" y="-206"/>
      <point x="273" y="-206" type="curve" smooth="yes"/>
      <point x="355" y="-206"/>
      <point x="412" y="-254"/>
      <point x="412" y="-325" type="curve" smooth="yes"/>
      <point x="412" y="-401"/>
      <point x="349" y="-453"/>
      <point x="256" y="-453" type="curve" smooth="yes"/>
      <point x="176" y="-453"/>
      <point x="108" y="-415"/>
      <point x="68" y="-349" type="curve"/>
      <point x="0" y="-394" type="line"/>
      <point x="56" y="-484"/>
      <point x="147" y="-536"/>
      <point x="257" y="-536" type="curve" smooth="yes"/>
      <point x="399" y="-536"/>
      <point x="501" y="-449"/>
      <point x="501" y="-327" type="curve" smooth="yes"/>
      <point x="501" y="-206"/>
      <point x="395" y="-143"/>
      <point x="282" y="-143" type="curve" smooth="yes"/>
      <point x="262" y="-143"/>
      <point x="243" y="-145"/>
      <point x="221" y="-150" type="curve"/>
      <point x="230" y="-159" type="line"/>
      <point x="291" y="24" type="line"/>
    </contour>
  </outline>
</glyph>
<glyph name="ogonekcomb" format="2">
  <advance width="526"/>
  <unicode hex="0328"/>
  <anchor x="263" y="24" name="_ogonek"/>
  <outline>
    <contour>
      <point x="250" y="-535" type="curve" smooth="yes"/>
      <point x="359" y="-535"/>
      <point x="465" y="-480"/>
      <point x="526" y="-391" type="curve"/>
      <point x="461" y="-343" type="line"/>
      <point x="400" y="-412"/>
      <point x="338" y="-443"/>
      <point x="263" y="-443" type="curve" smooth="yes"/>
      <point x="152" y="-443"/>
      <point x="95" y="-376"/>
      <point x="95" y="-294" type="curve" smooth="yes"/>
      <point x="95" y="-209"/>
      <point x="157" y="-91"/>
      <point x="263" y="24" type="curve"/>
      <point x="182" y="24" type="line"/>
      <point x="65" y="-101"/>
      <point x="0" y="-215"/>
      <point x="0" y="-310" type="curve" smooth="yes"/>
      <point x="0" y="-434"/>
      <point x="104" y="-535"/>
    </contour>
  </outline>
</glyph>
<glyph name="Delta" format="2">
  <advance width="1565"/>
  <unicode hex="0394"/>
  <outline>
    <contour>
      <point x="757" y="1650" type="line"/>
      <point x="111" y="0" type="line"/>
      <point x="1454" y="0" type="line"/>
      <point x="808" y="1650" type="line"/>
    </contour>
    <contour>
      <point x="754" y="1563" type="line"/>
      <point x="1302" y="97" type="line"/>
      <point x="264" y="97" type="line"/>
      <point x="811" y="1563" type="line"/>
    </contour>
  </outline>
</glyph>
<glyph name="Omega" format="2">
  <advance width="1908"/>
  <unicode hex="03A9"/>
  <outline>
    <contour>
      <point x="952" y="1680" type="curve" smooth="yes"/>
      <point x="512" y="1680"/>
      <point x="169" y="1328"/>
      <point x="169" y="882" type="curve" smooth="yes"/>
      <point x="169" y="510"/>
      <point x="418" y="204"/>
      <point x="752" y="97" type="curve"/>
      <point x="262" y="102" type="line"/>
      <point x="262" y="0" type="line"/>
      <point x="908" y="0" type="line"/>
      <point x="908" y="88" type="line"/>
      <point x="881" y="97" type="line" smooth="yes"/>
      <point x="563" y="208"/>
      <point x="307" y="530"/>
      <point x="307" y="860" type="curve" smooth="yes"/>
      <point x="307" y="1227"/>
      <point x="574" y="1553"/>
      <point x="952" y="1553" type="curve" smooth="yes"/>
      <point x="1332" y="1553"/>
      <point x="1599" y="1227"/>
      <point x="1599" y="860" type="curve" smooth="yes"/>
      <point x="1599" y="530"/>
      <point x="1342" y="208"/>
      <point x="1024" y="97" type="curve" smooth="yes"/>
      <point x="997" y="88" type="line"/>
      <point x="997" y="0" type="line"/>
      <point x="1643" y="0" type="line"/>
      <point x="1643" y="102" type="line"/>
      <point x="1154" y="97" type="line"/>
      <point x="1488" y="204"/>
      <point x="1738" y="510"/>
      <point x="1738" y="882" type="curve" smooth="yes"/>
      <point x="1738" y="1328"/>
      <point x="1394" y="1680"/>
    </contour>
  </outline>
</glyph>
<glyph name="mu" format="2">
  <advance width="1497"/>
  <unicode hex="03BC"/>
  <outline>
    <contour>
      <point x="475" y="-320" type="line"/>
      <point x="475" y="94" type="line"/>
      <point x="523" y="15"/>
      <point x="608" y="-32"/>
      <point x="744" y="-32" type="curve" smooth="yes"/>
      <point x="857" y="-32"/>
      <point x="1005" y="23"/>
      <point x="1063" y="141" type="curve"/>
      <point x="1063" y="0" type="line"/>
      <point x="1203" y="0" type="line"/>
      <point x="1203" y="1024" type="line"/>
      <point x="1063" y="1024" type="line"/>
      <point x="1063" y="356" type="line" smooth="yes"/>
      <point x="1063" y="223"/>
      <point x="952" y="82"/>
      <point x="768" y="82" type="curve" smooth="yes"/>
      <point x="569" y="82"/>
      <point x="475" y="206"/>
      <point x="475" y="414" type="curve" smooth="yes"/>
      <point x="475" y="1024" type="line"/>
      <point x="336" y="1024" type="line"/>
      <point x="336" y="438" type="line" smooth="yes"/>
      <point x="336" y="141"/>
      <point x="297" y="0"/>
      <point x="297" y="-320" type="curve"/>
    </contour>
  </outline>
</glyph>
<glyph name="pi" format="2">
  <advance width="1290"/>
  <unicode hex="03C0"/>
  <outline>
    <contour>
      <point x="505" y="0" type="line"/>
      <point x="505" y="914" type="line"/>
      <point x="805" y="914" type="line"/>
      <point x="805" y="193" type="line" smooth="yes"/>
      <point x="805" y="53"/>
      <point x="862" y="0"/>
      <point x="1013" y="0" type="curve"/>
      <point x="1013" y="116" type="line"/>
      <point x="943" y="116"/>
      <point x="921" y="139"/>
      <point x="921" y="210" type="curve" smooth="yes"/>
      <point x="921" y="914" type="line"/>
      <point x="1092" y="914" type="line"/>
      <point x="1092" y="1024" type="line"/>
      <point x="217" y="1024" type="line"/>
      <point x="217" y="914" type="line"/>
      <point x="388" y="914" type="line"/>
      <point x="388" y="0" type="line"/>
    </contour>
  </outline>
</glyph>
<glyph name="Germandbls" format="2">
  <advance width="1550"/>
  <unicode hex="1E9E"/>
  <outline>
    <contour>
      <point x="940" y="-30" type="curve" smooth="yes"/>
      <point x="1198" y="-30"/>
      <point x="1390" y="141"/>
      <point x="1390" y="396" type="curve" smooth="yes"/>
      <point x="1390" y="766"/>
      <point x="987" y="763"/>
      <point x="987" y="895" type="curve" smooth="yes"/>
      <point x="987" y="990"/>
      <point x="1191" y="1020"/>
      <point x="1191" y="1287" type="curve" smooth="yes"/>
      <point x="1191" y="1540"/>
      <point x="1008" y="1681"/>
      <point x="766" y="1681" type="curve" smooth="yes"/>
      <point x="449" y="1681"/>
      <point x="271" y="1441"/>
      <point x="271" y="1066" type="curve" smooth="yes"/>
      <point x="271" y="0" type="line" name=".hr01"/>
      <point x="417" y="0" type="line"/>
      <point x="417" y="1073" type="line" smooth="yes"/>
      <point x="417" y="1363"/>
      <point x="537" y="1536"/>
      <point x="756" y="1536" type="curve" smooth="yes"/>
      <point x="919" y="1536"/>
      <point x="1041" y="1441"/>
      <point x="1041" y="1265" type="curve" smooth="yes"/>
      <point x="1041" y="1034"/>
      <point x="831" y="1039"/>
      <point x="831" y="883" type="curve" smooth="yes"/>
      <point x="831" y="665"/>
      <point x="1244" y="710"/>
      <point x="1244" y="403" type="curve" smooth="yes"/>
      <point x="1244" y="223"/>
      <point x="1109" y="110" name=".hr02"/>
      <point x="936" y="110" type="curve" smooth="yes"/>
      <point x="831" y="110"/>
      <point x="741" y="151"/>
      <point x="639" y="222" type="curve"/>
      <point x="564" y="103" type="line"/>
      <point x="699" y="13"/>
      <point x="815" y="-30"/>
    </contour>
  </outline>
</glyph>
<glyph name="endash" format="2">
  <advance width="1295"/>
  <unicode hex="2013"/>
  <outline>
    <contour>
      <point x="1078" y="520" type="line"/>
      <point x="1078" y="639" type="line"/>
      <point x="217" y="639" type="line"/>
      <point x="217" y="520" type="line"/>
    </contour>
  </outline>
</glyph>
<glyph name="emdash" format="2">
  <advance width="2120"/>
  <unicode hex="2014"/>
  <outline>
    <contour>
      <point x="1904" y="520" type="line"/>
      <point x="1904" y="639" type="line"/>
      <point x="217" y="639" type="line"/>
      <point x="217" y="520" type="line"/>
    </contour>
  </outline>
</glyph>
<glyph name="quotesinglbase" format="2">
  <advance width="725"/>
  <unicode hex="201A"/>
  <outline>
    <contour>
      <point x="266" y="-224" type="line"/>
      <point x="348" y="-158"/>
      <point x="413" y="-44"/>
      <point x="413" y="47" type="curve" smooth="yes"/>
      <point x="413" y="122"/>
      <point x="367" y="161"/>
      <point x="313" y="161" type="curve" smooth="yes"/>
      <point x="260" y="161"/>
      <point x="218" y="120"/>
      <point x="218" y="69" type="curve" smooth="yes"/>
      <point x="218" y="23"/>
      <point x="250" y="-14"/>
      <point x="296" y="-21" type="curve"/>
      <point x="292" y="-88"/>
      <point x="264" y="-156"/>
      <point x="232" y="-195" type="curve"/>
    </contour>
  </outline>
</glyph>
<glyph name="dagger" format="2">
  <advance width="1173"/>
  <unicode hex="2020"/>
  <outline>
    <contour>
      <point x="650" y="0" type="line"/>
      <point x="650" y="1106" type="line"/>
      <point x="989" y="1106" type="line"/>
      <point x="989" y="1222" type="line"/>
      <point x="650" y="1222" type="line"/>
      <point x="650" y="1720" type="line"/>
      <point x="524" y="1720" type="line"/>
      <point x="524" y="1222" type="line"/>
      <point x="185" y="1222" type="line"/>
      <point x="185" y="1106" type="line"/>
      <point x="524" y="1106" type="line"/>
      <point x="524" y="0" type="line"/>
    </contour>
  </outline>
</glyph>
<glyph name="daggerdbl" format="2">
  <advance width="1230"/>
  <unicode hex="2021"/>
  <outline>
    <contour>
      <point x="678" y="0" type="line"/>
      <point x="678" y="538" type="line"/>
      <point x="1017" y="538" type="line"/>
      <point x="1017" y="654" type="line"/>
      <point x="678" y="654" type="line"/>
      <point x="678" y="1094" type="line"/>
      <point x="1017" y="1094" type="line"/>
      <point x="1017" y="1212" type="line"/>
      <point x="678" y="1212" type="line"/>
      <point x="678" y="1720" type="line"/>
      <point x="552" y="1720" type="line"/>
      <point x="552" y="1212" type="line"/>
      <point x="213" y="1212" type="line"/>
      <point x="213" y="1094" type="line"/>
      <point x="552" y="1094" type="line"/>
      <point x="552" y="654" type="line"/>
      <point x="213" y="654" type="line"/>
      <point x="213" y="538" type="line"/>
      <point x="552" y="538" type="line"/>
      <point x="552" y="0" type="line"/>
    </contour>
  </outline>
</glyph>
<glyph name="bullet" format="2">
  <advance width="845"/>
  <unicode hex="2022"/>
  <outline>
    <contour>
      <point x="422" y="562" type="curve" smooth="yes"/>
      <point x="507" y="562"/>
      <point x="574" y="630"/>
      <point x="574" y="714" type="curve" smooth="yes"/>
      <point x="574" y="798"/>
      <point x="507" y="866"/>
      <point x="422" y="866" type="curve" smooth="yes"/>
      <point x="339" y="866"/>
      <point x="270" y="798"/>
      <point x="270" y="714" type="curve" smooth="yes"/>
      <point x="270" y="630"/>
      <point x="339" y="562"/>
    </contour>
  </outline>
</glyph>
<glyph name="perthousand" format="2">
  <advance width="3161"/>
  <unicode hex="2030"/>
  <outline>
    <component base="percent"/>
    <contour>
      <point x="2560" y="-32" type="curve" smooth="yes"/>
      <point x="2791" y="-32"/>
      <point x="2970" y="130"/>
      <point x="2970" y="362" type="curve" smooth="yes"/>
      <point x="2970" y="594"/>
      <point x="2791" y="756"/>
      <point x="2560" y="756" type="curve" smooth="yes"/>
      <point x="2330" y="756"/>
      <point x="2150" y="594"/>
      <point x="2150" y="362" type="curve" smooth="yes"/>
      <point x="2150" y="130"/>
      <point x="2330" y="-32"/>
    </contour>
    <contour>
      <point x="2560" y="66" type="curve" smooth="yes"/>
      <point x="2392" y="66"/>
      <point x="2266" y="189"/>
      <point x="2266" y="362" type="curve" smooth="yes"/>
      <point x="2266" y="535"/>
      <point x="2392" y="658"/>
      <point x="2560" y="658" type="curve" smooth="yes"/>
      <point x="2729" y="658"/>
      <point x="2854" y="535"/>
      <point x="2854" y="362" type="curve" smooth="yes"/>
      <point x="2854" y="189"/>
      <point x="2729" y="66"/>
    </contour>
  </outline>
</glyph>
<glyph name="guilsinglleft" format="2">
  <advance width="754"/>
  <unicode hex="2039"/>
  <outline>
    <contour>
      <point x="607" y="124" type="line"/>
      <point x="269" y="556" type="line"/>
      <point x="607" y="990" type="line"/>
      <point x="521" y="1056" type="line"/>
      <point x="131" y="556" type="line"/>
      <point x="521" y="56" type="line"/>
    </contour>
  </outline>
</glyph>
<glyph name="guilsinglright" format="2">
  <advance width="753"/>
  <unicode hex="203A"/>
  <outline>
    <contour>
      <point x="621" y="556" type="line"/>
      <point x="231" y="1056" type="line"/>
      <point x="146" y="990" type="line"/>
      <point x="484" y="556" type="line"/>
      <point x="146" y="124" type="line"/>
      <point x="231" y="56" type="line"/>
    </contour>
  </outline>
</glyph>
<glyph name="foursuperior" format="2">
  <advance width="950"/>
  <unicode hex="2074"/>
  <outline>
    <contour>
      <point x="637" y="1040" type="line"/>
      <point x="637" y="1152" type="line"/>
      <point x="716" y="1152" type="line"/>
      <point x="716" y="1216" type="line"/>
      <point x="637" y="1216" type="line"/>
      <point x="637" y="1650" type="line"/>
      <point x="568" y="1650" type="line"/>
      <point x="230" y="1184" type="line"/>
      <point x="230" y="1152" type="line"/>
      <point x="569" y="1152" type="line"/>
      <point x="569" y="1040" type="line"/>
    </contour>
    <contour>
      <point x="569" y="1554" type="line"/>
      <point x="569" y="1216" type="line"/>
      <point x="327" y="1216" type="line"/>
    </contour>
  </outline>
</glyph>
<glyph name="euro" format="2">
  <advance width="1976"/>
  <unicode hex="20AC"/>
  <outline>
    <component base="C" xOffset="240" yOffset="-1"/>
    <contour>
      <point x="223" y="1039" type="line"/>
      <point x="223" y="945" type="line"/>
      <point x="1467" y="945" type="line"/>
      <point x="1467" y="1039" type="line"/>
    </contour>
    <contour>
      <point x="223" y="702" type="line"/>
      <point x="223" y="608" type="line"/>
      <point x="1467" y="608" type="line"/>
      <point x="1467" y="702" type="line"/>
    </contour>
  </outline>
</glyph>
<glyph name="arrowleft" format="2">
  <advance width="2114"/>
  <unicode hex="2190"/>
  <outline>
    <contour>
      <point x="315" y="898" type="line"/>
      <point x="315" y="752" type="line"/>
      <point x="1897" y="752" type="line"/>
      <point x="1897" y="898" type="line"/>
    </contour>
    <contour>
      <point x="217" y="825" type="line"/>
      <point x="1042" y="0" type="line"/>
      <point x="1248" y="0" type="line"/>
      <point x="389" y="844" type="line"/>
      <point x="389" y="806" type="line"/>
      <point x="1248" y="1650" type="line"/>
      <point x="1042" y="1650" type="line"/>
    </contour>
  </outline>
</glyph>
<glyph name="arrowup" format="2">
  <advance width="2084"/>
  <unicode hex="2191"/>
  <outline>
    <contour>
      <point x="1115" y="1582" type="line"/>
      <point x="969" y="1582" type="line"/>
      <point x="969" y="0" type="line"/>
      <point x="1115" y="0" type="line"/>
    </contour>
    <contour>
      <point x="1042" y="1680" type="line"/>
      <point x="217" y="855" type="line"/>
      <point x="217" y="649" type="line"/>
      <point x="1061" y="1508" type="line"/>
      <point x="1023" y="1508" type="line"/>
      <point x="1867" y="649" type="line"/>
      <point x="1867" y="855" type="line"/>
    </contour>
  </outline>
</glyph>
<glyph name="arrowboth" format="2">
  <advance width="2514"/>
  <unicode hex="2194"/>
  <outline>
    <contour>
      <point x="309" y="898" type="line"/>
      <point x="309" y="752" type="line"/>
      <point x="2210" y="752" type="line"/>
      <point x="2210" y="898" type="line"/>
    </contour>
    <contour>
      <point x="861" y="1650" type="line"/>
      <point x="217" y="825" type="line"/>
      <point x="861" y="0" type="line"/>
      <point x="1051" y="0" type="line"/>
      <point x="384" y="844" type="line"/>
      <point x="384" y="806" type="line"/>
      <point x="1051" y="1650" type="line"/>
    </contour>
    <contour>
      <point x="1462" y="1650" type="line"/>
      <point x="2130" y="806" type="line"/>
      <point x="2130" y="844" type="line"/>
      <point x="1462" y="0" type="line"/>
      <point x="1652" y="0" type="line"/>
      <point x="2297" y="825" type="line"/>
      <point x="1652" y="1650" type="line"/>
    </contour>
  </outline>
</glyph>
<glyph name="arrowupdn" format="2">
  <advance width="1564"/>
  <unicode hex="2195"/>
  <outline>
    <contour>
      <point x="855" y="1582" type="line"/>
      <point x="709" y="1582" type="line"/>
      <point x="709" y="60" type="line"/>
      <point x="855" y="60" type="line"/>
    </contour>
    <contour>
      <point x="782" y="1680" type="line"/>
      <point x="217" y="1162" type="line"/>
      <point x="217" y="999" type="line"/>
      <point x="801" y="1537" type="line"/>
      <point x="763" y="1537" type="line"/>
      <point x="1347" y="999" type="line"/>
      <point x="1347" y="1162" type="line"/>
    </contour>
    <contour>
      <point x="217" y="651" type="line"/>
      <point x="217" y="488" type="line"/>
      <point x="782" y="-30" type="line"/>
      <point x="1347" y="488" type="line"/>
      <point x="1347" y="651" type="line"/>
      <point x="763" y="113" type="line"/>
      <point x="801" y="113" type="line"/>
    </contour>
  </outline>
</glyph>
<glyph name="arrowNW" format="2">
  <advance width="1976"/>
  <unicode hex="2196"/>
  <outline>
    <contour>
      <point x="338" y="1632" type="line"/>
      <point x="235" y="1529" type="line"/>
      <point x="1618" y="145" type="line"/>
      <point x="1722" y="249" type="line"/>
    </contour>
    <contour>
      <point x="217" y="1650" type="line"/>
      <point x="217" y="253" type="line"/>
      <point x="362" y="108" type="line"/>
      <point x="352" y="1542" type="line"/>
      <point x="325" y="1515" type="line"/>
      <point x="1759" y="1504" type="line"/>
      <point x="1614" y="1650" type="line"/>
    </contour>
  </outline>
</glyph>
<glyph name="arrowNE" format="2">
  <advance width="1976"/>
  <unicode hex="2197"/>
  <outline>
    <contour>
      <point x="1741" y="1529" type="line"/>
      <point x="1638" y="1632" type="line"/>
      <point x="254" y="249" type="line"/>
      <point x="358" y="145" type="line"/>
    </contour>
    <contour>
      <point x="1759" y="1650" type="line"/>
      <point x="362" y="1650" type="line"/>
      <point x="217" y="1505" type="line"/>
      <point x="1651" y="1515" type="line"/>
      <point x="1624" y="1542" type="line"/>
      <point x="1613" y="108" type="line"/>
      <point x="1759" y="253" type="line"/>
    </contour>
  </outline>
</glyph>
<glyph name="arrowSE" format="2">
  <advance width="1976"/>
  <unicode hex="2198"/>
  <outline>
    <contour>
      <point x="1638" y="18" type="line"/>
      <point x="1741" y="121" type="line"/>
      <point x="358" y="1505" type="line"/>
      <point x="254" y="1401" type="line"/>
    </contour>
    <contour>
      <point x="1759" y="0" type="line"/>
      <point x="1759" y="1397" type="line"/>
      <point x="1614" y="1542" type="line"/>
      <point x="1624" y="108" type="line"/>
      <point x="1651" y="135" type="line"/>
      <point x="217" y="146" type="line"/>
      <point x="362" y="0" type="line"/>
    </contour>
  </outline>
</glyph>
<glyph name="arrowSW" format="2">
  <advance width="1976"/>
  <unicode hex="2199"/>
  <outline>
    <contour>
      <point x="235" y="121" type="line"/>
      <point x="338" y="18" type="line"/>
      <point x="1722" y="1401" type="line"/>
      <point x="1618" y="1505" type="line"/>
    </contour>
    <contour>
      <point x="217" y="0" type="line"/>
      <point x="1614" y="0" type="line"/>
      <point x="1759" y="145" type="line"/>
      <point x="325" y="135" type="line"/>
      <point x="352" y="108" type="line"/>
      <point x="363" y="1542" type="line"/>
      <point x="217" y="1397" type="line"/>
    </contour>
  </outline>
</glyph>
<glyph name="partialdiff" format="2">
  <advance width="1491"/>
  <unicode hex="2202"/>
  <outline>
    <contour>
      <point x="759" y="-33" type="curve" smooth="yes"/>
      <point x="1144" y="-33"/>
      <point x="1323" y="253"/>
      <point x="1323" y="688" type="curve" smooth="yes"/>
      <point x="1323" y="1170"/>
      <point x="1100" y="1557"/>
      <point x="695" y="1790" type="curve"/>
      <point x="631" y="1683" type="line"/>
      <point x="973" y="1485"/>
      <point x="1143" y="1185"/>
      <point x="1166" y="794" type="curve"/>
      <point x="1096" y="964"/>
      <point x="910" y="1068"/>
      <point x="714" y="1068" type="curve" smooth="yes"/>
      <point x="393" y="1068"/>
      <point x="168" y="814"/>
      <point x="168" y="517" type="curve" smooth="yes"/>
      <point x="168" y="199"/>
      <point x="423" y="-33"/>
    </contour>
    <contour>
      <point x="742" y="93" type="curve" smooth="yes"/>
      <point x="513" y="93"/>
      <point x="311" y="253"/>
      <point x="311" y="509" type="curve" smooth="yes"/>
      <point x="311" y="736"/>
      <point x="472" y="938"/>
      <point x="729" y="938" type="curve" smooth="yes"/>
      <point x="957" y="938"/>
      <point x="1160" y="776"/>
      <point x="1160" y="522" type="curve" smooth="yes"/>
      <point x="1160" y="294"/>
      <point x="998" y="93"/>
    </contour>
  </outline>
</glyph>
<glyph name="emptyset" format="2">
  <advance width="1200"/>
  <unicode hex="2205"/>
  <outline>
    <contour>
      <point x="1097" y="1077" type="line"/>
      <point x="1042" y="1133" type="line"/>
      <point x="128" y="219" type="line"/>
      <point x="183" y="164" type="line"/>
    </contour>
    <contour>
      <point x="612" y="191" type="curve" smooth="yes"/>
      <point x="865" y="191"/>
      <point x="1069" y="393"/>
      <point x="1069" y="648" type="curve" smooth="yes"/>
      <point x="1069" y="902"/>
      <point x="868" y="1105"/>
      <point x="613" y="1105" type="curve" smooth="yes"/>
      <point x="357" y="1105"/>
      <point x="156" y="901"/>
      <point x="156" y="647" type="curve" smooth="yes"/>
      <point x="156" y="394"/>
      <point x="357" y="191"/>
    </contour>
    <contour>
      <point x="613" y="287" type="curve" smooth="yes"/>
      <point x="409" y="287"/>
      <point x="250" y="444"/>
      <point x="250" y="648" type="curve" smooth="yes"/>
      <point x="250" y="852"/>
      <point x="409" y="1010"/>
      <point x="613" y="1010" type="curve" smooth="yes"/>
      <point x="815" y="1010"/>
      <point x="976" y="852"/>
      <point x="976" y="648" type="curve" smooth="yes"/>
      <point x="976" y="444"/>
      <point x="815" y="287"/>
    </contour>
  </outline>
</glyph>
<glyph name="product" format="2">
  <advance width="1845"/>
  <unicode hex="220F"/>
  <outline>
    <contour>
      <point x="557" y="0" type="line"/>
      <point x="557" y="1610" type="line"/>
      <point x="1288" y="1610" type="line"/>
      <point x="1288" y="0" type="line"/>
      <point x="1404" y="0" type="line"/>
      <point x="1404" y="1610" type="line"/>
      <point x="1575" y="1610" type="line"/>
      <point x="1575" y="1720" type="line"/>
      <point x="271" y="1720" type="line"/>
      <point x="271" y="1610" type="line"/>
      <point x="441" y="1610" type="line"/>
      <point x="441" y="0" type="line"/>
    </contour>
  </outline>
</glyph>
<glyph name="summation" format="2">
  <advance width="1586"/>
  <unicode hex="2211"/>
  <outline>
    <contour>
      <point x="1316" y="0" type="line"/>
      <point x="1316" y="110" type="line"/>
      <point x="477" y="110" type="line"/>
      <point x="972" y="860" type="line"/>
      <point x="477" y="1610" type="line"/>
      <point x="1316" y="1610" type="line"/>
      <point x="1316" y="1720" type="line"/>
      <point x="271" y="1720" type="line"/>
      <point x="841" y="860" type="line"/>
      <point x="271" y="0" type="line"/>
    </contour>
  </outline>
</glyph>
<glyph name="minus" format="2">
  <advance width="1674"/>
  <unicode hex="2212"/>
  <outline>
    <contour>
      <point x="1349" y="768" type="line"/>
      <point x="1349" y="889" type="line"/>
      <point x="325" y="889" type="line"/>
      <point x="325" y="768" type="line"/>
    </contour>
  </outline>
</glyph>
<glyph name="DivisionSlash" format="2">
  <advance width="1042"/>
  <unicode hex="2215"/>
  <outline>
    <contour>
      <point x="166" y="-240" type="line"/>
      <point x="990" y="1720" type="line"/>
      <point x="875" y="1720" type="line"/>
      <point x="51" y="-240" type="line"/>
    </contour>
  </outline>
</glyph>
<glyph name="radical" format="2">
  <advance width="1670"/>
  <unicode hex="221A"/>
  <outline>
    <contour>
      <point x="642" y="-32" type="line"/>
      <point x="1041" y="1610" type="line"/>
      <point x="1400" y="1610" type="line"/>
      <point x="1400" y="1720" type="line"/>
      <point x="947" y="1720" type="line"/>
      <point x="569" y="117" type="line"/>
      <point x="388" y="609" type="line"/>
      <point x="271" y="609" type="line"/>
      <point x="510" y="-32" type="line"/>
    </contour>
  </outline>
</glyph>
<glyph name="infinity" format="2">
  <advance width="2146"/>
  <unicode hex="221E"/>
  <outline>
    <contour>
      <point x="566" y="110" type="curve" smooth="yes"/>
      <point x="760" y="110"/>
      <point x="912" y="259"/>
      <point x="1073" y="457" type="curve"/>
      <point x="1234" y="259"/>
      <point x="1385" y="110"/>
      <point x="1580" y="110" type="curve" smooth="yes"/>
      <point x="1796" y="110"/>
      <point x="2007" y="290"/>
      <point x="2007" y="545" type="curve" smooth="yes"/>
      <point x="2007" y="800"/>
      <point x="1795" y="979"/>
      <point x="1580" y="979" type="curve" smooth="yes"/>
      <point x="1385" y="979"/>
      <point x="1234" y="830"/>
      <point x="1073" y="633" type="curve"/>
      <point x="912" y="830"/>
      <point x="760" y="979"/>
      <point x="566" y="979" type="curve" smooth="yes"/>
      <point x="351" y="979"/>
      <point x="139" y="800"/>
      <point x="139" y="545" type="curve" smooth="yes"/>
      <point x="139" y="290"/>
      <point x="350" y="110"/>
    </contour>
    <contour>
      <point x="578" y="233" type="curve" smooth="yes"/>
      <point x="427" y="233"/>
      <point x="274" y="360"/>
      <point x="274" y="545" type="curve" smooth="yes"/>
      <point x="274" y="730"/>
      <point x="428" y="856"/>
      <point x="578" y="856" type="curve" smooth="yes"/>
      <point x="737" y="856"/>
      <point x="852" y="717"/>
      <point x="1001" y="545" type="curve"/>
      <point x="852" y="372"/>
      <point x="736" y="233"/>
    </contour>
    <contour>
      <point x="1567" y="233" type="curve" smooth="yes"/>
      <point x="1409" y="233"/>
      <point x="1293" y="372"/>
      <point x="1145" y="545" type="curve"/>
      <point x="1293" y="717"/>
      <point x="1409" y="856"/>
      <point x="1567" y="856" type="curve" smooth="yes"/>
      <point x="1718" y="856"/>
      <point x="1872" y="730"/>
      <point x="1872" y="545" type="curve" smooth="yes"/>
      <point x="1872" y="360"/>
      <point x="1719" y="233"/>
    </contour>
  </outline>
</glyph>
<glyph name="integral" format="2">
  <advance width="877"/>
  <unicode hex="222B"/>
  <outline>
    <contour>
      <point x="49" y="-551" type="curve" smooth="yes"/>
      <point x="232" y="-551"/>
      <point x="343" y="-425"/>
      <point x="365" y="-196" type="curve"/>
      <point x="528" y="1399" type="line"/>
      <point x="542" y="1550"/>
      <point x="606" y="1627"/>
      <point x="714" y="1627" type="curve" smooth="yes"/>
      <point x="759" y="1627"/>
      <point x="801" y="1613"/>
      <point x="827" y="1591" type="curve"/>
      <point x="886" y="1691" type="line"/>
      <point x="841" y="1730"/>
      <point x="776" y="1750"/>
      <point x="702" y="1750" type="curve" smooth="yes"/>
      <point x="520" y="1750"/>
      <point x="409" y="1624"/>
      <point x="387" y="1395" type="curve"/>
      <point x="224" y="-200" type="line" smooth="yes"/>
      <point x="209" y="-351"/>
      <point x="146" y="-428"/>
      <point x="38" y="-428" type="curve" smooth="yes"/>
      <point x="-8" y="-428"/>
      <point x="-49" y="-414"/>
      <point x="-76" y="-392" type="curve"/>
      <point x="-135" y="-492" type="line"/>
      <point x="-90" y="-531"/>
      <point x="-25" y="-551"/>
    </contour>
  </outline>
</glyph>
<glyph name="notequal" format="2">
  <advance width="1513"/>
  <unicode hex="2260"/>
  <outline>
    <component base="equal" xOffset="-82"/>
    <contour>
      <point x="424" y="260" type="line"/>
      <point x="1080" y="1390" type="line"/>
      <point x="979" y="1390" type="line"/>
      <point x="323" y="260" type="line"/>
    </contour>
  </outline>
</glyph>
<glyph name="lessequal" format="2">
  <advance width="1544"/>
  <unicode hex="2264"/>
  <outline>
    <contour>
      <point x="1305" y="556" type="line"/>
      <point x="354" y="1004" type="line"/>
      <point x="1305" y="1455" type="line"/>
      <point x="1305" y="1567" type="line"/>
      <point x="210" y="1051" type="line"/>
      <point x="210" y="960" type="line"/>
      <point x="1305" y="443" type="line"/>
    </contour>
    <contour>
      <point x="1305" y="149" type="line"/>
      <point x="1305" y="270" type="line"/>
      <point x="210" y="270" type="line"/>
      <point x="210" y="149" type="line"/>
    </contour>
  </outline>
</glyph>
<glyph name="greaterequal" format="2">
  <advance width="1544"/>
  <unicode hex="2265"/>
  <outline>
    <contour>
      <point x="1334" y="960" type="line"/>
      <point x="1334" y="1051" type="line"/>
      <point x="240" y="1567" type="line"/>
      <point x="240" y="1455" type="line"/>
      <point x="1190" y="1004" type="line"/>
      <point x="240" y="556" type="line"/>
      <point x="240" y="443" type="line"/>
    </contour>
    <contour>
      <point x="1334" y="149" type="line"/>
      <point x="1334" y="270" type="line"/>
      <point x="240" y="270" type="line"/>
      <point x="240" y="149" type="line"/>
    </contour>
  </outline>
</glyph>
<glyph name="lozenge" format="2">
  <advance width="1200"/>
  <unicode hex="25CA"/>
  <outline>
    <contour>
      <point x="669" y="-80" type="line"/>
      <point x="1089" y="795" type="line"/>
      <point x="669" y="1670" type="line"/>
      <point x="531" y="1670" type="line"/>
      <point x="111" y="795" type="line"/>
      <point x="531" y="-80" type="line"/>
    </contour>
    <contour>
      <point x="251" y="795" type="line"/>
      <point x="600" y="1520" type="line"/>
      <point x="949" y="795" type="line"/>
      <point x="600" y="70" type="line"/>
    </contour>
  </outline>
</glyph>
<glyph name="f_f" format="2">
  <advance width="1330"/>
  <unicode hex="FB00"/>
  <anchor x="647" y="0" name="caret_1"/>
  <outline>
    <contour>
      <point x="407" y="0" type="line"/>
      <point x="407" y="917" type="line"/>
      <point x="745" y="917" type="line"/>
      <point x="745" y="0" type="line"/>
      <point x="886" y="0" type="line"/>
      <point x="886" y="917" type="line"/>
      <point x="1148" y="917" type="line"/>
      <point x="1148" y="1024" type="line"/>
      <point x="886" y="1024" type="line"/>
      <point x="886" y="1399" type="line" smooth="yes"/>
      <point x="886" y="1563"/>
      <point x="939" y="1627"/>
      <point x="1047" y="1627" type="curve" smooth="yes"/>
      <point x="1101" y="1627"/>
      <point x="1140" y="1612"/>
      <point x="1167" y="1591" type="curve"/>
      <point x="1215" y="1691" type="line"/>
      <point x="1180" y="1719"/>
      <point x="1120" y="1750"/>
      <point x="1026" y="1750" type="curve" smooth="yes"/>
      <point x="856" y="1750"/>
      <point x="745" y="1638"/>
      <point x="745" y="1395" type="curve" smooth="yes"/>
      <point x="745" y="1024" type="line"/>
      <point x="407" y="1024" type="line"/>
      <point x="407" y="1399" type="line" smooth="yes"/>
      <point x="407" y="1563"/>
      <point x="461" y="1627"/>
      <point x="568" y="1627" type="curve" smooth="yes"/>
      <point x="609" y="1627"/>
      <point x="643" y="1617"/>
      <point x="668" y="1603" type="curve"/>
      <point x="720" y="1702" type="line"/>
      <point x="684" y="1727"/>
      <point x="626" y="1750"/>
      <point x="547" y="1750" type="curve" smooth="yes"/>
      <point x="378" y="1750"/>
      <point x="267" y="1638"/>
      <point x="267" y="1395" type="curve" smooth="yes"/>
      <point x="267" y="1024" type="line"/>
      <point x="165" y="1024" type="line"/>
      <point x="165" y="917" type="line"/>
      <point x="267" y="917" type="line"/>
      <point x="267" y="0" type="line"/>
    </contour>
  </outline>
</glyph>
<glyph name="fi" format="2">
  <advance width="1006"/>
  <unicode hex="FB01"/>
  <anchor x="506" y="0" name="caret_1"/>
  <outline>
    <contour>
      <point x="373" y="0" type="line"/>
      <point x="373" y="917" type="line"/>
      <point x="695" y="917" type="line"/>
      <point x="695" y="0" type="line"/>
      <point x="835" y="0" type="line"/>
      <point x="835" y="1024" type="line"/>
      <point x="373" y="1024" type="line"/>
      <point x="373" y="1399" type="line" smooth="yes"/>
      <point x="373" y="1563"/>
      <point x="430" y="1628"/>
      <point x="546" y="1628" type="curve" smooth="yes"/>
      <point x="612" y="1628"/>
      <point x="689" y="1587"/>
      <point x="721" y="1531" type="curve"/>
      <point x="788" y="1614" type="line"/>
      <point x="736" y="1694"/>
      <point x="629" y="1750"/>
      <point x="513" y="1750" type="curve" smooth="yes"/>
      <point x="343" y="1750"/>
      <point x="232" y="1638"/>
      <point x="232" y="1395" type="curve" smooth="yes"/>
      <point x="232" y="1024" type="line"/>
      <point x="130" y="1024" type="line"/>
      <point x="130" y="917" type="line"/>
      <point x="232" y="917" type="line"/>
      <point x="232" y="0" type="line"/>
    </contour>
  </outline>
</glyph>
<glyph name="fl" format="2">
  <advance width="1153"/>
  <unicode hex="FB02"/>
  <anchor x="570" y="0" name="caret_1"/>
  <outline>
    <contour>
      <point x="397" y="0" type="line"/>
      <point x="397" y="917" type="line"/>
      <point x="659" y="917" type="line"/>
      <point x="659" y="1024" type="line"/>
      <point x="397" y="1024" type="line"/>
      <point x="397" y="1399" type="line" smooth="yes"/>
      <point x="397" y="1563"/>
      <point x="451" y="1627"/>
      <point x="558" y="1627" type="curve" smooth="yes"/>
      <point x="594" y="1627"/>
      <point x="625" y="1620"/>
      <point x="651" y="1606" type="curve"/>
      <point x="690" y="1715" type="line"/>
      <point x="659" y="1732"/>
      <point x="608" y="1750"/>
      <point x="537" y="1750" type="curve" smooth="yes"/>
      <point x="368" y="1750"/>
      <point x="259" y="1638"/>
      <point x="259" y="1395" type="curve" smooth="yes"/>
      <point x="259" y="1024" type="line"/>
      <point x="155" y="1024" type="line"/>
      <point x="155" y="917" type="line"/>
      <point x="259" y="917" type="line"/>
      <point x="259" y="0" type="line"/>
    </contour>
    <contour>
      <point x="901" y="0" type="line"/>
      <point x="901" y="1720" type="line" name=".hr01"/>
      <point x="763" y="1720" type="line"/>
      <point x="763" y="0" type="line"/>
    </contour>
  </outline>
</glyph>
<glyph name="f_f_i" format="2">
  <advance width="1556"/>
  <unicode hex="FB03"/>
  <anchor x="516" y="0" name="caret_1"/>
  <anchor x="1034" y="0" name="caret_2"/>
  <outline>
    <contour>
      <point x="408" y="0" type="line"/>
      <point x="408" y="917" type="line"/>
      <point x="746" y="917" type="line"/>
      <point x="746" y="0" type="line"/>
      <point x="887" y="0" type="line"/>
      <point x="887" y="917" type="line"/>
      <point x="1208" y="917" type="line"/>
      <point x="1208" y="0" type="line"/>
      <point x="1348" y="0" type="line"/>
      <point x="1348" y="1024" type="line"/>
      <point x="887" y="1024" type="line"/>
      <point x="887" y="1399" type="line" smooth="yes"/>
      <point x="887" y="1563"/>
      <point x="945" y="1628"/>
      <point x="1060" y="1628" type="curve" smooth="yes"/>
      <point x="1127" y="1628"/>
      <point x="1204" y="1587"/>
      <point x="1236" y="1531" type="curve"/>
      <point x="1303" y="1614" type="line"/>
      <point x="1252" y="1694"/>
      <point x="1143" y="1750"/>
      <point x="1028" y="1750" type="curve" smooth="yes"/>
      <point x="857" y="1750"/>
      <point x="746" y="1638"/>
      <point x="746" y="1395" type="curve" smooth="yes"/>
      <point x="746" y="1024" type="line"/>
      <point x="408" y="1024" type="line"/>
      <point x="408" y="1399" type="line" smooth="yes"/>
      <point x="408" y="1563"/>
      <point x="461" y="1627"/>
      <point x="568" y="1627" type="curve" smooth="yes"/>
      <point x="609" y="1627"/>
      <point x="644" y="1617"/>
      <point x="668" y="1603" type="curve"/>
      <point x="721" y="1702" type="line"/>
      <point x="685" y="1727"/>
      <point x="627" y="1750"/>
      <point x="548" y="1750" type="curve" smooth="yes"/>
      <point x="379" y="1750"/>
      <point x="268" y="1638"/>
      <point x="268" y="1395" type="curve" smooth="yes"/>
      <point x="268" y="1024" type="line"/>
      <point x="166" y="1024" type="line"/>
      <point x="166" y="917" type="line"/>
      <point x="268" y="917" type="line"/>
      <point x="268" y="0" type="line"/>
    </contour>
  </outline>
</glyph>
<glyph name="f_f_l" format="2">
  <advance width="1634"/>
  <unicode hex="FB04"/>
  <anchor x="533" y="0" name="caret_1"/>
  <anchor x="1076" y="0" name="caret_2"/>
  <outline>
    <contour>
      <point x="399" y="0" type="line"/>
      <point x="399" y="917" type="line"/>
      <point x="737" y="917" type="line"/>
      <point x="737" y="0" type="line"/>
      <point x="877" y="0" type="line"/>
      <point x="877" y="917" type="line"/>
      <point x="1139" y="917" type="line"/>
      <point x="1139" y="1024" type="line"/>
      <point x="877" y="1024" type="line"/>
      <point x="877" y="1399" type="line" smooth="yes"/>
      <point x="877" y="1563"/>
      <point x="931" y="1627"/>
      <point x="1038" y="1627" type="curve" smooth="yes"/>
      <point x="1074" y="1627"/>
      <point x="1105" y="1620"/>
      <point x="1131" y="1606" type="curve"/>
      <point x="1170" y="1715" type="line"/>
      <point x="1139" y="1732"/>
      <point x="1088" y="1750"/>
      <point x="1017" y="1750" type="curve" smooth="yes"/>
      <point x="848" y="1750"/>
      <point x="737" y="1638"/>
      <point x="737" y="1395" type="curve" smooth="yes"/>
      <point x="737" y="1024" type="line"/>
      <point x="399" y="1024" type="line"/>
      <point x="399" y="1399" type="line" smooth="yes"/>
      <point x="399" y="1563"/>
      <point x="452" y="1627"/>
      <point x="559" y="1627" type="curve" smooth="yes"/>
      <point x="600" y="1627"/>
      <point x="635" y="1617"/>
      <point x="659" y="1603" type="curve"/>
      <point x="711" y="1702" type="line"/>
      <point x="676" y="1727"/>
      <point x="618" y="1750"/>
      <point x="539" y="1750" type="curve" smooth="yes"/>
      <point x="370" y="1750"/>
      <point x="259" y="1638"/>
      <point x="259" y="1395" type="curve" smooth="yes"/>
      <point x="259" y="1024" type="line"/>
      <point x="157" y="1024" type="line"/>
      <point x="157" y="917" type="line"/>
      <point x="259" y="917" type="line"/>
      <point x="259" y="0" type="line"/>
    </contour>
    <contour>
      <point x="1382" y="0" type="line"/>
      <point x="1382" y="1720" type="line" name=".hr01"/>
      <point x="1242" y="1720" type="line"/>
      <point x="1242" y="0" type="line"/>
    </contour>
  </outline>
</glyph>
<glyph name="A.tnum" format="2">
  <advance width="1500"/>
  <anchor x="750" y="0" name="bottom"/>
  <anchor x="1467" y="0" name="ogonek"/>
  <anchor x="750" y="1650" name="top"/>
  <outline>
    <contour>
      <point x="190" y="0" type="line"/>
      <point x="394" y="531" type="line"/>
      <point x="1106" y="531" type="line"/>
      <point x="1310" y="0" type="line"/>
      <point x="1467" y="0" type="line"/>
      <point x="818" y="1650" type="line"/>
      <point x="682" y="1650" type="line"/>
      <point x="33" y="0" type="line"/>
    </contour>
    <contour>
      <point x="750" y="1458" type="line"/>
      <point x="1056" y="660" type="line"/>
      <point x="444" y="660" type="line"/>
    </contour>
  </outline>
</glyph>
<glyph name="M.ss01" format="2">
  <advance width="2069"/>
  <anchor x="1034" y="102" name="bottom"/>
  <anchor x="1034" y="1650" name="top"/>
  <outline>
    <contour>
      <point x="321" y="0" type="line"/>
      <point x="506" y="1378" type="line"/>
      <point x="981" y="102" type="line"/>
      <point x="1088" y="102" type="line"/>
      <point x="1562" y="1378" type="line"/>
      <point x="1748" y="0" type="line"/>
      <point x="1894" y="0" type="line"/>
      <point x="1678" y="1650" type="line"/>
      <point x="1522" y="1650" type="line"/>
      <point x="1034" y="350" type="line"/>
      <point x="546" y="1650" type="line"/>
      <point x="390" y="1650" type="line"/>
      <point x="175" y="0" type="line"/>
    </contour>
  </outline>
</glyph>
<glyph name="P.tnum" format="2">
  <advance width="1500"/>
  <outline>
    <contour>
      <point x="483" y="0" type="line"/>
      <point x="483" y="700" type="line"/>
      <point x="760" y="700" type="line" smooth="yes"/>
      <point x="1083" y="700"/>
      <point x="1284" y="885"/>
      <point x="1284" y="1175" type="curve" smooth="yes"/>
      <point x="1284" y="1465"/>
      <point x="1083" y="1650"/>
      <point x="760" y="1650" type="curve" smooth="yes"/>
      <point x="337" y="1650" type="line"/>
      <point x="337" y="0" type="line"/>
    </contour>
    <contour>
      <point x="483" y="1531" type="line"/>
      <point x="727" y="1531" type="line" smooth="yes"/>
      <point x="976" y="1531"/>
      <point x="1136" y="1395"/>
      <point x="1136" y="1175" type="curve" smooth="yes"/>
      <point x="1136" y="955"/>
      <point x="976" y="819"/>
      <point x="727" y="819" type="curve" smooth="yes"/>
      <point x="483" y="819" type="line"/>
    </contour>
  </outline>
</glyph>
<glyph name="a.ss01" format="2">
  <advance width="1437"/>
  <anchor x="653" y="0" name="bottom"/>
  <anchor x="1219" y="0" name="ogonek"/>
  <anchor x="701" y="1024" name="top"/>
  <outline>
    <contour>
      <point x="288" y="512" type="curve" smooth="yes"/>
      <point x="288" y="758"/>
      <point x="455" y="934"/>
      <point x="687" y="934" type="curve" smooth="yes"/>
      <point x="920" y="934"/>
      <point x="1086" y="759"/>
      <point x="1086" y="512" type="curve" smooth="yes"/>
      <point x="1086" y="266"/>
      <point x="920" y="90"/>
      <point x="687" y="90" type="curve" smooth="yes"/>
      <point x="455" y="90"/>
      <point x="288" y="266"/>
    </contour>
    <contour>
      <point x="144" y="512" type="curve" smooth="yes"/>
      <point x="144" y="200"/>
      <point x="361" y="-32"/>
      <point x="654" y="-32" type="curve" smooth="yes"/>
      <point x="836" y="-32"/>
      <point x="992" y="61"/>
      <point x="1079" y="220" type="curve"/>
      <point x="1079" y="0" type="line"/>
      <point x="1219" y="0" type="line" name=".hr01"/>
      <point x="1219" y="1024" type="line"/>
      <point x="1079" y="1024" type="line"/>
      <point x="1079" y="804" type="line"/>
      <point x="992" y="963"/>
      <point x="836" y="1056"/>
      <point x="654" y="1056" type="curve" smooth="yes" name=".hr02"/>
      <point x="361" y="1056"/>
      <point x="144" y="824"/>
    </contour>
  </outline>
</glyph>
<glyph name="eight.pnum" format="2">
  <advance width="1375"/>
  <outline>
    <contour>
      <point x="687" y="-32" type="curve" smooth="yes"/>
      <point x="987" y="-32"/>
      <point x="1209" y="171"/>
      <point x="1209" y="439" type="curve" smooth="yes"/>
      <point x="1209" y="638"/>
      <point x="1087" y="806"/>
      <point x="898" y="877" type="curve"/>
      <point x="1049" y="945"/>
      <point x="1146" y="1091" name=".hr01"/>
      <point x="1146" y="1259" type="curve" smooth="yes"/>
      <point x="1146" y="1505"/>
      <point x="936" y="1680"/>
      <point x="687" y="1680" type="curve" smooth="yes"/>
      <point x="427" y="1680"/>
      <point x="229" y="1496"/>
      <point x="229" y="1259" type="curve" smooth="yes"/>
      <point x="229" y="1093"/>
      <point x="324" y="946"/>
      <point x="477" y="877" type="curve"/>
      <point x="288" y="807"/>
      <point x="166" y="639" name=".hr02"/>
      <point x="166" y="440" type="curve" smooth="yes"/>
      <point x="166" y="171"/>
      <point x="388" y="-32"/>
    </contour>
    <contour>
      <point x="687" y="97" type="curve" smooth="yes"/>
      <point x="474" y="97"/>
      <point x="323" y="249"/>
      <point x="323" y="451" type="curve" smooth="yes"/>
      <point x="323" y="658"/>
      <point x="481" y="806"/>
      <point x="687" y="806" type="curve" smooth="yes"/>
      <point x="897" y="806"/>
      <point x="1052" y="655"/>
      <point x="1052" y="451" type="curve" smooth="yes"/>
      <point x="1052" y="249"/>
      <point x="902" y="97"/>
    </contour>
    <contour>
      <point x="687" y="935" type="curve" smooth="yes"/>
      <point x="505" y="935"/>
      <point x="370" y="1069"/>
      <point x="370" y="1249" type="curve" smooth="yes"/>
      <point x="370" y="1428" name=".hr03"/>
      <point x="506" y="1565"/>
      <point x="687" y="1565" type="curve" smooth="yes"/>
      <point x="868" y="1565"/>
      <point x="1005" y="1428"/>
      <point x="1005" y="1249" type="curve" smooth="yes"/>
      <point x="1005" y="1069"/>
      <point x="869" y="935"/>
    </contour>
  </outline>
</glyph>
<glyph name="f_f_j" format="2">
  <advance width="1452"/>
  <outline>
    <contour>
      <point x="1011" y="-550" type="curve" smooth="yes"/>
      <point x="1189" y="-550"/>
      <point x="1282" y="-436"/>
      <point x="1282" y="-227" type="curve" smooth="yes"/>
      <point x="1282" y="1024" type="line"/>
      <point x="822" y="1024" type="line"/>
      <point x="822" y="1399" type="line" smooth="yes"/>
      <point x="822" y="1563"/>
      <point x="880" y="1628"/>
      <point x="995" y="1628" type="curve" smooth="yes"/>
      <point x="1061" y="1628"/>
      <point x="1139" y="1587"/>
      <point x="1170" y="1531" type="curve"/>
      <point x="1237" y="1614" type="line"/>
      <point x="1186" y="1694"/>
      <point x="1078" y="1750"/>
      <point x="962" y="1750" type="curve" smooth="yes"/>
      <point x="792" y="1750"/>
      <point x="681" y="1638"/>
      <point x="681" y="1395" type="curve" smooth="yes"/>
      <point x="681" y="1024" type="line"/>
      <point x="342" y="1024" type="line"/>
      <point x="342" y="1399" type="line" smooth="yes"/>
      <point x="342" y="1563"/>
      <point x="396" y="1627"/>
      <point x="503" y="1627" type="curve" smooth="yes"/>
      <point x="544" y="1627"/>
      <point x="578" y="1617"/>
      <point x="603" y="1603" type="curve"/>
      <point x="655" y="1702" type="line"/>
      <point x="619" y="1727"/>
      <point x="561" y="1750"/>
      <point x="482" y="1750" type="curve" smooth="yes"/>
      <point x="313" y="1750"/>
      <point x="202" y="1638"/>
      <point x="202" y="1395" type="curve" smooth="yes"/>
      <point x="202" y="1024" type="line"/>
      <point x="100" y="1024" type="line"/>
      <point x="100" y="917" type="line"/>
      <point x="202" y="917" type="line"/>
      <point x="202" y="0" type="line"/>
      <point x="342" y="0" type="line"/>
      <point x="342" y="917" type="line"/>
      <point x="681" y="917" type="line"/>
      <point x="681" y="0" type="line"/>
      <point x="822" y="0" type="line"/>
      <point x="822" y="917" type="line"/>
      <point x="1142" y="917" type="line"/>
      <point x="1142" y="-215" type="line" smooth="yes"/>
      <point x="1142" y="-360"/>
      <point x="1085" y="-425"/>
      <point x="985" y="-425" type="curve" smooth="yes"/>
      <point x="933" y="-425"/>
      <point x="893" y="-409"/>
      <point x="867" y="-387" type="curve"/>
      <point x="825" y="-499" type="line"/>
      <point x="858" y="-524"/>
      <point x="916" y="-550"/>
    </contour>
  </outline>
</glyph>
